<?xml version="1.0" encoding="UTF-8"?>
<!DOCTYPE svg PUBLIC "-//W3C//DTD SVG 1.1//EN" "http://www.w3.org/Graphics/SVG/1.1/DTD/svg11.dtd">
<!-- Creator: CorelDRAW X7 -->
<svg xmlns="http://www.w3.org/2000/svg" xml:space="preserve" width="36.1244cm" height="11.9944cm" version="1.1" style="shape-rendering:geometricPrecision; text-rendering:geometricPrecision; image-rendering:optimizeQuality; fill-rule:evenodd; clip-rule:evenodd"
viewBox="0 0 10146 3369"
 xmlns:xlink="http://www.w3.org/1999/xlink">
 <defs>
  <style type="text/css">
   <![CDATA[
    .fil0 {fill:#009544}
    .fil3 {fill:#322B2A}
    .fil1 {fill:#7CB900}
    .fil2 {fill:#EC6E1F}
   ]]>
  </style>
 </defs>
 <g id="Layer_x0020_1">
  <metadata id="CorelCorpID_0Corel-Layer"/>
  <g id="_2506688118800">
   <path class="fil0" d="M9453 585l20 0c1,56 160,657 168,673l-357 0 169 -673zm-2173 1426c19,49 71,85 105,127 18,22 32,34 51,57 24,29 22,38 55,58 -13,-64 -51,-106 -51,-172 1,-94 51,-466 51,-625 0,-49 8,-150 16,-202l53 -630c72,103 242,914 289,1069 52,174 48,228 129,426l73 135c22,29 3,22 44,25l46 -202c19,-74 36,-133 54,-204l208 -823c17,-69 34,-137 51,-206l58 -200c0,193 20,377 29,555l40 694c1,52 10,75 10,138 -1,165 -1,99 -40,181 -11,25 -25,28 19,37l576 0c-8,-93 -77,-50 -46,-164 18,-68 26,-126 42,-196 18,-81 82,-339 83,-403 167,0 307,-10 466,-10 3,164 150,567 107,702 -11,33 -29,49 -38,81 49,0 341,7 362,-5 24,-13 -13,-56 -47,-112 -23,-39 -49,-78 -62,-126 -67,-250 -138,-645 -205,-914 -25,-96 -44,-206 -70,-307l-137 -617 -287 0c1,59 21,48 21,129 -1,57 -10,95 -21,139l-230 1028 -206 746c-40,-30 -58,-160 -65,-213l-93 -1571c1,-117 -30,-146 19,-248l-307 0c-92,395 -225,868 -325,1271 -12,49 -29,154 -51,186 -4,-49 -29,-126 -42,-177l-295 -1290 -367 0c3,38 14,53 22,98 5,30 8,68 8,110l0 367c0,56 -10,64 -10,119 -2,143 -37,548 -55,678 -14,95 -20,331 -37,461z"/>
   <path class="fil1" d="M5797 2041c-38,0 -88,-15 -110,-29 -103,-64 -21,-208 83,-265 208,-114 414,-49 611,-3 -37,55 -189,146 -252,184 -72,44 -225,113 -332,113zm821 -2041l93 0c141,10 266,66 371,171 420,416 -2,987 -275,1395l473 445c19,49 71,85 105,127 18,22 32,34 51,57 24,29 22,38 55,58 41,62 193,222 198,284 -86,0 -172,0 -258,0 -93,-1 -147,10 -237,10 -59,-88 -62,-105 -139,-209 -50,-66 -97,-120 -152,-185l-133 -134c-20,-17 -25,-17 -44,-35 -61,-53 -115,-113 -186,-151l-302 184c-184,112 -354,186 -570,221 -102,-28 -169,-24 -175,-157 -5,-113 44,-183 62,-278 13,-17 59,-121 73,-148 56,-113 95,-203 188,-259 382,-230 770,37 872,61 52,-35 136,-164 173,-224l79 -159c53,-151 123,-339 36,-510 -156,-303 -783,-223 -783,80 22,-5 23,-8 49,-10 -8,33 -94,161 -118,179 -47,-98 -67,-325 -32,-448 35,-124 116,-220 230,-276 58,-29 107,-57 184,-73 38,-8 75,-14 112,-16z"/>
   <path class="fil2" d="M565 1248l0 -475 584 0c19,0 93,-71 116,-92 66,-59 201,-208 261,-255 23,-18 36,-34 59,-49 80,53 286,251 378,325 35,28 49,63 99,70l524 11 10 496c0,77 11,76 52,116 59,58 304,312 344,339 -17,25 -53,69 -76,92 -17,16 -30,27 -45,44l-211 235c-19,24 -16,21 -37,42 -26,26 -25,17 -27,62l-20 516 -604 0c-25,0 -42,26 -56,44l-183 212c-20,25 -24,30 -46,54 -21,23 -23,31 -45,54 -24,26 -37,26 -47,62 -52,-14 -98,-91 -133,-124 -16,-15 -13,-8 -31,-29 -36,-43 -241,-263 -272,-263l-604 0 0 -575c0,-25 -27,-41 -42,-57l-193 -213c-52,-54 -109,-102 -152,-166 27,-40 66,-81 102,-116l278 -278c40,-44 17,-32 17,-82zm535 -584l-654 0 0 495c0,124 37,72 -165,272l-155 162c-40,40 -97,88 -126,131l325 349c18,19 101,110 101,127l0 654 684 0c32,0 260,244 305,289l113 124c21,24 35,44 67,52 10,-36 23,-34 47,-62l307 -356c22,-24 32,-57 62,-57l674 0 24 -561c13,-99 23,-65 71,-127l135 -152c18,-19 32,-30 50,-49l186 -211 -384 -389c-56,-55 -53,-32 -52,-136 1,-66 0,-133 0,-199l-9 -278c0,-50 9,-60 -31,-68l-376 -10c-302,0 -182,6 -399,-176 -25,-20 -31,-21 -55,-45l-260 -225c-56,37 -298,286 -354,340 -18,17 -114,106 -131,106z"/>
   <path class="fil0" d="M3874 2021c-104,0 -70,4 -168,-19l0 -744c143,-68 475,-51 475,337 0,205 -133,426 -307,426zm-168 -981l0 -624c73,-6 176,-34 276,51 183,155 98,573 -276,573zm-278 1219l186 -12c51,-7 126,-4 185,-13 169,-26 156,30 319,-78 160,-105 281,-316 281,-511 0,-142 -8,-278 -85,-401 -49,-79 -102,-161 -202,-184 14,-60 159,-196 159,-446 0,-187 -114,-328 -241,-393 -87,-45 -149,-11 -287,-30 -82,-11 -226,-3 -315,-3 101,211 70,221 70,476 0,103 -11,171 -10,267l0 1111c1,126 -57,120 -60,217z"/>
   <path class="fil2" d="M416 1724c25,-37 337,-314 337,-357l0 -426 456 0c72,0 291,-269 376,-327 37,10 53,39 80,60l235 210c80,72 91,57 230,57 110,0 184,10 288,10 0,44 -3,96 0,139l9 268c0,95 27,89 77,131l49 51c9,8 11,9 21,18 14,13 21,21 34,35 41,41 108,98 137,141 -10,36 -229,259 -270,305 -61,67 -58,88 -57,230l-10 278 -496 0c-28,0 -138,143 -162,174l-155 182c-63,-42 -313,-337 -356,-337l-506 0 0 -485c0,-31 -56,-69 -76,-92l-120 -129c-19,-21 -21,-28 -39,-49 -28,-32 -59,-53 -82,-87zm208 -872l3 334c22,159 15,129 -119,263 -49,49 -81,91 -129,139 -40,40 -102,93 -131,136 23,35 54,55 80,88l245 261c45,44 32,53 31,137l0 337c0,183 -89,144 536,138 85,-1 71,6 116,52l339 335c30,-45 51,-62 84,-105l127 -150c18,-21 32,-30 48,-51 19,-23 71,-101 98,-101l565 0 18 -308c18,-159 -41,-148 64,-273l193 -214c16,-18 28,-27 44,-44l77 -92c-42,-28 -264,-262 -325,-319 -84,-81 -22,-97 -43,-284l-8 -230c1,-46 8,-56 -22,-67 -40,-15 -265,-2 -318,-9 -184,-25 -126,65 -341,-144 -21,-20 -24,-20 -44,-35l-217 -200c-66,45 -118,103 -176,161l-178 168c-48,49 -29,49 -121,48l-347 -1c-46,0 -149,-18 -149,30z"/>
   <path class="fil0" d="M5034 595l158 673 -337 0c1,-48 28,-122 40,-168 16,-63 113,-468 139,-505zm634 1643c-102,-28 -169,-24 -175,-157 -5,-113 44,-183 62,-278 -19,-70 -40,-133 -55,-199 -45,-206 -105,-405 -151,-601 -16,-68 -31,-129 -50,-198 -27,-98 -130,-542 -156,-597 -66,0 -193,-17 -263,-11 -25,2 16,32 16,140 0,65 -12,96 -25,154l-440 1723c-9,32 -18,38 17,45l278 0c-14,-62 -83,-134 -84,-168l109 -402c16,-58 34,-159 55,-203l436 0c23,102 39,99 65,252l58 410c-10,140 -155,121 293,121 8,-14 5,-11 10,-31z"/>
   <path class="fil3" d="M6490 2943c2,63 30,107 30,178l-79 0c1,-41 26,-161 49,-178zm-525 -149l0 565 89 0c0,-302 12,-154 40,-258l20 0c3,45 28,90 43,135 49,151 16,123 204,123 34,0 30,-20 37,-53 5,-28 11,-52 13,-76l139 0c10,22 29,96 29,129l90 0 -149 -594 -79 0c-45,190 -94,381 -139,574 -20,-23 -109,-261 -123,-294 -40,-98 84,-156 113,-280l-99 0 -139 237c0,-214 26,-237 -59,-237 -23,0 -30,6 -30,29z"/>
   <path class="fil3" d="M8888 3359l79 0 10 -357c0,82 41,255 50,357l79 0 59 -357 0 357 80 0 0 -594 -119 0c-2,74 -50,248 -50,356 -29,-21 -25,-83 -39,-168 -9,-54 -30,-135 -30,-188l-119 0 0 594z"/>
   <path class="fil3" d="M3518 3260l0 -149 99 0c23,0 39,17 39,40l0 59c0,50 -86,50 -138,50zm118 -268c-64,15 -42,10 -118,10l0 -128c118,0 128,-12 128,69 0,13 -6,42 -10,49zm-198 367c190,0 307,39 307,-178 0,-70 -32,-99 -59,-139 71,-106 55,-277 -89,-277l-159 0 0 594z"/>
   <path class="fil3" d="M9453 3359l79 0 0 -347 129 347 89 0 0 -594 -79 0 0 356c-15,-17 -12,-13 -22,-38l-88 -238c-30,-86 -5,-80 -108,-80l0 594z"/>
   <path class="fil3" d="M8066 3012l-99 0 0 -138c79,0 62,-6 128,9 1,7 34,129 -29,129zm-179 347l80 0 0 -238c57,0 60,7 102,106l46 132 99 0 -76 -201c-14,-28 -25,-34 -33,-67 32,-7 26,-3 44,-25 33,-38 47,-108 41,-157 -23,-174 -116,-144 -303,-144l0 594z"/>
   <path class="fil3" d="M7540 2794l0 565 288 0 0 -99 -198 0 0 -159 178 0 0 -109 -178 0 0 -118c224,0 198,20 198,-80 0,-52 -112,-29 -258,-29 -23,0 -30,6 -30,29z"/>
   <polygon class="fil3" points="6698,3359 6778,3359 6778,3111 6916,3111 6916,3359 6995,3359 6995,2765 6916,2765 6916,3002 6778,3002 6778,2765 6698,2765 "/>
   <path class="fil3" d="M9968 2943c11,49 39,127 40,178l-89 0 49 -178zm-188 416l89 0c3,-41 21,-90 30,-129l138 0c4,41 21,90 30,129l79 0c0,-45 -18,-114 -27,-151l-74 -293c-9,-37 -34,-114 -37,-150l-80 0c-33,69 -126,548 -148,594z"/>
   <path class="fil3" d="M8660 2943c25,18 49,140 50,178l-80 0c0,-68 29,-111 30,-178zm-168 416l79 0c10,-42 20,-86 30,-129l138 0c10,43 20,87 30,129l89 0c-23,-100 -47,-191 -73,-293l-75 -301 -80 0c-12,26 -30,111 -37,141 -12,58 -22,95 -36,152 -15,62 -64,252 -65,301z"/>
   <path class="fil3" d="M3954 2943c0,38 27,153 39,178l-89 0c4,-43 22,-158 50,-178zm-189 416l80 0c10,-22 27,-98 29,-129l139 0c11,23 27,98 30,129l89 0c-5,-55 -53,-214 -70,-296 -10,-50 -25,-106 -37,-152 -9,-35 -30,-122 -42,-146l-79 0 -139 594z"/>
   <path class="fil3" d="M4617 3181c0,180 89,188 179,188 96,0 119,-127 119,-228l0 -376 -80 0c0,98 28,495 -59,495 -53,0 -79,-27 -79,-99l0 -396 -80 0 0 416z"/>
   <path class="fil3" d="M5757 2943c0,26 32,162 40,178l-90 0c1,-41 27,-161 50,-178zm-188 416l79 0c10,-22 29,-96 30,-129 165,0 140,-11 155,53 8,32 12,43 13,76l89 0 -148 -594 -80 0 -106 438c-10,47 -29,115 -32,156z"/>
   <path class="fil3" d="M5281 2874l169 0c-28,51 -189,361 -189,396l0 89 298 0 0 -99 -198 0c7,-31 198,-381 198,-426 0,-91 30,-69 -278,-69l0 109z"/>
   <path class="fil3" d="M7342 3032l-59 0 0 -158 59 0c48,0 70,33 70,79 0,46 -22,79 -70,79zm-138 -238l0 565 79 0 0 -218c173,0 208,-23 208,-228 0,-177 -150,-148 -258,-148 -23,0 -29,6 -29,29z"/>
   <path class="fil3" d="M4974 2874l159 0 -132 284c-52,104 -47,29 -47,201l298 0 0 -99c-250,0 -222,37 -109,-188 93,-187 99,-149 99,-307l-268 0 0 109z"/>
   <polygon class="fil3" points="4281,2874 4390,2874 4390,3359 4469,3359 4469,2874 4578,2874 4578,2765 4281,2765 "/>
   <polygon class="fil3" points="8224,2874 8333,2874 8333,3359 8412,3359 8412,2874 8521,2874 8521,2765 8224,2765 "/>
   <path class="fil3" d="M9304 2794l0 565 89 0 0 -594 -59 0c-23,0 -30,6 -30,29z"/>
   <polygon class="fil3" points="4162,3359 4241,3359 4241,2765 4162,2765 "/>
  </g>
 </g>
</svg>
