<?xml version="1.0" encoding="UTF-8"?>
<!DOCTYPE svg PUBLIC "-//W3C//DTD SVG 1.1//EN" "http://www.w3.org/Graphics/SVG/1.1/DTD/svg11.dtd">
<!-- Creator: CorelDRAW X7 -->
<svg xmlns="http://www.w3.org/2000/svg" xml:space="preserve" width="135.826mm" height="106.452mm" version="1.1" style="shape-rendering:geometricPrecision; text-rendering:geometricPrecision; image-rendering:optimizeQuality; fill-rule:evenodd; clip-rule:evenodd"
viewBox="0 0 1909 1496"
 xmlns:xlink="http://www.w3.org/1999/xlink">
 <defs>
  <style type="text/css">
   <![CDATA[
    .fil3 {fill:#332C2B}
    .fil2 {fill:#00923F}
    .fil0 {fill:#0093DC}
    .fil1 {fill:#E77817}
   ]]>
  </style>
 </defs>
 <g id="Layer_x0020_1">
  <metadata id="CorelCorpID_0Corel-Layer"/>
  <g id="_1455257891136">
   <path class="fil0" d="M411 1333l17 -82c-12,0 -66,-14 -78,-18 -25,-8 -50,-17 -72,-27 -11,-6 -21,-10 -31,-17 -40,-24 -77,-51 -104,-91l-19 -31c-12,-24 -19,-42 -25,-73 -5,-27 -5,-65 -1,-92 2,-17 8,-45 13,-60 2,-7 3,-13 6,-20 5,-12 8,-22 13,-34 13,-30 35,-69 52,-96 6,-10 13,-21 19,-30l99 -120c5,-5 7,-9 12,-14 30,-30 23,-29 44,-28l123 -2c33,0 65,0 98,0 0,28 -3,54 -3,79 0,12 -2,27 -3,39 -1,26 -10,86 -14,111 -5,29 -15,70 -27,97 -11,25 -34,55 -54,71 -41,33 -64,24 -87,39 -9,6 -13,13 -19,22 48,0 109,0 156,3 11,1 23,0 33,0 11,0 11,1 30,1l63 2c18,0 21,1 31,1l60 -4c61,-10 69,-48 83,-110 15,-70 30,-142 42,-213 6,-36 25,-137 25,-168 -28,-19 -9,-12 -31,-13 -14,-1 -29,-2 -45,-2 -9,0 -13,-1 -21,-1 -7,0 -15,0 -22,0 -17,0 -28,-2 -45,-2 -59,0 -118,-4 -177,-4l32 -143c3,-5 28,-17 33,-24 -5,1 -12,6 -16,9 -5,3 -11,7 -16,9 1,-3 4,-17 4,-21l3 -9 28 -131c6,-22 10,-43 15,-65 2,-12 5,-21 7,-33l7 -34c-51,0 -99,-1 -151,-1 -51,0 -101,0 -152,0l-49 248c-8,42 -16,83 -24,124l-25 125 62 0 -132 133 -74 96c-50,74 -88,146 -102,240 -1,7 -1,14 -2,21l0 41c3,36 12,71 27,102 22,44 50,75 90,104l29 19c11,7 20,11 32,17 6,3 11,6 16,8l53 20c36,12 80,21 120,26l44 6z"/>
   <path class="fil1" d="M592 267l-3 9 161 -57c74,-22 184,-55 259,-67 9,-2 23,-6 32,-6 -1,7 -3,15 -5,21 -1,7 -3,14 -4,22l-63 286c-1,6 -4,16 -4,23l125 -1c16,0 27,1 42,1 57,0 114,0 171,0 0,6 -1,14 -2,20l-11 57c-18,112 -41,228 -61,341l-7 38c0,6 1,5 16,5l67 0c7,0 11,-2 21,-2l158 1c5,0 22,-4 26,-8 5,-6 12,-34 13,-43 10,-50 21,-98 31,-148 10,-49 27,-135 39,-185l19 -92c0,-2 -4,-11 -4,-20 -16,-1 -4,-9 -33,-9l-85 0c-7,0 -14,0 -21,0 -9,0 -12,2 -21,2 -58,0 -113,1 -170,1 0,-16 48,-229 53,-252l20 -83 71 5c21,3 48,6 68,10 48,10 105,25 147,46l38 21c135,81 186,218 152,388 -8,38 -15,55 -26,90 -3,11 -7,18 -11,28l-36 80c10,-8 62,-95 69,-107l23 -43c11,-22 24,-55 33,-78 37,-99 44,-217 -7,-309 -3,-6 -5,-9 -8,-14 -19,-31 -38,-47 -64,-70 -10,-9 -41,-29 -52,-35 -40,-21 -84,-38 -129,-49 -59,-13 -119,-20 -180,-20 -11,0 -24,-2 -43,-1 -9,0 -11,1 -21,1 3,-4 22,-13 27,-16l59 -31c6,-3 24,-13 27,-17 -34,0 -68,0 -103,0 -36,0 -67,1 -102,1 -35,0 -70,0 -105,0 -36,0 -67,2 -103,2 0,8 -16,67 -19,79l-6 28c-33,3 -217,63 -238,70 -50,17 -117,43 -165,64l-55 23z"/>
   <path class="fil2" d="M428 1251l-17 82 -34 163c103,0 201,-2 305,-2l39 -171 14 -60c5,-19 8,-37 13,-56 5,-19 8,-37 13,-57l20 -85c2,-8 6,-21 6,-29l315 1c14,0 13,-4 23,-8 17,-6 18,4 26,-32 9,-41 85,-418 85,-435 -95,0 -194,-3 -290,-3l-14 51c-12,50 -24,112 -35,162l-45 217c-56,0 -130,6 -185,6 -41,0 -98,4 -139,4 -10,0 -14,2 -22,2 -9,0 -17,0 -26,0 -4,20 -9,42 -13,61 -4,22 -9,42 -13,63l-26 126z"/>
   <path class="fil0" d="M735 1263l-14 60c9,0 22,-3 32,-5 10,-1 21,-3 32,-5 69,-13 116,-23 183,-41l87 -25c98,-33 141,-47 245,-90 35,-15 69,-30 102,-47 34,-17 94,-46 123,-63 8,-5 17,-9 24,-14 7,-3 44,-24 47,-28 -8,2 -78,39 -94,45l-98 43c-46,20 -91,35 -138,53 -6,2 -9,2 -14,4 -63,24 -208,64 -273,77 -74,15 -110,20 -180,30l-64 6z"/>
   <path class="fil1" d="M1728 777c6,-1 21,-17 23,-22l-11 0 -12 22z"/>
   <path class="fil1" d="M625 221c1,5 0,6 4,9 0,-7 1,-5 2,-11 -3,2 -2,1 -6,2z"/>
   <path class="fil0" d="M617 279c5,-1 3,0 5,-3 -4,1 -2,0 -5,3z"/>
   <polygon class="fil0" points="625,274 626,274 625,273 "/>
   <polygon class="fil0" points="1602,1002 1603,1002 1602,1000 "/>
   <polygon class="fil0" points="625,274 622,276 "/>
   <polygon class="fil1" points="1754,789 1752,792 "/>
   <polygon class="fil0" points="1602,1002 1599,1004 "/>
   <polygon class="fil0" points="1599,1004 1596,1005 "/>
  </g>
  <path class="fil3" d="M1077 1379l11 -1c0,5 1,8 3,11 2,3 5,5 9,7 4,1 8,2 13,2 4,0 8,0 11,-2 4,-1 6,-3 8,-5 1,-2 2,-5 2,-7 0,-3 -1,-5 -2,-7 -2,-2 -4,-4 -8,-5 -2,-1 -7,-3 -15,-4 -8,-2 -13,-4 -16,-6 -5,-2 -8,-5 -10,-8 -2,-3 -3,-6 -3,-10 0,-5 2,-9 4,-12 3,-4 6,-7 11,-9 4,-2 10,-3 15,-3 7,0 12,1 17,3 5,2 9,5 11,9 3,4 4,9 4,14l-10 0c-1,-5 -3,-9 -6,-12 -4,-3 -9,-4 -15,-4 -7,0 -12,1 -15,4 -3,2 -5,5 -5,9 0,3 1,5 4,7 2,2 7,4 17,7 9,2 15,3 18,5 5,2 9,5 11,9 3,3 4,7 4,12 0,4 -1,8 -4,12 -3,5 -6,8 -11,10 -5,2 -10,3 -17,3 -7,0 -14,-1 -19,-3 -5,-2 -9,-6 -12,-10 -3,-5 -5,-10 -5,-16zm122 28l0 -9c-4,7 -11,10 -19,10 -4,0 -7,-1 -10,-2 -4,-1 -6,-3 -7,-5 -2,-2 -3,-5 -4,-8 0,-2 0,-5 0,-10l0 -38 10 0 0 34c0,6 0,9 1,11 0,3 2,5 4,7 2,1 5,2 8,2 3,0 6,-1 9,-2 2,-2 4,-4 6,-7 1,-3 1,-7 1,-12l0 -33 11 0 0 62 -10 0zm26 0l0 -62 10 0 0 9c1,-3 4,-6 7,-8 3,-1 7,-2 11,-2 5,0 9,1 11,3 3,1 5,4 7,7 5,-7 11,-10 19,-10 6,0 11,1 14,5 3,3 5,8 5,15l0 43 -11 0 0 -39c0,-4 0,-7 -1,-9 0,-2 -2,-3 -3,-5 -2,-1 -4,-1 -7,-1 -4,0 -8,1 -10,4 -3,3 -5,8 -5,14l0 36 -10 0 0 -40c0,-5 -1,-8 -3,-11 -1,-2 -4,-3 -8,-3 -3,0 -6,1 -8,2 -3,2 -5,4 -6,7 -1,3 -1,7 -1,13l0 32 -11 0zm140 -8c-4,3 -8,6 -12,7 -3,1 -7,2 -11,2 -7,0 -12,-2 -16,-5 -4,-3 -5,-7 -5,-13 0,-3 0,-5 2,-8 1,-2 3,-4 5,-6 2,-1 5,-2 8,-3 2,-1 5,-1 9,-2 8,-1 15,-2 19,-3 0,-2 0,-3 0,-3 0,-4 -1,-7 -3,-9 -3,-2 -7,-4 -12,-4 -5,0 -9,1 -11,3 -2,2 -4,5 -5,9l-11 -1c1,-5 3,-8 5,-11 2,-3 5,-5 9,-6 4,-2 9,-2 14,-2 6,0 10,0 13,2 4,1 6,2 8,4 1,2 2,4 3,7 0,2 0,5 0,10l0 14c0,10 1,16 1,18 0,3 1,5 3,8l-11 0c-1,-2 -2,-5 -2,-8zm-1 -23c-4,1 -10,3 -17,4 -5,0 -8,1 -10,2 -1,1 -3,2 -4,3 -1,2 -1,3 -1,5 0,3 1,5 3,7 2,2 5,3 9,3 4,0 8,-1 11,-3 3,-2 6,-4 7,-7 1,-2 2,-6 2,-10l0 -4zm49 21l2 10c-3,0 -6,1 -8,1 -4,0 -7,-1 -9,-2 -2,-1 -4,-3 -5,-5 0,-2 -1,-6 -1,-12l0 -36 -8 0 0 -8 8 0 0 -15 11 -7 0 22 10 0 0 8 -10 0 0 36c0,3 0,5 0,6 1,1 1,2 2,2 1,1 2,1 4,1 1,0 2,0 4,-1zm10 10l0 -62 10 0 0 9c2,-4 4,-7 6,-8 2,-2 5,-2 7,-2 4,0 7,1 11,3l-4 10c-2,-2 -5,-2 -7,-2 -3,0 -5,0 -7,2 -1,1 -3,3 -3,5 -2,4 -2,8 -2,12l0 33 -11 0zm80 -8c-3,3 -7,6 -11,7 -3,1 -7,2 -11,2 -7,0 -12,-2 -16,-5 -4,-3 -5,-7 -5,-13 0,-3 0,-5 2,-8 1,-2 3,-4 5,-6 2,-1 5,-2 8,-3 2,-1 5,-1 9,-2 8,-1 15,-2 19,-3 0,-2 0,-3 0,-3 0,-4 -1,-7 -3,-9 -3,-2 -7,-4 -12,-4 -5,0 -9,1 -11,3 -3,2 -4,5 -5,9l-11 -1c1,-5 3,-8 5,-11 2,-3 5,-5 9,-6 4,-2 9,-2 14,-2 5,0 10,0 13,2 3,1 6,2 7,4 2,2 3,4 4,7 0,2 0,5 0,10l0 14c0,10 0,16 1,18 0,3 1,5 2,8l-11 0c-1,-2 -1,-5 -2,-8zm0 -23c-4,1 -10,3 -18,4 -4,0 -7,1 -9,2 -1,1 -3,2 -4,3 -1,2 -1,3 -1,5 0,3 1,5 3,7 2,2 5,3 9,3 4,0 8,-1 11,-3 3,-2 5,-4 7,-7 1,-2 2,-6 2,-10l0 -4zm60 31l0 -85 32 0c7,0 12,0 16,2 4,2 7,5 9,8 2,4 3,7 3,11 0,4 -1,7 -3,11 -2,3 -5,5 -9,7 6,2 10,4 12,8 3,4 4,8 4,13 0,4 0,8 -2,11 -2,4 -4,6 -6,8 -3,2 -6,3 -10,4 -3,1 -8,2 -13,2l-33 0zm11 -50l19 0c5,0 8,0 11,-1 2,0 5,-2 6,-4 2,-2 2,-4 2,-7 0,-3 0,-6 -2,-8 -1,-2 -3,-3 -6,-4 -2,-1 -6,-1 -13,-1l-17 0 0 25zm0 40l22 0c3,0 6,0 7,-1 3,0 5,-1 7,-2 2,-1 3,-3 4,-5 1,-2 2,-4 2,-7 0,-3 -1,-6 -3,-8 -1,-3 -4,-4 -6,-5 -3,-1 -7,-2 -13,-2l-20 0 0 30zm108 2c-4,3 -8,6 -11,7 -4,1 -8,2 -12,2 -7,0 -12,-2 -15,-5 -4,-3 -6,-7 -6,-13 0,-3 1,-5 2,-8 2,-2 3,-4 6,-6 2,-1 4,-2 7,-3 2,-1 5,-1 9,-2 9,-1 15,-2 19,-3 0,-2 0,-3 0,-3 0,-4 -1,-7 -3,-9 -2,-2 -6,-4 -12,-4 -5,0 -8,1 -11,3 -2,2 -4,5 -5,9l-10 -1c1,-5 2,-8 4,-11 3,-3 6,-5 10,-6 4,-2 8,-2 14,-2 5,0 9,0 13,2 3,1 5,2 7,4 2,2 3,4 3,7 1,2 1,5 1,10l0 14c0,10 0,16 0,18 1,3 2,5 3,8l-11 0c-1,-2 -2,-5 -2,-8zm-1 -23c-4,1 -9,3 -17,4 -4,0 -7,1 -9,2 -2,1 -3,2 -4,3 -1,2 -2,3 -2,5 0,3 1,5 3,7 3,2 6,3 10,3 4,0 7,-1 10,-3 4,-2 6,-4 7,-7 2,-2 2,-6 2,-10l0 -4zm27 31l0 -62 9 0 0 9c3,-4 5,-7 7,-8 2,-2 4,-2 6,-2 4,0 8,1 11,3l-3 10c-3,-2 -6,-2 -8,-2 -2,0 -4,0 -6,2 -2,1 -3,3 -4,5 -1,4 -2,8 -2,12l0 33 -10 0zm80 -8c-4,3 -8,6 -11,7 -4,1 -8,2 -12,2 -7,0 -12,-2 -16,-5 -3,-3 -5,-7 -5,-13 0,-3 1,-5 2,-8 1,-2 3,-4 5,-6 3,-1 5,-2 8,-3 2,-1 5,-1 9,-2 9,-1 15,-2 19,-3 0,-2 0,-3 0,-3 0,-4 -1,-7 -3,-9 -3,-2 -7,-4 -12,-4 -5,0 -9,1 -11,3 -2,2 -4,5 -5,9l-10 -1c1,-5 2,-8 4,-11 2,-3 5,-5 10,-6 4,-2 8,-2 14,-2 5,0 9,0 12,2 4,1 6,2 8,4 1,2 2,4 3,7 0,2 1,5 1,10l0 14c0,10 0,16 0,18 1,3 1,5 3,8l-11 0c-1,-2 -2,-5 -2,-8zm-1 -23c-4,1 -10,3 -17,4 -5,0 -8,1 -9,2 -2,1 -4,2 -4,3 -1,2 -2,3 -2,5 0,3 1,5 3,7 2,2 5,3 10,3 4,0 7,-1 10,-3 3,-2 6,-4 7,-7 1,-2 2,-6 2,-10l0 -4zm49 21l2 10c-3,0 -6,1 -8,1 -4,0 -7,-1 -9,-2 -2,-1 -3,-3 -4,-5 -1,-2 -2,-6 -2,-12l0 -36 -7 0 0 -8 7 0 0 -15 11 -7 0 22 10 0 0 8 -10 0 0 36c0,3 0,5 0,6 1,1 1,2 2,2 1,1 2,1 4,1 1,0 2,0 4,-1z"/>
 </g>
</svg>
