<?xml version="1.0" encoding="UTF-8"?>
<!DOCTYPE svg PUBLIC "-//W3C//DTD SVG 1.1//EN" "http://www.w3.org/Graphics/SVG/1.1/DTD/svg11.dtd">
<!-- Creator: CorelDRAW X7 -->
<svg xmlns="http://www.w3.org/2000/svg" xml:space="preserve" width="6.45446cm" height="5.54131cm" version="1.1" style="shape-rendering:geometricPrecision; text-rendering:geometricPrecision; image-rendering:optimizeQuality; fill-rule:evenodd; clip-rule:evenodd"
viewBox="0 0 1726 1482"
 xmlns:xlink="http://www.w3.org/1999/xlink">
 <defs>
  <style type="text/css">
   <![CDATA[
    .fil0 {fill:#211C19}
    .fil5 {fill:#4A4543}
    .fil4 {fill:#571915}
    .fil3 {fill:#6F7070}
    .fil6 {fill:#A82825}
    .fil7 {fill:#AAA8A6}
    .fil1 {fill:#D6261D}
    .fil8 {fill:#D8D7D5}
    .fil2 {fill:#FAFAF8}
   ]]>
  </style>
 </defs>
 <g id="Layer_x0020_1">
  <metadata id="CorelCorpID_0Corel-Layer"/>
  <g id="_2506687938816">
   <path class="fil0" d="M1303 1151c-1,-15 7,-14 21,-43l9 -14c2,-6 5,-8 8,-13 4,-6 5,-9 8,-15l7 -13c3,-6 5,-10 9,-14 27,-2 68,-1 96,0 17,0 11,6 0,27 -4,8 -6,8 -10,15 -3,6 -5,10 -10,15 -9,12 -17,34 -33,38 -16,3 -1,-2 -20,5 -5,2 -14,2 -20,3 -7,1 -13,4 -20,5 -8,1 -17,0 -25,1 -9,1 -7,3 -20,3zm-163 -92c8,7 15,11 24,18 5,3 9,5 14,9 5,4 8,7 12,9 8,1 12,6 33,11 56,15 54,-56 59,-69 10,-4 28,-3 40,-1 2,12 -4,28 -14,30 -4,6 -7,13 -11,20 -4,6 -8,13 -13,20 -9,13 -17,24 -25,37 -2,14 -10,16 -25,17 -15,0 -26,1 -40,2l2 22 6 8 16 0c4,24 -12,-7 -7,56l10 0c4,-3 9,-8 11,-13 4,-12 15,-20 23,-29 13,-16 6,-17 31,-21 14,-2 35,-1 48,-4 14,-4 25,-7 45,-6 0,11 -7,14 -12,20l-10 10c-1,1 -1,1 -1,1l-33 30c-6,6 -4,6 -13,8 -4,1 -11,10 -15,13l-34 24c-12,7 -14,5 -17,12 0,6 -1,5 -5,6 -6,7 -33,24 -42,28 -8,4 -7,6 -17,9l-26 10c-12,6 -9,2 -16,6 -8,4 -13,8 -21,10 -9,2 -11,1 -18,5 -1,0 -1,1 -2,1l-47 15c-8,3 -40,10 -50,10 -13,8 -44,8 -61,9 -14,0 -8,3 -16,6 -6,1 -63,3 -75,-3 -11,-6 -62,-2 -67,-5 -10,-9 -5,-7 -23,-7 -14,1 -16,-1 -23,-8 -9,0 -13,2 -21,-1 -14,-6 -9,-3 -22,-5 -10,-1 -5,-5 -15,-7 -14,-3 -12,5 -17,-7 -26,-2 -12,-4 -23,-8 -2,-1 -10,-2 -12,-2l-25 -37c-5,-6 -5,-9 -7,-16l1 -8c21,-1 29,10 45,8 3,-4 3,-8 5,-12 4,-7 5,-6 3,-15l-43 -15c-8,-3 -4,-1 -7,-5l-15 -3 -3 -3c-6,-4 -1,4 -5,-8 -10,-26 -19,-89 -21,-117 0,-6 -5,-41 0,-46 6,-6 9,-1 14,1l120 40c0,0 26,10 45,14 17,4 12,9 34,6 10,-2 25,0 35,2 23,1 32,12 35,13 7,1 35,6 41,10l63 11c12,2 23,1 34,3 26,5 17,6 25,11 46,2 22,-7 65,-2 14,2 56,4 69,1 13,-30 -14,-23 -34,-25l-30 -3c-5,-1 -3,-1 -6,-3l-4 -1c0,-6 -1,-9 2,-14 3,-7 3,-5 8,-7 0,-5 8,-19 11,-23 7,-11 2,-10 6,-16 4,-6 5,-1 11,-19 2,-7 7,-15 7,-20l5 -14c-3,-5 -3,-4 -6,-8 -16,-10 -6,-12 -13,-18 -4,7 -5,11 -8,18 -2,4 -4,12 -8,15 -13,9 4,2 -5,1 -1,8 -11,30 -16,38l-14 26c-4,8 -4,6 -8,9 0,6 -12,24 -16,29 -8,0 -12,-2 -20,-3l-43 -4c-7,-1 -5,-3 -25,-6 -19,-3 -42,-10 -70,-12 -10,-1 -53,-9 -59,-12 -2,-17 2,-10 4,-21 3,-10 3,-13 6,-23l1 -9c-10,-3 -21,-14 -30,-16 -4,6 -8,17 -9,26 -2,7 -2,8 -4,13l-6 14c1,11 -49,-6 -55,-11 -7,5 -32,-6 -41,-9 -12,-4 -30,-8 -40,-13l-47 -18c-6,-2 -23,-7 -30,-12l5 -106c1,-15 0,-16 8,-26l90 -3c0,1 23,21 24,30 3,8 11,13 20,35 3,8 -1,0 3,4l3 4c4,5 5,8 14,9 18,-24 7,-73 11,-112l15 -8c7,-11 13,-11 21,-11 4,10 6,30 6,43 -1,36 1,12 -8,46 -7,28 -23,17 -27,28l-1 27c10,-3 4,-1 6,19 8,4 7,2 16,5 5,2 8,6 14,10l6 1c3,-6 7,-14 16,-15 24,-3 47,-4 32,24 -2,4 -1,2 -3,5l1 -1c-1,9 -1,14 2,21 9,2 11,4 20,7 3,2 7,3 10,4 85,39 116,18 168,21l2 1c2,-1 2,-1 6,-3 4,-2 6,0 10,-9 -6,-19 -38,-17 -58,-9 -1,0 -4,2 -5,2 -4,2 2,0 -6,2l-16 1c-31,-31 -12,-83 -3,-118 3,-9 5,-9 9,-16 4,-9 1,-12 13,-13 4,3 2,0 5,6l7 28c6,15 -1,32 7,40 8,5 11,16 15,19 18,1 22,-4 30,-14l45 -63c5,-8 3,-8 12,-13 3,-4 20,-30 21,-31 6,-16 11,-6 18,-17 2,-4 1,-11 5,-19l5 -6 7 -11c1,-7 3,-7 7,-12 10,-11 17,-20 28,-21l-13 61c-6,14 -2,17 -20,17l-10 0c-1,0 -1,1 -2,1 -9,3 -22,48 -22,54 9,-4 0,1 5,-3 2,-1 4,-3 5,-4 6,-7 16,-15 27,-14 1,14 -9,39 -14,52 -2,5 -1,9 -4,14 -13,29 -17,28 -10,43 2,9 -2,0 2,4 9,8 10,-2 13,12zm391 -180c1,5 -13,8 -23,10 -17,4 -53,3 -72,4 -15,0 -22,-3 -13,-15 0,-13 22,-96 25,-123 4,-39 6,-84 6,-123 0,-27 6,-19 19,-8 15,13 48,30 54,47l-1 -1c8,2 14,8 19,14 11,14 2,138 0,145 -3,10 -4,15 -5,26 0,7 0,12 -4,18 -4,6 -1,2 -5,6zm-1181 -120c1,17 -1,39 -2,59 0,17 -2,111 8,121 5,5 4,-1 19,11 7,5 16,8 20,12 10,2 11,4 16,7l9 1c1,-16 -6,-19 -6,-37 2,-11 -1,-16 -4,-24 -4,-8 -1,-17 -3,-26 -2,-7 -1,-1 -4,-10l-7 -35c-6,1 -7,6 -7,-20 0,-11 -1,-17 2,-25 21,1 3,7 36,43 7,6 12,13 19,19 10,8 18,10 21,18 3,9 28,18 28,18 9,0 23,6 30,10l-7 102c0,8 2,16 -6,17 -3,0 -3,0 -5,-1l-20 -9c-9,-3 -7,-1 -9,-9l-5 1c-16,0 -24,-14 -41,-14 0,6 0,12 0,17l3 11c4,9 24,14 25,14 4,2 1,2 8,5 11,6 25,10 33,16 8,-2 12,5 18,9 3,12 3,34 3,47 -1,20 11,81 14,105l2 17c-1,10 0,2 -2,5 -8,2 -10,0 -19,-2l4 29c5,2 9,3 13,5l8 4c3,4 2,-1 1,4 8,3 11,8 13,17 3,11 7,10 6,23 -8,0 -13,-3 -18,-6 -13,-2 -23,-13 -33,-18 -11,-5 -6,-4 -15,-10 -9,-6 -9,-2 -15,-12l-29 -25c-8,-8 -7,-4 -11,-12l-4 -4c-11,-4 -20,-16 -28,-25 -5,-5 -8,-8 -13,-12 -6,-6 -9,-9 -11,-16 -5,-2 -2,0 -7,-5 -2,-2 -5,-6 -6,-7l-17 -18c-7,-10 1,-6 -11,-15 -7,-6 -10,-15 -13,-21 0,0 -4,-5 -4,-5 -4,-5 0,-1 -4,-5 -13,-14 6,-7 -12,-13 -1,-10 0,-7 -5,-15l-6 -7c-9,-12 0,-9 -8,-17 0,0 -2,-1 -2,-2l-11 -25c-3,-5 -2,0 -5,-6 -3,-8 2,-5 -4,-13 -6,-8 -3,-6 -5,-13 -3,-8 -4,-1 -6,-11 -7,-28 -9,-7 -9,-31 -12,-11 -4,-6 -7,-21 -2,-8 -6,-5 -7,-23 -3,-40 -7,-19 -8,-50 -8,-7 -7,-6 -7,-19 0,-10 -3,-17 -2,-26 1,-24 -10,-48 -1,-69 5,-2 12,-4 18,-1 20,-14 91,-7 126,-9 16,-1 21,10 18,25 -15,2 -20,-21 -23,-7 -3,12 2,7 -7,14zm419 -57l-4 2c-1,5 -2,7 -7,9 -4,10 -25,31 -35,31 -6,-20 -2,-55 8,-68 13,-1 42,-1 52,2 1,12 -6,19 -14,24zm-108 -200l-39 106c-4,16 3,2 -8,31 -4,11 -5,17 -7,31 -1,7 -18,40 -15,57 2,22 -9,31 -9,31 -1,1 -2,0 -2,0 -5,0 1,2 -6,0 0,0 -21,-11 -23,-23l15 -76c1,-9 1,-16 10,-19 0,-7 6,-26 9,-36 1,-6 4,-12 5,-18 3,-12 6,-7 7,-17 0,-14 17,-54 24,-71 2,-6 2,-5 5,-12 3,-9 1,-7 8,-11l-1 -4 1 -8c3,-4 4,-6 10,-8 3,-6 -5,-5 16,-7 8,-1 13,-1 21,-1 2,14 -3,18 -7,28 -2,6 -4,9 -6,14 -4,10 0,7 -8,13zm-158 -319c5,-2 15,-11 22,-15 6,-3 9,-4 14,-8 5,-3 4,-4 11,-6 8,-16 37,-15 41,-29 21,-1 10,-3 24,-7 11,-4 3,-1 10,-5 8,-4 5,-1 12,-3 9,-3 0,-2 8,-6 6,-2 7,0 12,-2 10,-3 -1,-3 11,-6 3,0 10,0 13,0 7,-2 9,-5 18,-7 7,-2 11,-3 18,-6 5,-1 32,-7 36,-7l42 -10c15,-2 35,2 47,-3 23,-8 67,-2 91,1 15,2 37,0 49,3 13,2 4,6 18,7 8,0 17,-2 24,0 10,4 2,6 18,7 21,1 39,14 61,14l6 7c8,1 9,0 15,4 10,7 0,2 14,5l71 35c8,4 6,5 11,8 8,3 4,-3 12,5l12 8c11,7 45,28 50,37 3,4 6,6 11,9 2,2 4,3 5,5 6,6 2,1 4,6l14 10c3,3 0,-1 3,5 10,5 24,24 33,31 10,4 21,17 25,27 4,8 7,7 13,13 10,10 46,57 50,69 10,9 5,4 12,17 5,12 12,18 18,33 5,12 7,1 7,19l7 4c1,18 6,12 9,30 3,13 7,16 9,30 1,9 7,23 9,29 2,5 2,11 3,17 1,7 4,9 5,14 5,6 3,6 5,14 0,0 2,6 2,7 0,0 0,1 0,1l3 5c0,3 3,32 3,34 -15,1 -25,-14 -45,-29l-37 -26c-2,-2 -4,-2 -6,-5 -9,-9 -8,-28 -8,-44 1,-14 -4,-36 -7,-47l-13 0c-7,5 -5,3 -12,5 -1,17 5,47 3,59 -10,0 -18,-5 -28,-10 -9,-4 -6,1 -9,-8 -4,-4 -20,-13 -26,-15 -2,0 -31,-14 -39,13l9 6c0,0 1,0 1,0 17,10 53,24 63,38 3,3 6,3 11,6 4,3 6,5 11,8 11,8 9,12 9,29 1,56 -1,93 -9,147l-6 34c-2,15 -3,20 -7,31 -1,11 -5,28 -7,39 -2,10 -5,26 -13,29 -3,2 0,1 -5,2 -2,1 -7,1 -9,1 -12,0 -33,-1 -43,-4 -1,-6 1,-17 2,-24 1,-3 2,-7 4,-11l5 -10c1,-5 1,-6 3,-10 4,-8 3,-3 4,-13 1,-10 4,-19 5,-27 1,-23 7,-32 9,-50 1,-14 2,-12 5,-21 3,-8 3,-15 6,-24l11 -45c2,-19 12,-41 4,-48 -17,-8 -79,5 -97,-3 -7,-7 1,-19 4,-27 1,-5 1,-10 2,-15 2,-6 6,-8 8,-10l4 -12 4 -14c-7,-3 -18,-8 -25,-12 -11,-6 -16,-10 -27,-11 0,7 -5,61 -10,68 2,11 -2,19 -3,30 -1,7 0,9 -4,13 -1,1 -7,8 -8,9l-9 11 -14 0c-1,1 -1,2 -2,3l-3 6c-2,4 -1,3 -3,9 -4,8 -5,10 -13,13 -3,6 -9,10 -14,15 -6,6 -13,14 -20,17 -2,2 -12,13 -16,17 -4,2 -6,4 -9,7 -5,4 -6,7 -9,8 -4,11 -18,21 -26,29 -5,4 -23,21 -25,25 -2,7 -6,11 -13,8 -7,-3 -8,-10 -9,-18 0,-3 -10,-27 -11,-31 -3,-9 -2,-7 -6,-15 -2,-5 -4,-14 -5,-19 -1,-1 -9,-18 -10,-20 -3,-8 -6,-17 -9,-25 -5,-13 -17,-36 -16,-49 13,-8 20,-19 29,-25 19,-11 10,-11 33,-21l37 -18c11,-7 8,-3 20,-7 6,-2 12,-8 20,-8 2,-10 40,-15 52,-13l3 6c1,0 1,0 2,1 1,6 1,-2 5,6 8,18 -2,36 -17,46 -8,5 -9,1 -16,10 -16,0 -11,2 -35,9 -5,1 -5,2 -9,4 -15,6 -31,12 -21,32l36 0c10,0 30,-8 41,-7 10,-9 18,-2 30,-7 4,-16 16,-132 13,-144l-42 -17c-35,-16 -34,-10 -47,-16 -8,-3 -13,-2 -20,-5 -7,-3 -29,-13 -34,-13 -21,-1 -52,-16 -68,-14 -5,8 -8,23 -10,35l-32 100 1 0c0,10 -13,57 -16,62 -8,2 -12,3 -20,2 -13,-1 -8,-3 -17,-7 -7,3 -4,5 -10,6 -3,1 -122,3 -127,-1 0,-1 -2,2 -1,-7 1,-10 6,-4 6,-19 1,-24 -20,-58 -21,-81l-1 -6c-5,-4 -2,4 -6,-7l-3 -23c11,1 17,8 24,18l4 7c10,4 6,10 11,16 7,8 10,2 17,8 9,9 12,20 19,31 20,34 25,14 56,32l7 7c12,2 7,6 13,8 9,2 4,0 6,-2 6,-4 8,-22 10,-30 4,-11 5,-8 7,-11l-2 1c0,-15 9,-40 13,-53l10 -37c0,0 2,-6 2,-6 3,-5 2,-4 4,-5 -4,-16 7,-28 9,-50 -28,-14 -97,-14 -107,-27 -9,-6 -18,-10 -27,-16 -6,-4 -24,-11 -32,-12 -19,-2 -36,-8 -56,-9 -21,-1 -45,2 -64,1l-52 9c-15,7 -4,6 -32,6l-86 2c-13,1 -14,6 -20,17 -3,5 -6,12 -8,17 -3,10 -9,15 -13,25 -3,8 -3,6 -6,12 -4,8 0,9 -9,11 0,0 -3,6 -4,8 -3,5 -3,4 -5,11 -8,21 -13,21 -15,30 -2,7 -1,6 -5,13 -2,5 -7,18 -7,22 1,17 -3,9 -7,30 0,0 -2,4 -2,4 -6,14 -27,9 -42,7 -1,-10 4,-36 14,-43 3,-20 9,-23 11,-28 2,-4 1,-6 3,-12 2,-5 3,-3 5,-10l31 -68c2,-2 19,-28 19,-38 -19,0 -39,5 -56,9 -13,2 -42,9 -50,13 -1,3 3,5 -15,7 -1,17 -3,7 -7,16l-6 11c0,1 0,1 -1,2 -3,6 0,4 -4,10 -9,17 1,8 -8,19 -10,11 5,-10 -3,3l4 10c1,3 2,6 4,10l18 33c4,8 7,12 12,21 4,8 12,15 12,23 8,3 12,11 -15,11 -15,0 -39,0 -54,3 -10,2 -26,5 -27,-5 0,-5 0,-3 1,-6l9 -26c3,-7 1,-6 3,-13 2,-8 3,-5 5,-11 3,-5 2,-9 4,-13l7 -18c3,-4 1,-2 4,-3 -11,2 -3,1 -4,3 -1,2 -1,2 -2,6l0 -11c9,-4 3,0 6,-10 4,-11 4,-6 7,-10 3,-5 1,-3 2,-8 4,-11 6,0 7,-20l8 -3c0,-14 -1,-6 4,-12 5,-5 3,-6 5,-10l6 -8c4,-7 3,-5 8,-9l17 -22c3,-16 10,-16 25,-18 12,-2 18,-6 30,-7 25,-2 33,-6 69,-9l106 -129 3 -7c-26,-1 -49,8 -73,10 -4,7 -2,4 -9,7 0,0 -1,0 -1,1 -8,4 -13,9 -19,15 -15,15 -39,30 -47,40 -14,18 -5,5 -15,15 -35,33 -11,23 -27,35l-3 1c-6,5 -11,13 -17,15 -4,-8 19,-24 28,-39 8,-16 -2,0 12,-17 7,-8 6,-5 23,-21 8,-8 10,-14 19,-18l7 -6c8,-10 4,-1 13,-9 8,-7 8,-12 20,-18l11 -8c5,-5 4,-5 12,-7zm-25 -12c-4,5 -7,7 -11,12 -17,18 -7,6 -20,13l-20 19c-4,5 -10,9 -14,14l-63 64c-5,4 4,-1 -5,3 -7,1 -2,-1 -4,3 0,14 0,10 -20,29l-2 1c-1,9 -1,8 -6,13 0,0 -4,4 -4,4 -5,3 3,-1 -5,2l-23 38c-2,3 -2,4 -4,7 0,0 0,1 -1,1 0,0 0,1 0,1l-24 45c-3,6 -1,3 -3,8 -2,9 1,1 -4,9l-17 45c-1,7 -6,10 -7,16 -3,11 1,7 -5,17 -7,14 -2,32 -20,42l0 5 51 -2c15,0 32,-2 48,-3 28,-1 76,4 98,0 3,-6 -3,-2 7,-9 10,-5 10,-17 12,-28 2,-11 9,-11 18,-36 8,-20 6,-1 13,-18 3,-8 3,-8 13,-10 5,-5 0,-5 9,-10 8,-5 6,0 8,-13 23,-7 2,-8 25,-18l20 -18c15,-18 10,-1 30,-20 7,-6 9,-3 17,-8 11,-5 6,-8 15,-10 12,-4 15,3 30,-8 13,-10 24,-8 50,-12 30,-4 6,-5 46,-4 22,0 75,12 88,10 17,1 1,3 16,9 5,2 14,3 17,6 9,5 -2,3 13,10 10,4 6,2 11,9 6,11 4,2 9,14 4,8 0,2 6,7l12 21c4,9 -2,5 8,12 1,21 4,41 -6,57 -20,1 -48,-2 -51,-2 -28,5 -32,2 -44,-11l-4 -4c-3,-4 -2,-5 -5,-8 -2,-4 -4,-4 -7,-8 -14,-18 -7,-6 -13,-14 -9,-10 4,-8 -28,-12 -9,-14 0,-12 -24,-13l-56 0c-11,2 -7,3 -12,8 -6,6 -19,6 -29,8l-5 12c-25,2 1,7 -27,17l-3 10 -10 1c-9,3 -4,5 -9,12 -14,16 -4,5 -9,14 -4,8 -2,-2 -12,21 -8,16 -10,16 -12,24l-12 60c-3,19 1,44 2,66 1,14 3,7 6,16 2,6 2,13 5,18 5,9 1,-2 9,14 5,10 6,3 13,10 4,6 2,11 13,10 11,2 2,-1 10,5 17,13 14,0 30,13 10,8 65,14 81,1 1,-1 1,-1 3,-2l16 -4c6,-1 16,-3 22,-4 4,-10 3,-6 11,-11 7,-5 4,-6 10,-10 6,-5 8,-2 13,-9 8,-11 0,-3 11,-11 3,-3 6,-9 9,-12 10,-7 5,3 10,-11 4,-8 5,-4 9,-12 5,-11 2,-4 11,-12 1,-6 0,-7 -2,-10l-60 -1c-8,-20 -9,-11 -9,-39 17,-9 92,-5 117,-5l124 0c3,10 4,15 8,24 3,6 0,2 3,6 3,4 2,0 4,4 5,8 0,9 10,26 2,3 2,3 3,7 4,11 11,25 10,36 1,15 7,13 9,30 8,4 4,1 8,10l2 3c12,19 2,22 17,44l13 0c4,-7 1,-7 8,-12 9,-6 4,1 11,-10 4,-6 6,-6 10,-10 6,-8 2,-9 14,-11 10,-6 2,-4 9,-10 11,-9 2,3 10,-11 3,-6 7,-6 11,-9 7,-6 1,-7 10,-12 14,-8 3,-2 10,-11 4,-5 8,-2 12,-8 8,-10 -3,-4 10,-11 9,-5 4,-4 10,-13l7 0c0,-1 0,-2 1,-2 2,5 -2,-7 12,-16 3,-20 5,-4 17,-22 5,-7 2,-2 8,-7 8,-5 2,-16 34,-19l77 -1c5,0 8,0 13,0l10 2c15,5 -2,39 -5,56 -2,13 -6,49 -15,55 4,12 -4,32 -6,43 -4,16 -7,24 -10,42 -1,15 -2,15 -7,30 -2,4 -2,4 -4,9 -4,15 -5,27 -5,44 3,2 3,1 4,4 82,0 146,7 219,-9 11,-2 11,-3 20,-5 8,-2 16,-1 23,-3 7,-1 7,-7 14,-11 7,-4 14,-2 22,-3 3,-1 31,-24 55,-19 0,10 -7,44 -10,49 -6,8 -2,3 -8,5 -3,0 -1,15 -10,23 0,0 -5,4 -5,4 -5,5 -2,2 -5,8 -4,11 0,3 -6,9 -5,6 -2,5 -5,10 -4,6 -3,1 -8,7 -6,7 0,6 -10,9l-1 -1c-5,14 -10,15 -17,17 -12,5 -6,9 -18,13 -13,4 -10,0 -22,6 -28,14 -112,9 -147,9 -80,0 -165,1 -243,-3 -5,-21 -3,-18 2,-37 3,-11 9,-21 8,-34 0,-5 1,-20 3,-24 3,-8 4,-2 8,-17 2,-9 1,-15 9,-42 1,-6 5,-6 7,-17 2,-13 4,-29 9,-41 3,-8 8,-6 4,-18 -8,-2 -11,3 -15,7 -7,10 -10,6 -13,12 -7,9 2,8 -12,13 -9,3 -7,4 -11,14l-9 -1 1 -1c0,1 -1,1 -1,2l-2 5c-6,12 -7,9 -16,10 -3,15 2,6 -8,14 -8,7 -1,7 -11,13 -14,7 -5,0 -12,11 -6,10 -4,-1 -6,16 -24,3 -15,6 -23,15 -5,7 -5,1 -11,9 -5,8 2,2 -9,9 -10,6 -2,3 -8,11 -4,4 -8,4 -11,7 0,0 -9,20 -22,17 -10,-6 -17,-28 -15,-41l-1 -8c-15,-12 -13,-57 -27,-76 -12,-17 6,-46 -19,-42 -11,17 -9,34 -16,53l-7 11c-3,4 -1,2 -4,5l0 13c-1,12 -5,23 -9,32 -5,10 -6,35 -11,45l-14 44c-26,2 -105,3 -127,-1 -3,-15 -1,-20 5,-31 4,-8 7,-24 14,-38 8,-13 10,-15 12,-44 2,-2 6,-4 8,-6 5,-41 15,-41 16,-45 3,-8 1,-13 2,-20 2,-10 14,-12 15,-45 -17,-2 -5,4 -17,12 -15,10 -6,7 -12,12 -4,3 1,1 -8,2l-4 0c-11,22 -1,3 -15,16 -24,23 -7,3 -26,20 -5,5 -10,7 -19,8 -5,9 0,9 -12,12 -5,2 -16,2 -21,5 -5,3 -3,4 -17,9 -7,2 -13,3 -21,2 -5,12 -15,12 -33,14 -14,1 -49,2 -65,0l-34 -11c-5,-2 -13,-3 -20,-4 -8,-1 -10,-2 -14,-7l-51 -41c-6,-11 -14,-17 -20,-26 -5,-6 -1,-9 -7,-14 -14,0 -11,-20 -13,-24 -5,-10 -4,7 -10,-21 -3,-11 -4,-15 -8,-24 -15,-3 -106,-4 -126,0 -8,2 -10,8 -43,11 -9,1 -16,1 -24,4 -1,10 -6,4 3,9l-56 5c-2,5 -1,5 -4,10 -23,3 -36,13 -54,2 -9,-4 -4,-7 -12,-10l3 10c0,5 -1,2 1,6 3,5 3,3 4,3 8,1 12,11 44,23 7,2 6,4 14,8l37 18c6,3 18,9 25,10 2,10 9,11 10,17 1,9 0,19 2,26 3,11 4,10 6,24 1,11 4,14 6,23l8 22c1,5 -1,6 1,11 2,5 4,4 5,10 2,4 1,7 3,12l13 30c3,12 6,1 8,25 -6,-5 -6,-11 -11,-14 6,-1 7,12 13,26l11 20c3,-2 -6,-5 6,-1 1,3 2,6 3,8 4,8 1,-1 6,9l32 51c8,11 2,8 11,18l26 33c3,3 4,5 6,8 3,3 5,4 8,7 5,6 7,10 13,15l29 29c9,6 7,7 15,14 3,2 5,4 7,6 25,24 16,14 40,33 10,8 13,8 15,16 22,12 15,14 40,26l45 25c12,7 7,1 16,7l39 18c21,7 22,12 45,16l34 12c15,8 27,3 37,11l32 0 4 6 63 4c51,6 51,4 94,-2 11,-1 22,-1 35,-1 35,0 8,-7 62,-7 5,-16 16,-1 36,-13 8,-5 14,-2 16,-3 19,-18 13,-5 29,-12 7,-4 2,-5 13,-7 10,-2 11,-4 22,-9 5,-3 -6,2 3,-2l35 -13c15,-9 -2,-11 25,-11 5,-12 0,-5 6,-8 3,-2 5,3 7,-8 14,0 9,1 17,-6l27 -14c9,-3 19,-14 25,-20 6,-6 6,0 14,-8 35,-36 5,-5 29,-25l13 -8c17,-13 45,-45 61,-61 5,-6 7,-8 14,-10l25 -32c4,-4 3,-4 6,-9 10,-19 10,-14 17,-27l9 -13c6,-8 -2,-1 8,-13l11 -19c4,-7 1,-2 5,-10 5,-12 0,6 8,-16 0,0 1,-1 1,-1l3 -3c2,-1 3,-1 5,-1 5,-2 1,0 5,-2 0,0 3,-2 3,-3 7,-3 16,-1 24,-1 11,-8 -2,-3 12,-7 9,-2 25,-16 25,-16l43 -33c0,0 1,-1 1,-1l9 -15c13,-30 10,-18 15,-26l21 -59c4,-14 5,-23 5,-38 -5,-9 -29,-29 -38,-34l-23 -15c-6,-5 -17,-11 -24,-11 -31,-1 -8,-76 -19,-116 -4,-13 -6,-57 -15,-85 -5,-15 -6,-12 -6,-30 0,-11 -2,-7 -4,-15 -2,-11 0,-8 -4,-17l-14 -30c-2,-5 -6,-9 -8,-13 -7,-14 -17,-43 -27,-60l-33 -55c-3,-7 -21,-35 -28,-37 -7,-3 -1,2 -8,-5l-18 -25c-4,-8 -3,-4 -6,-12l-1 -2 -68 -67 0 0c-12,-3 -5,-2 -11,-6 -4,-3 -20,-9 -23,-21 -5,-1 -2,0 -6,-2 -14,-5 -5,-4 -17,-9l0 -7c-2,-5 -24,-18 -28,-20l-37 -22c-3,-2 -2,-2 -5,-4l-23 -10c-10,-3 -3,-2 -10,-6l-24 -9c-6,-3 -7,-4 -12,-5 -11,-3 -4,-1 -11,-6 -7,-4 -6,-1 -14,-3 -5,-1 -5,-3 -11,-6 -5,-2 -4,1 -25,-8l-26 -7c-5,-1 -10,-1 -15,-2 -6,-2 -7,-4 -11,-5 -13,-3 -7,4 -30,-4 -11,-4 -17,-4 -30,-4 -18,0 -16,-3 -27,-4 -6,-1 -11,0 -17,-1 -7,-2 -3,-3 -12,-3 -27,-2 -71,-1 -96,5 -13,3 -19,2 -32,2 -9,1 -17,5 -26,7 -13,4 -14,-2 -28,6 -5,3 -41,7 -53,13 -8,4 -5,2 -13,4 -8,2 -7,5 -12,7 -5,2 -8,-1 -14,2l-35 16c-15,6 -23,8 -34,16 -7,5 -4,1 -11,5 -1,0 -5,3 -5,3 -9,5 -7,0 -22,12 -7,6 -42,25 -51,34l-3 4z"/>
   <path class="fil1" d="M456 476l-19 29c0,0 0,1 -1,1 -10,16 -9,24 -15,33 -11,15 -3,27 -16,44l-171 1c-6,5 -10,4 -18,5 -4,8 2,0 -2,7 -22,4 -50,5 -76,7 -5,8 -1,12 -14,11 -50,-2 -25,9 -46,13 -28,5 -29,-2 -25,40 2,15 3,12 5,22 3,11 6,33 12,40 8,8 2,-5 6,11 2,4 4,11 6,15l22 1c5,-9 -6,-13 33,-14 6,0 9,0 14,-2 19,-7 13,-8 39,-12 23,-3 34,-10 55,-13 24,-2 121,-6 137,1l10 20c3,9 5,10 8,21l5 7c2,3 2,3 4,6 11,14 2,-3 9,23l3 7c8,8 -1,-5 11,12 5,7 6,3 11,10 11,18 8,5 15,16 2,3 -2,8 23,12 2,4 -3,12 23,13 18,0 17,0 23,12l33 3 -4 8c79,9 61,-7 81,-9 5,0 11,0 17,0 8,1 14,0 21,-2 14,-5 12,-6 17,-9 5,-3 16,-3 21,-5 12,-3 7,-3 12,-12 9,-1 14,-3 19,-8 19,-17 2,3 26,-20 14,-13 4,6 15,-16l4 0c1,0 1,-2 1,-2 2,3 1,-2 5,-9 6,-8 1,-2 9,-6 6,-3 7,-7 8,-14 10,-15 15,-7 28,0 2,13 -6,28 -14,33 -15,33 -23,73 -37,108 -6,17 -4,17 -12,36 0,20 -8,12 -7,29 0,3 0,4 0,7 1,5 0,2 3,5 9,4 95,4 104,-1 7,-5 1,-21 11,-45 5,-13 7,-13 8,-20 3,-22 1,-18 9,-23 1,-2 1,-5 2,-7 2,-6 0,-2 3,-4 4,-5 -3,0 5,-4l0 -13c0,-14 11,-37 13,-49 3,-22 5,-33 30,-24 3,17 3,29 11,45 3,6 3,8 4,15 5,26 14,33 15,62l1 8 15 34c13,-1 12,-7 18,-13l18 -17c16,-11 -2,-3 16,-16 7,-6 3,-4 8,-10 5,-7 3,-2 9,-7 7,-5 2,-2 7,-8 5,-6 4,-2 9,-7 4,-5 1,-5 7,-10 14,-13 7,-9 17,-16 11,-7 4,-8 12,-14 3,-2 2,0 5,-3 5,-3 5,-4 6,-10l8 -1 -1 1c0,0 1,-2 1,-1 0,0 2,-2 2,-3 9,-12 1,-5 9,-13l18 -17c5,-4 17,-21 29,-23 17,18 0,36 -3,48 -1,8 -4,12 -3,20 0,15 -2,29 -7,41 -15,35 -4,32 -10,50l-6 12c-9,10 -13,48 -12,57 16,8 112,4 139,4l127 1c9,2 3,0 2,3 -5,11 -4,-8 -1,2 82,12 74,-6 100,-7 26,-1 15,-5 26,-11 23,-12 30,5 36,-18l10 -2 1 1c8,-28 6,-8 15,-21l7 -12c4,-6 2,-6 7,-12 19,-26 8,-7 18,-40 11,-34 5,-8 11,-23 2,-5 1,0 1,-7 -25,1 -17,10 -32,14 -5,2 -12,2 -18,3 -12,4 -5,10 -26,13 -35,6 -2,9 -33,13 -9,1 -16,1 -25,0 -10,-2 -43,2 -53,3 -39,6 -133,4 -167,-1 -7,-28 1,-26 3,-48 0,-23 8,-39 12,-58 3,-9 2,-22 5,-32l8 -26c7,-14 4,-44 12,-58 7,-14 4,-3 7,-28 0,-4 1,-13 2,-16 2,-10 5,2 3,-12 -9,-2 -97,-3 -105,0 -6,6 -1,3 -6,8 -4,3 -6,3 -9,6 -6,6 0,4 -5,9 -4,4 -7,3 -10,5 -9,7 -1,2 -5,10 -4,8 0,2 -9,5 -16,6 -1,10 -18,13l-7 0c-6,9 -1,8 -10,13 -13,7 -2,1 -10,11 -4,6 -8,3 -12,8 -7,9 4,3 -10,11 -9,5 -3,6 -10,12 -4,3 -8,3 -11,9 -8,14 1,2 -10,11 -7,6 1,4 -9,10 -6,14 -15,19 -19,25 -7,10 -1,3 -11,9 -12,7 -1,21 -36,11 -4,-8 -4,-20 -8,-30 -2,-7 -4,-7 -6,-13 -1,-4 -2,-13 -3,-16 -2,-17 -8,-15 -9,-30 -6,-3 -1,1 -4,-3 -1,-1 -3,-5 -3,-6 -1,-3 -3,-7 -4,-9l-7 -7c-4,-6 -4,-17 -9,-27 -8,-15 -5,2 -13,-34 -44,-4 -124,1 -174,0l-44 -1c-15,2 -6,-2 -10,6 0,6 2,8 16,8 16,-1 43,-3 53,4 6,39 -7,23 -10,32l-2 5c-2,4 -1,1 -2,4l-18 26c-5,7 -6,3 -11,8 -6,7 0,10 -15,13 -6,0 -4,2 -8,6 -10,10 -11,4 -19,13 -6,7 0,5 -10,8 -41,10 -16,13 -52,15 -84,4 -65,-9 -87,-13 -14,-3 -15,-2 -21,-17 -11,1 -9,-4 -13,-10 -7,-7 -8,0 -13,-10 -8,-16 -4,-5 -9,-14 -3,-5 -3,-12 -5,-18 -3,-9 -5,-2 -6,-16 -1,-22 -5,-47 -2,-66l12 -60c2,-8 4,-8 12,-24 10,-23 8,-13 12,-21 5,-9 -5,2 9,-14 5,-7 0,-9 9,-12 2,-5 15,-24 21,-27 0,-1 1,-1 1,-2 10,-15 7,-13 16,-16 30,-10 -13,-9 49,-17 18,-2 12,-9 19,-10 30,-5 28,5 37,9 11,4 29,4 42,4 3,6 0,6 4,10 4,5 5,3 10,5 8,5 10,18 11,16 0,-1 0,1 1,1 5,7 4,6 9,14 3,5 5,10 9,11 15,3 27,2 44,2 49,0 45,6 39,-27 -2,-11 0,-8 -4,-21 -4,-9 -3,-5 -9,-14 -12,-20 -9,-20 -21,-26l-2 -12c-5,-4 -5,1 -12,-5 -7,-7 3,-3 -10,-9 -18,-8 -16,0 -22,-15 -13,2 -66,-10 -88,-10 -40,-1 -16,0 -46,4 -26,4 -37,2 -50,12 -15,11 -18,4 -30,8 -9,2 -4,5 -15,10 -8,5 -10,2 -17,8 -20,19 -15,2 -30,20l-20 18c-23,10 -2,11 -25,18 -2,13 0,8 -8,13 -9,5 -4,5 -9,10z"/>
   <path class="fil2" d="M196 577c18,-10 13,-28 20,-42 6,-10 2,-6 5,-17 1,-6 6,-9 7,-16l17 -45c5,-8 2,0 4,-9 2,-5 0,-2 3,-8l24 -45c0,0 0,-1 0,-1 1,0 1,-1 1,-1 2,-3 2,-4 4,-7l23 -38c2,-6 3,-7 6,-11 1,-1 4,-5 4,-5 3,-3 1,-1 5,-3l2 -1c2,-10 12,-23 20,-29 2,-4 -3,-2 4,-3 4,-10 17,-23 25,-33 1,0 1,-1 2,-1 22,-25 16,-17 34,-35 12,-12 56,-52 72,-56l3 -4c9,-9 44,-28 51,-34 15,-12 13,-7 22,-12 0,0 4,-3 5,-3 7,-4 4,0 11,-5 11,-8 19,-10 34,-16l35 -16c6,-3 9,0 14,-2 5,-2 4,-5 12,-7 8,-2 5,0 13,-4 12,-6 48,-10 53,-13 14,-8 15,-2 28,-6 9,-2 17,-6 26,-7 13,0 19,1 32,-2 25,-6 69,-7 96,-5 9,0 5,1 12,3 6,1 11,0 17,1 11,1 9,4 27,4 13,0 19,0 30,4 23,8 17,1 30,4 4,1 5,3 11,5 5,1 10,1 15,2l26 7c21,9 20,6 25,8 6,3 6,5 11,6 8,2 7,-1 14,3 7,5 0,3 11,6 5,1 6,2 12,5l24 9c7,4 0,3 10,6l23 10c3,2 2,2 5,4l37 22c4,2 26,15 28,20 8,2 9,4 14,8 2,1 5,3 6,5 3,3 2,1 3,5 10,-1 12,4 19,10 7,6 10,9 15,17l0 0c8,3 5,3 11,7l51 50c3,4 4,6 6,10l1 2c11,5 19,18 26,28 5,8 4,5 6,14 7,2 25,30 28,37l33 55c10,17 20,46 27,60 2,4 6,8 8,13l14 30c4,9 2,6 4,17 2,8 4,4 4,15 7,5 4,3 7,12l16 67c2,10 0,20 3,30 5,17 6,39 6,60 0,11 1,22 1,33 -1,18 0,18 7,29 7,0 18,6 24,11l23 15c9,5 33,25 38,34 5,3 1,0 5,5 0,1 2,4 2,5 8,17 -2,21 -5,38 -4,17 -12,35 -17,50 -2,4 -8,16 -12,22 -2,3 -4,6 -6,10 -24,38 -61,68 -106,77 -28,6 -27,15 -36,32 -9,17 -41,64 -52,81 -14,22 -36,43 -45,55 -16,24 -46,46 -67,66 -11,10 -61,48 -77,57 -8,4 -14,8 -21,13 -20,12 -43,23 -64,33l-124 44c-10,2 -18,6 -26,7 -31,2 -20,7 -58,8 -13,0 -40,8 -58,8 -17,0 -52,2 -65,-1 -19,-6 -16,-1 -29,-5 -14,-4 -18,-1 -31,-3l-54 -12c-12,-4 -25,-3 -52,-15l-39 -11c-2,-1 -7,-4 -11,-6 -23,-10 -46,-18 -69,-31l-120 -80c-10,-10 -44,-36 -50,-49 -8,-2 -28,-29 -37,-39 -24,-25 -69,-92 -85,-123 -3,-5 -4,-9 -7,-14l-11 -20c-6,-14 -7,-27 -13,-26 -3,-16 -4,-11 -8,-22 -1,-4 -1,-7 -3,-10 -4,-11 -2,1 -7,-20 -2,-7 -1,-3 -4,-9l-11 -41c-6,-16 -2,-16 -10,-40 -9,-28 12,-25 -52,-51 -6,-2 -10,-5 -16,-8 -23,-12 -50,-19 -60,-44 -1,0 -1,2 -4,-3 -2,-4 -1,-1 -1,-6 -6,-3 -14,-18 -17,-26 -9,-29 -13,-38 -13,-71 1,-34 -6,-43 17,-49l38 -13c12,-2 11,-5 19,-6 15,-3 1,3 21,-6 8,-3 13,-2 22,-3 17,-4 -6,-4 43,-9zm-20 -35c-10,0 -72,15 -81,19 -3,1 -8,4 -12,5l-26 8c-13,3 -25,8 -35,14 -28,17 -21,59 -21,90 0,17 3,31 7,45 3,13 6,29 13,39 7,11 11,23 19,33l26 29c30,19 47,19 70,34 6,3 10,5 17,8 11,6 7,3 11,16 3,16 7,22 11,43l11 42c2,7 4,10 7,17 8,22 15,46 26,66 3,6 3,4 5,10 6,20 13,24 22,43 7,15 19,27 26,43 6,16 14,13 21,30 4,10 5,8 12,16 12,13 21,32 36,43 4,4 10,7 14,11 4,5 6,11 10,17 8,10 18,17 28,24 7,5 17,19 28,27l90 65c11,6 26,17 36,19 10,4 9,3 17,8l34 18c8,4 13,5 21,7 7,1 12,4 18,6l40 14c9,2 11,6 20,8 11,3 13,-1 19,1 7,3 8,7 19,8 12,2 15,-2 25,3 23,11 24,0 43,5 38,8 102,6 141,3 7,0 15,1 23,0 8,-1 8,-4 18,-4 21,-1 20,-2 39,-6 20,-3 16,2 38,-7 5,-2 10,-3 17,-4 30,-6 25,-7 53,-17 17,-6 32,-8 49,-17 14,-8 33,-11 46,-21 8,-6 21,-11 30,-16l26 -18c9,-6 28,-16 41,-25 2,-2 3,-3 5,-5 9,-6 13,-6 20,-16 5,-5 7,-6 13,-10 6,-4 6,-5 11,-10 8,-8 14,-10 36,-32 19,-19 16,-11 32,-35 6,-9 15,-14 21,-23 7,-10 15,-14 20,-26 7,-13 22,-25 28,-38 2,-5 2,-4 4,-7l11 -24c32,-43 7,-29 64,-47 6,-3 9,-5 15,-8l50 -40c13,-17 30,-29 37,-52 10,-28 14,-17 21,-49 4,-20 14,-14 14,-73 0,-19 -13,-38 -27,-48 -7,-6 -8,-4 -15,-12l-27 -23c-4,-3 -2,-2 -8,-5l-16 -9c-6,-3 -4,-2 -9,-5 0,-20 3,-47 -1,-66 -5,-19 -8,-67 -11,-79 -3,-10 -4,-6 -5,-18 -1,-15 -7,-19 -9,-34 -2,-13 -6,-27 -11,-36l-5 -18c-2,-8 -4,-8 -7,-15l-15 -31c-11,-27 -22,-50 -37,-74 -3,-5 -6,-9 -8,-15 -4,-11 -11,-19 -16,-30 -7,-16 -20,-23 -28,-38 -4,-8 -3,-8 -9,-14 -2,-1 -5,-4 -6,-5l-16 -19c-7,-9 -14,-16 -21,-26l-34 -32c-5,-5 -7,-4 -13,-10 -4,-3 -8,-6 -11,-9 -29,-32 -23,-18 -38,-31l-67 -46c-4,-3 -10,-7 -14,-9 -3,-2 -4,-2 -7,-3l-102 -47c-10,-1 -10,-1 -19,-3 -23,-6 -36,-13 -51,-17 -7,-2 -12,-1 -19,-3 -32,-10 -67,-11 -100,-15 -8,-1 -9,-4 -19,-4l-83 0c-10,0 -8,2 -16,3 -7,2 -11,1 -18,1 -6,1 -8,3 -15,4 -5,1 -12,0 -18,0 -14,1 -34,6 -48,9 -14,4 -32,5 -44,12 -17,9 -42,8 -59,16 -8,4 -3,4 -12,7l-27 11c-4,2 -7,4 -12,6 -13,5 -28,10 -39,18 -17,12 -15,6 -34,22l-24 14c-19,10 -17,15 -32,23 -13,8 -21,20 -33,26 -16,7 -26,27 -39,37 -18,12 -14,15 -37,38l-17 21c-19,22 -16,15 -33,41 -13,21 -14,11 -30,47 -5,12 -11,12 -24,41 -14,30 -29,61 -38,93 -3,8 -1,1 -3,8 -2,5 -2,9 -4,15 -3,10 -10,13 -10,29z"/>
   <path class="fil2" d="M1016 332l25 -91c12,-37 -7,-33 73,-12 10,3 6,3 16,6 9,2 8,2 16,5 11,5 20,3 28,14 6,1 22,6 25,10 6,7 14,87 15,97 2,2 2,2 3,10l-1 72c-10,2 -42,-11 -52,-16 -9,-4 -17,-6 -26,-10 -8,-3 -17,-7 -24,-9 -14,-4 -99,-28 -106,-33 -2,-15 7,-25 8,-43zm-258 -97c-2,3 -20,32 -21,34 -1,10 -25,48 -33,54 -16,3 -33,-1 -48,-2 -51,-3 -104,3 -143,2 -2,-12 2,-16 8,-22 6,-6 8,-10 13,-16 21,-29 47,-54 72,-79 8,-8 9,-11 17,-12 1,-8 7,-10 12,-14 17,-15 31,-9 67,-9 113,-2 108,-1 79,37 -3,4 -7,10 -11,15 -4,6 -4,9 -12,12zm76 -95c-9,7 -58,0 -74,0 -29,-1 -99,5 -29,-27 20,-9 33,-17 52,-24 5,-2 8,-3 13,-6 8,-4 7,-3 10,-8 -24,-1 -43,5 -66,9 -15,2 -13,5 -30,7 -17,3 -17,8 -28,12 -20,16 4,0 -21,15 -8,5 -26,21 -32,22 -4,5 2,2 -8,4 -19,3 -36,-4 -59,9l-37 21c-3,1 -4,2 -6,4 -4,4 -2,0 -4,7 20,-1 55,-12 70,-5 -1,7 -4,8 -7,11 -27,25 -49,51 -72,79 -4,5 -3,5 -7,9 -10,10 -8,9 -16,21l-2 3c-12,19 -10,8 -17,25 -13,1 -23,3 -35,5 -30,5 -15,-2 -51,8 -5,1 -10,2 -16,3 -20,2 -13,6 -26,13l-17 22 0 8 10 0c8,-4 37,-11 50,-13 17,-4 37,-9 56,-9 0,10 -17,36 -19,38l-31 68c-2,7 -3,5 -5,10 -2,6 -1,8 -3,12 -2,5 -8,8 -11,28 -1,8 -2,13 -4,19 -4,8 -6,8 -5,19l32 1c2,-8 2,-14 5,-19 2,-6 4,-13 9,-18 0,-4 5,-17 7,-22 4,-7 3,-6 5,-13 2,-9 7,-9 15,-30 2,-7 2,-6 5,-11 1,-2 4,-8 4,-8 4,-13 6,-18 12,-27 2,-4 4,-7 6,-11 4,-7 2,-9 10,-10 2,-5 5,-12 8,-17 6,-11 7,-16 20,-17l86 -2c28,0 17,1 32,-6l52 -9c4,-5 16,-5 23,-5 42,-4 51,3 76,3 -5,-7 1,-2 -6,-6l-14 -5c-1,-10 7,-16 15,-31 3,-6 4,-7 8,-14 4,-7 4,-9 12,-13l1 0c1,-9 6,-13 10,-18 5,-6 6,-11 11,-16 8,-9 17,-20 23,-30 3,-8 9,-13 14,-19 15,-21 41,-3 72,-2 22,1 67,13 80,14 14,1 25,1 21,22 -1,8 -1,7 -7,12l0 9c-1,9 -6,25 -9,34 -4,13 -21,84 -28,89 -11,6 -74,-12 -94,-15 -9,-1 -14,-3 -22,-4 -9,-3 -16,-1 -26,-2 -18,-2 -7,-8 -50,-7l9 11c0,0 1,1 1,1 8,1 26,8 32,12 9,6 18,10 27,16l60 10c11,3 17,4 27,6 12,2 16,4 26,8 0,9 0,7 -3,15 -3,8 -7,34 -12,38 2,9 1,4 -1,13 -7,23 -18,73 -26,86 -1,0 -1,1 -2,2l2 -1c0,14 -9,32 -12,46 11,10 14,11 32,11 10,-15 4,-14 9,-30 2,-5 3,-8 5,-15 3,-16 5,-13 8,-15l-1 0c0,-16 5,-25 8,-39 2,-10 4,-10 6,-18l27 -87 34 9c12,7 25,2 35,14 5,0 27,10 34,13 7,3 12,2 20,5 13,6 12,0 47,16l42 17c9,3 7,8 7,19 -1,9 -3,11 -3,19 -2,15 -2,28 -4,43 -3,41 -20,76 10,67 4,-8 3,-5 9,-12 0,0 1,-1 1,-1 0,-1 1,-1 1,-1 8,-12 3,-22 9,-46 4,-19 1,-53 6,-72 10,-1 17,0 25,6l5 4c0,0 1,1 1,1 1,1 1,1 2,2 37,15 23,20 43,4 8,-7 9,-3 11,-12 -10,-10 -47,-18 -52,-30 -7,1 -15,-3 -22,-7 -9,-4 -8,-10 -8,-22 1,-40 -1,-68 -4,-108l-4 -41c-3,-26 27,-4 29,0 9,1 16,5 24,9 3,2 3,2 7,4 6,3 9,5 14,8 6,3 7,5 16,5 32,7 39,26 48,54 3,10 8,12 6,25 3,2 0,-1 4,3 4,6 18,69 19,77l27 -1c6,-14 -21,-76 -17,-90 -4,-2 -5,-1 -7,-7 -2,-7 -1,-6 1,-13 10,0 12,-1 15,8l5 4c7,2 7,5 16,5 -2,-8 -35,-57 -47,-64 -24,-15 -11,-9 -27,-35 -4,-6 -7,-6 -11,-15 -9,-7 -23,-26 -33,-31 -7,-2 -7,-2 -11,-6 -8,-7 -5,-2 -6,-9l-5 1c-1,0 -2,-1 -3,-1 0,-1 -1,-1 -1,-2 -6,-3 0,0 -6,-3 4,9 -1,3 6,10 1,8 13,19 18,32l-1 0c6,2 2,-1 6,4 2,2 5,10 4,17 -19,-1 -18,-10 -18,-10l-2 0c-8,0 -13,-3 -20,-6l-2 -5 -2 0c-11,-1 -22,-7 -31,-11 -33,-18 -24,-1 -38,-49 -3,-12 -12,-26 -12,-38 0,-9 0,-6 -4,-11 -2,-4 -5,-6 -9,-8 -6,-4 -14,-9 -20,-8 -11,-5 -5,-5 -17,-6l2 11c7,12 22,45 25,59 9,6 10,13 8,22 -5,1 -26,-5 -31,-8 -22,-9 -22,-3 -26,-13 -5,-1 -17,-4 -21,-4 -13,0 -44,-9 -53,-14 -4,-18 12,-55 18,-74 1,-4 0,3 0,-5 0,-11 -22,-12 -31,-12l-23 79c-12,3 -54,-4 -64,-7 -14,-5 -53,-6 -60,-13 -9,3 -16,1 -23,-3 1,-10 39,-43 49,-44 2,-6 -3,0 4,-6l30 -17c6,-3 5,1 8,-6 -19,-2 -28,-5 -50,-4l-22 16c-8,6 -13,10 -22,18 -7,6 -11,12 -20,20 -15,12 -12,19 -21,15z"/>
   <path class="fil2" d="M723 1225c1,12 -1,10 -3,14l-2 16c-1,7 -8,30 -11,35 -20,1 -35,-12 -53,-11 -3,7 -8,22 -9,27 15,4 39,7 50,15 6,28 -19,39 0,48 8,5 14,6 23,6 3,-3 1,0 3,-5 0,0 0,-1 1,-2 0,0 0,-1 0,-1 2,-5 -1,-1 3,-4l-2 -9c7,-5 2,-14 10,-23 14,-4 15,-2 27,0 2,2 2,5 2,6 4,1 6,1 9,2 2,0 4,0 5,1 1,0 2,0 2,0 1,0 1,1 2,1 0,0 1,0 1,0l10 -2c7,8 33,4 56,11 1,20 2,6 -19,23 -10,8 -16,8 -19,11 -5,5 -2,-2 -4,7 10,6 36,5 47,5 5,-3 2,-3 9,-5l24 -21c11,-10 10,-14 33,-11 15,2 77,3 84,6 -5,17 -30,12 -38,24 4,3 -1,2 7,3l82 -15c12,-3 15,-7 24,-10 15,-5 26,-3 54,-17 6,-3 5,-2 13,-4 8,-3 5,-3 12,-6 5,-2 9,-3 13,-5 8,-3 8,-2 11,-9 -21,-1 -30,5 -38,-1 1,-8 1,-8 8,-10 4,-5 11,-10 18,-12l2 -4c0,-1 1,-1 1,-1l32 -31 2 -4c0,0 1,-2 1,-3 2,-6 1,-9 0,-15 0,-4 -2,-14 -4,-20 -6,1 -10,5 -14,10 -11,13 -4,11 -14,11 0,9 -2,7 -10,13 -5,4 -7,6 -11,10 -7,8 -14,16 -24,20l-5 1c-5,10 -23,21 -32,28 -15,12 -18,15 -44,15 -24,0 -95,0 -111,-6 0,-11 4,-13 10,-18l9 -10c4,-4 0,-1 6,-4 3,-6 21,-29 25,-32 3,-10 14,-22 19,-28 5,-7 12,-20 17,-25l3 -13 -34 0c-11,14 -23,34 -32,38 0,3 1,1 -1,2 -4,18 -63,83 -72,85 -7,2 -80,-10 -93,-13 -6,-2 -11,-3 -16,-4 -8,-1 -10,0 -13,-4 -7,2 -8,3 -16,-3 0,0 -1,0 -1,-1 -3,-12 4,-28 8,-41 2,-7 3,-13 5,-20 3,-7 4,-9 5,-17 0,-7 7,-32 9,-38 3,-8 3,-8 5,-19 3,-14 4,-3 7,-18 -13,0 -26,-2 -39,2 -1,9 -15,70 -25,79z"/>
   <path class="fil0" d="M1035 283c-2,14 -12,46 -17,67 -3,10 -8,10 -5,23l200 67 1 -79c-1,-10 -9,-90 -15,-97 -3,-4 -19,-9 -25,-10l-61 -19c-8,-3 -20,-6 -30,-9 -8,-3 -24,-7 -31,-6 -6,12 -3,21 -8,32 -2,3 -9,25 -9,31z"/>
   <path class="fil0" d="M780 269l-1 0c-5,18 -27,37 -28,55 5,2 9,1 14,3 12,5 1,3 9,5 7,1 22,0 30,1 18,3 35,5 54,8 17,3 95,22 107,19 4,-6 9,-25 9,-33 -1,-13 11,-45 16,-60l14 -56c-9,-6 -142,-28 -156,-25l-18 20c-10,12 -38,57 -50,63z"/>
   <path class="fil2" d="M740 864l-15 8c-4,39 7,88 -11,112 -9,-1 -10,-4 -14,-9l-3 -4c-4,-4 0,4 -3,-4 -9,-22 -17,-27 -20,-35 -7,-3 -6,-3 -11,-9 -3,-3 -4,-5 -8,-9 -8,-9 -13,-6 -26,-8 -6,11 -52,5 -65,8 -4,8 -3,18 -5,24 -2,6 -2,4 -3,6l-1 91c5,3 14,6 20,8l19 7c11,3 3,-3 16,5 18,11 57,20 59,21 20,8 20,4 29,8l7 5c15,-3 14,2 26,5l26 5c4,-44 0,-10 7,-29 1,-3 7,-25 8,-27 -14,-22 -29,-14 -37,-23l-3 -3c-2,-5 -1,-14 -1,-20l1 -27c4,-11 20,0 27,-28 9,-34 7,-10 8,-46 -3,-3 -4,-2 -6,-9l-3 -27c-15,-3 -3,5 -18,4z"/>
   <path class="fil2" d="M1125 537c-8,0 -14,6 -20,8 -12,4 -9,0 -20,7l-37 18c-23,10 -14,10 -33,21 -9,6 -16,17 -29,25 -1,13 11,36 16,49 3,8 6,17 9,25 1,2 9,19 10,20 4,3 2,-4 6,6l16 43c3,8 6,5 5,17 3,3 4,6 8,9 9,-4 22,-19 29,-26 6,-7 24,-25 31,-28 3,-1 4,-4 9,-8 3,-3 5,-5 9,-7 4,-4 14,-15 16,-17 8,-23 45,-28 43,-66 -23,-3 -48,10 -69,10 -12,-1 -35,8 -40,-5 -15,-9 0,-30 11,-35 9,-4 11,-5 22,-8l42 -14c26,-8 25,-32 15,-54 -15,-1 -33,9 -49,10z"/>
   <path class="fil2" d="M279 884l-10 -1c-15,-5 -15,-15 -29,-18 2,9 4,21 5,29 1,14 5,8 11,19 4,3 10,6 12,12 9,2 9,6 17,11 44,28 33,22 44,73l12 47c3,19 4,10 7,20l10 23c4,17 19,43 20,49 3,13 -5,3 5,20 3,4 1,1 2,6 5,1 3,-4 14,11 3,3 8,9 12,13 5,7 23,20 26,29l4 4c8,3 1,-1 6,2l29 24 2 -5c1,-1 1,-2 1,-2 1,-1 1,-1 2,-2 17,1 12,6 29,8l-2 -29c-6,-4 -29,-15 -34,-17l0 -3c-9,-3 -40,-17 -44,-24 -5,-11 -22,-40 -21,-49 -2,-1 -4,-1 -7,-6 -2,-4 -2,-6 -3,-10 -2,-8 -5,-11 -7,-18 -13,-32 -22,-62 -29,-96 -2,-8 -3,-8 -2,-14 0,-1 0,-1 0,-2 1,-10 24,6 26,7 7,3 2,3 7,2l31 15c2,-7 0,-22 -5,-29 -3,-7 -4,-5 -11,-8l-12 -9c-4,0 0,1 -2,-4 -4,-4 -13,-7 -20,-12 -15,-12 -14,-6 -19,-11 -10,-10 -8,-104 -8,-121 1,-20 3,-42 2,-59l0 -28c-13,-2 -24,-3 -32,4 -10,13 -3,152 -5,172 -7,1 -6,2 -12,-2 -6,-3 -20,-15 -22,-21z"/>
   <path class="fil0" d="M623 194c-2,7 -3,5 -13,15 -19,18 -51,52 -67,72l-19 23c-5,8 -3,0 -5,12 30,1 62,0 93,0l93 2c6,-12 21,-43 32,-49 1,-2 19,-31 21,-34 2,-17 32,-40 35,-54 -7,-3 -16,-2 -25,-2 -10,-1 -12,-2 -20,-3 -15,-1 -34,-1 -48,0 -15,0 -32,0 -46,1 -18,2 -21,15 -31,17z"/>
   <path class="fil2" d="M1423 878c-9,12 -2,15 13,15 19,-1 55,0 72,-4 10,-2 24,-5 23,-10 -2,-14 4,-12 5,-26 3,-38 6,-35 8,-81 0,-20 1,-39 0,-59 -1,-44 -6,-20 -18,-43l1 1c-11,-3 -24,-18 -35,-26 -6,-6 -25,-23 -32,-22 -3,19 0,50 -1,72 -1,10 -4,18 -5,31 -1,12 -1,24 -2,36l-19 88c-5,16 1,20 -10,28z"/>
   <path class="fil0" d="M1280 471c10,0 1,0 21,8 61,27 24,18 70,11l34 -9c-1,-21 -21,-71 -19,-83 -4,-4 -3,-4 -6,-11l-13 -36c-1,-2 -4,-8 -6,-11 -7,-12 -22,-7 -29,-21 -9,0 -10,-2 -16,-5 -5,-3 -8,-5 -14,-8 -4,-2 -4,-2 -7,-4 -8,-4 -15,-8 -24,-9 -14,-2 -14,-6 -25,-7 0,28 8,51 8,81 0,14 -1,81 2,88 4,7 4,6 12,9l12 7z"/>
   <path class="fil0" d="M784 1166c-1,11 -8,35 -12,44 -5,34 -20,67 -19,83 6,4 8,3 12,8 13,-4 110,20 122,15 11,-4 53,-58 65,-73 7,-8 0,-2 7,-6 2,-1 1,1 1,-2 6,-15 19,-22 20,-34 -18,-2 -53,1 -74,2 -26,0 -53,3 -53,-26 -8,0 -5,-3 -12,-9 -4,-4 -9,-2 -15,-4 -11,-4 -24,-7 -35,-6l-7 8z"/>
   <path class="fil2" d="M1301 542l-4 12c0,11 -12,38 -12,48l96 1c13,9 7,30 1,46l-31 136c-2,12 1,8 -6,12 -1,8 -4,17 -5,27 -1,10 0,5 -4,13 -2,4 -2,5 -3,10 0,13 -6,26 -6,41l38 1c20,1 15,-4 18,-17 1,-7 4,-6 6,-15 1,-6 1,-13 2,-18l8 -14c4,-11 5,-16 7,-31l6 -34c8,-54 10,-91 9,-147 0,-17 2,-21 -9,-29 -5,-3 -7,-5 -11,-8 -5,-3 -8,-3 -11,-6 -8,-1 -35,-17 -45,-22 -8,-5 -15,-9 -21,-13 -20,-9 -20,10 -22,6 0,0 -1,1 -1,1z"/>
   <path class="fil0" d="M987 1263c-4,3 -22,26 -25,32 -4,16 -16,12 -19,28 24,1 112,9 131,2 1,-1 7,-4 8,-4l5 -5c1,0 2,-2 2,-2 6,-5 29,-22 35,-24l5 -1c1,-7 10,-13 21,-23 7,-6 15,-17 24,-20 3,-10 16,-16 20,-25 6,-12 3,-8 2,-20 -13,-1 -29,1 -44,0 -19,0 -22,5 -37,6 -6,1 -58,-6 -83,-5 -3,8 -15,25 -20,32 -3,5 -8,12 -11,16 -11,14 -6,11 -14,13z"/>
   <path class="fil2" d="M579 1249l3 3 15 3c9,0 17,2 26,6 5,2 8,3 12,4 8,3 6,3 15,2 5,-15 4,-26 8,-39 2,-7 3,-15 5,-21 3,-7 7,-14 12,-18 6,-3 9,-19 40,-35 4,-3 3,-2 6,-4l12 -9c-4,-6 1,-1 -6,-5 0,0 -4,-1 -5,-1l-77 -22c-20,-7 -73,-29 -88,-30 -1,23 4,85 9,108 2,6 4,11 5,17 2,20 6,23 8,41z"/>
   <path class="fil3" d="M1421 1183c-2,12 -3,8 -13,17l-72 72c0,1 -1,1 -1,1 -23,25 -79,61 -108,78 -7,3 -15,7 -21,10 -7,4 -12,9 -18,11l-22 8c-26,12 -83,34 -111,38 -9,2 -14,6 -24,7 -13,2 -15,1 -26,4 -19,6 -36,1 -51,8 -16,7 -93,4 -116,2 -10,0 -17,-3 -26,-5 -9,-2 -19,0 -28,-1 -10,-2 -10,-6 -24,-6 -11,-1 -15,0 -21,-6 -10,-8 -22,-3 -37,-11l-34 -12c-23,-4 -24,-9 -45,-16l-39 -18c-9,-6 -4,0 -16,-7l-45 -25c-25,-12 -18,-14 -40,-26l-67 -53c-16,-13 -10,-14 -21,-17 6,13 40,39 50,49l120 80c23,13 46,21 69,31 4,2 9,5 11,6l39 11c27,12 40,11 52,15l54 12c13,2 17,-1 31,3 13,4 10,-1 29,5 13,3 48,1 65,1 18,0 45,-8 58,-8 38,-1 27,-6 58,-8 8,-1 16,-5 26,-7l124 -44c21,-10 44,-21 64,-33 7,-5 13,-9 21,-13 16,-9 66,-47 77,-57 21,-20 51,-42 67,-66 9,-12 31,-33 45,-55 11,-17 43,-64 52,-81 9,-17 8,-26 36,-32 45,-9 82,-39 106,-77 2,-4 4,-7 6,-10 4,-6 10,-18 12,-22 5,-15 13,-33 17,-50 3,-17 13,-21 5,-38 0,-1 -2,-4 -2,-5 -4,-5 0,-2 -5,-5 0,15 -1,24 -5,38l-21 59c-5,8 -2,-4 -15,26l-9 15c0,0 -1,1 -1,1l-43 33c0,0 -16,14 -25,16 -14,4 -1,-1 -12,7 -8,0 -17,-2 -24,1 0,1 -3,3 -3,3 -4,2 0,0 -5,2 -2,0 -3,0 -5,1l-3 3c0,0 -1,1 -1,1 -8,22 -3,4 -8,16 -4,8 -1,3 -5,10l-11 19c-10,12 -2,5 -8,13l-9 13c-7,13 -7,8 -17,27 -3,5 -2,5 -6,9l-25 32z"/>
   <path class="fil2" d="M1190 1095c-4,-2 -7,-5 -12,-9 -5,-4 -9,-6 -14,-9 -9,-7 -16,-11 -24,-18 -13,-4 -12,-11 -23,-13 -1,0 -1,1 -1,1l-12 10c0,5 -5,13 -7,20 -6,18 -7,13 -11,19 -4,6 1,5 -6,16 -3,4 -11,18 -11,23 -3,11 -5,5 -5,17 0,0 1,-1 1,0 2,3 66,3 68,2 4,-13 4,-17 16,-24 14,-8 25,-4 27,6 9,3 8,9 14,18l56 0c6,-2 3,-2 10,-8l3 -3c8,-13 16,-24 25,-37 5,-7 9,-14 13,-20 4,-7 7,-14 11,-20 2,-14 11,-13 9,-26 -50,-5 -25,7 -40,40 -7,15 -8,18 -19,27 -22,16 -42,2 -54,-1 -13,-4 -11,-5 -14,-11z"/>
   <path class="fil2" d="M396 838l7 35c3,9 2,3 4,10 2,9 -1,18 3,26 3,8 6,13 4,24 9,6 8,8 10,23 6,45 37,24 49,46l5 -1 19 8c7,4 6,5 15,5 4,-18 3,-55 4,-75 3,-55 12,-26 -15,-43 0,0 -1,0 -1,-1l-5 -4c0,0 -25,-9 -28,-18 -19,-5 -47,-37 -58,-53 -9,-13 -8,-18 -14,-20 -5,9 0,27 1,38z"/>
   <path class="fil2" d="M1113 908c-1,1 -18,27 -21,31 -3,9 -53,89 -71,94 -18,4 -29,-9 -31,-23 -8,-8 -1,-25 -7,-40l-7 -28c-3,-6 -1,-3 -5,-6 -12,1 -9,4 -13,13 -4,7 -6,7 -9,16 -9,35 -28,87 3,118l16 -1c2,-11 50,-27 72,-2 0,1 2,3 3,4 4,4 -1,2 6,4 3,-9 11,-33 20,-37 1,-6 5,-14 10,-23l10 -23c1,-12 2,-7 6,-15l14 -35c1,-1 2,-5 2,-5l12 -34c5,-12 1,-13 0,-13 -6,4 -2,2 -10,5z"/>
   <path class="fil0" d="M409 1134c5,2 2,0 9,13l13 25c1,0 1,1 1,1l1 3c7,15 11,11 26,18l11 5c0,0 1,1 1,1l34 15c-2,-32 -11,-61 -12,-71 -2,-19 -3,-58 -10,-72 -9,-1 -10,2 -15,6l-11 8c0,1 -1,1 -2,1 0,0 -1,1 -1,0 0,0 -1,0 -2,0 -12,14 -20,-9 -22,-18 -3,-14 1,-32 -3,-45 -4,-6 -15,-5 -22,-16 -8,-1 -2,-2 -9,-4 -14,-2 -19,-11 -30,-13 0,10 2,12 4,20 3,8 2,11 4,19l22 70c4,10 13,24 13,34z"/>
   <path class="fil2" d="M1303 1151c13,0 11,-2 20,-3 8,-1 17,0 25,-1 7,-1 13,-4 20,-5 6,-1 15,-1 20,-3 19,-7 4,-2 20,-5 16,-4 24,-26 33,-38 5,-5 7,-9 10,-15 4,-7 6,-7 10,-15 11,-21 17,-27 0,-27 -28,-1 -69,-2 -96,0 -4,4 -6,8 -9,14l-7 13c-3,6 -4,9 -8,15 -3,5 -6,7 -8,13l-9 14c-14,29 -22,28 -21,43z"/>
   <path class="fil2" d="M634 471l1 4c-3,16 -14,36 -18,49 -2,6 -1,8 -4,14 -10,20 -6,27 -15,31 -1,10 -4,5 -7,17 -1,6 -4,12 -5,18 -3,10 -9,29 -9,36 -1,21 -30,86 -17,100 6,7 12,12 21,12 7,-10 2,-16 11,-25 -3,-17 14,-50 15,-57 2,-14 3,-20 7,-31 11,-29 4,-15 8,-31l39 -106 2 -13c5,-22 13,-25 14,-36 -9,-1 -18,1 -25,3 -13,5 -15,16 -16,14 0,-1 -1,1 -2,1z"/>
   <path class="fil2" d="M857 1128c28,2 51,9 70,12 20,3 18,5 25,6l43 4c8,1 12,3 20,3 4,-5 16,-23 16,-29 1,-12 6,-12 8,-26l-18 1 -2 -1c-3,4 -4,4 -12,6 -33,6 -97,3 -126,-9 -5,-2 -8,-3 -12,-4 -13,-5 -45,-21 -55,-22 -3,11 -9,27 -9,37 1,12 14,10 28,12 4,1 10,2 13,3l10 5c0,0 1,1 1,2z"/>
   <path class="fil0" d="M964 86c-5,0 -14,5 -19,9 -2,1 -6,4 -9,6 -7,5 -1,3 -9,3 -2,7 3,1 -10,11 -8,6 -31,22 -31,32 3,0 6,0 8,1 11,1 6,-1 7,3 13,-3 71,10 93,13 10,1 18,8 27,3 2,-6 2,-12 3,-18 2,-9 15,-36 13,-48 -4,-29 -27,-6 -44,-21 -15,-11 -9,5 -29,6z"/>
   <path class="fil4" d="M196 577c-49,5 -26,5 -43,9 -9,1 -14,0 -22,3 -20,9 -6,3 -21,6 -8,1 -7,4 -19,6l-38 13c-23,6 -16,15 -17,49 0,33 4,42 13,71 3,8 11,23 17,26l-3 -10c8,3 3,6 12,10 18,11 31,1 54,-2 3,-5 2,-5 4,-10l56 -5c-9,-5 -4,1 -3,-9 8,-3 15,-3 24,-4 33,-3 35,-9 43,-11 20,-4 111,-3 126,0 4,9 5,13 8,24 6,28 5,11 10,21 2,4 -1,24 13,24 0,0 -2,-5 -3,-7 -3,-9 0,-1 -3,-7 -4,-7 -3,-7 -4,-17 -3,-11 -5,-12 -8,-21l-10 -20c-16,-7 -113,-3 -137,-1 -21,3 -32,10 -55,13 -26,4 -20,5 -39,12 -5,2 -8,2 -14,2 -7,6 -9,2 -24,12 -8,6 -22,9 -31,4 -6,-3 -9,-12 -16,-25 -14,-27 -22,-70 -17,-103 6,-2 14,-4 21,-6 6,-3 10,-8 19,-10 28,-6 19,-6 45,-13 15,-4 33,-4 49,-8 19,-6 28,-9 51,-9l171 -1c13,-17 5,-29 16,-44 6,-9 5,-17 15,-33 1,0 1,-1 1,-1l19 -29c-10,2 -10,2 -13,10 -7,17 -5,-2 -13,18 -9,25 -16,25 -18,36 -2,11 -2,23 -12,28 -10,7 -4,3 -7,9 -22,4 -70,-1 -98,0 -16,1 -33,3 -48,3l-51 2 0 -5z"/>
   <path class="fil2" d="M1232 1235c-2,5 -7,10 -11,13 -3,13 1,-1 -2,7 -2,5 -1,1 -2,4 -1,5 0,8 -1,13l-2 2 11 24 19 -5c3,-7 5,-5 17,-12l34 -24c4,-3 11,-12 15,-13 2,-5 1,-4 9,-10 11,-8 50,-44 53,-54 -8,0 -62,10 -86,12 -29,1 -27,21 -46,38 -6,6 0,2 -8,5z"/>
   <path class="fil0" d="M1083 112c-3,8 -18,57 -18,67 11,6 39,9 49,18 4,0 16,3 21,4 12,2 27,11 38,11l10 0c0,-7 -22,-60 -29,-70 -2,-3 -3,-4 -5,-7 -17,-23 -9,-7 -22,-15 -8,-5 3,-2 -8,-5 -6,-2 -5,1 -11,-2 -7,-4 5,-2 -18,-7l-7 6z"/>
   <path class="fil2" d="M225 818c-1,12 0,22 7,28 4,0 17,-10 22,-13 22,-12 47,-27 48,-56l1 -44c-15,-3 -72,5 -83,11 -2,26 5,47 5,74z"/>
   <path class="fil2" d="M1452 529c0,6 3,32 5,37 3,6 17,15 24,19 10,8 45,32 47,38 10,1 5,1 8,-1l-12 -54c-2,-7 -2,-14 -4,-21l-11 -31c-4,-12 -8,-23 -13,-33l-49 -1c-1,13 8,27 5,47z"/>
   <path class="fil0" d="M350 1094l-2 -18c-3,-10 -4,-1 -7,-20l-12 -47c-11,-51 0,-45 -44,-73 -8,-5 -8,-9 -17,-11l-12 -3c0,21 2,15 4,20 6,9 1,8 4,17 3,9 4,-1 6,15 3,17 2,1 7,15l47 96c0,0 2,3 2,4 1,0 1,1 1,1l2 4c0,1 1,1 1,2l9 15c4,7 7,7 10,11 3,4 5,16 11,21 4,3 1,2 7,4 -2,-21 -16,-29 -17,-53z"/>
   <path class="fil0" d="M823 79c-12,1 -5,2 -16,5 -15,5 -92,38 -96,49 18,2 42,1 62,2 19,1 42,2 61,5 1,-5 28,-30 34,-35 5,-5 33,-25 35,-29 1,-4 0,-3 3,-8l-62 0c-8,7 -5,12 -21,11z"/>
   <path class="fil0" d="M675 1189c-2,23 -7,6 -11,38 -1,13 -9,35 -4,43 8,8 31,14 47,12l4 -20c6,-11 1,-3 7,-7l2 -16c2,-4 4,-2 3,-14 0,-12 6,-29 10,-38 4,-8 7,-28 7,-39l-19 2c-3,2 -2,1 -6,4 -31,16 -34,32 -40,35z"/>
   <path class="fil2" d="M750 499l1 6c3,3 3,2 5,6 1,1 2,5 3,6 6,17 17,50 18,65 1,23 -5,13 -7,28 20,1 112,2 125,-2 -2,-10 -3,-8 -21,-18 -9,-4 -17,-11 -30,-12 -13,-2 -15,2 -20,-10 -8,-5 -17,-25 -21,-33 -5,-9 -5,-11 -15,-14 -7,-3 -13,-6 -14,-14 -11,-9 -11,-26 -27,-30l3 22z"/>
   <path class="fil5" d="M739 1421c6,6 10,5 21,6 14,0 14,4 24,6 9,1 19,-1 28,1 9,2 16,5 26,5 23,2 100,5 116,-2 15,-7 32,-2 51,-8 11,-3 13,-2 26,-4 10,-1 15,-5 24,-7 28,-4 85,-26 111,-38l22 -8c6,-2 11,-7 18,-11 6,-3 14,-7 21,-10 29,-17 85,-53 108,-78 0,0 1,0 1,-1l72 -72c10,-9 11,-5 13,-17 -7,2 -9,4 -14,10 -16,16 -44,48 -61,61l-13 8c-24,20 6,-11 -29,25 -8,8 -8,2 -14,8 -6,6 -16,17 -25,20l-27 14c-8,7 -3,6 -17,6 -2,11 -4,6 -7,8 -6,3 -1,-4 -6,8 -27,0 -10,2 -25,11l-35 13c-9,4 2,-1 -3,2 -11,5 -12,7 -22,9 -11,2 -6,3 -13,7 -16,7 -10,-6 -29,12 -2,1 -8,-2 -16,3 -20,12 -31,-3 -36,13 -54,0 -27,7 -62,7 -13,0 -24,0 -35,1 -43,6 -43,8 -94,2l-63 -4 -4 -6 -32 0z"/>
   <path class="fil5" d="M251 938c-6,-4 -4,-5 -4,-13 9,1 6,7 4,13zm122 -198c-12,-1 -8,1 -10,-8 0,0 2,-5 8,0 3,3 1,3 2,8zm-137 -4c15,-4 54,-9 68,-6 5,9 5,33 0,44l-2 3c-1,29 -26,44 -48,56 -5,3 -18,13 -22,13 -7,-6 -8,-16 -7,-28 -6,-6 -4,8 -5,-9l-1 -3c-1,9 2,16 2,26 0,13 -1,12 7,19 1,31 5,10 8,50 1,18 5,15 7,23 3,15 -5,10 7,21 0,24 2,3 9,31 2,10 3,3 6,11 2,7 -1,5 5,13 6,8 1,5 4,13 3,6 2,1 5,6l11 25c0,1 2,2 2,2 8,8 -1,5 8,17l6 7c5,8 4,5 5,15 18,6 -1,-1 12,13 4,4 0,0 4,5 0,0 4,5 4,5 3,6 6,15 13,21 12,9 4,5 11,15l17 18c-3,-24 -1,-17 -8,-37 -3,-6 -5,-9 -7,-15 -3,-8 0,-14 -7,-16 1,24 15,32 17,53 -6,-2 -3,-1 -7,-4 -6,-5 -8,-17 -11,-21 -3,-4 -6,-4 -10,-11l-9 -15c0,-1 -1,-1 -1,-2l-2 -4c0,0 0,-1 -1,-1 0,-1 -2,-4 -2,-4l-47 -96c-5,-14 -4,2 -7,-15 -2,-16 -3,-6 -6,-15 -3,-9 2,-8 -4,-17 -2,-5 -4,1 -4,-20l12 3c-2,-6 -8,-9 -12,-12l-14 -3 -3 -21c-2,-21 -4,-17 -6,-24 -2,-9 1,-13 11,-5 6,4 4,4 12,7 -5,-11 -9,-8 -15,-18 5,-6 4,-4 10,-8l36 -24c10,-9 12,-18 18,-29 3,3 2,-1 4,7 0,3 0,5 0,8 -5,57 2,61 0,99 -11,-4 -19,-15 -30,-18 2,6 16,18 22,21 6,4 5,3 12,2 2,-20 -5,-159 5,-172 8,-7 19,-6 32,-4l0 28c9,-7 4,-2 7,-14 3,-14 8,9 23,7 3,-15 -2,-26 -18,-25 -35,2 -106,-5 -126,9z"/>
   <path class="fil6" d="M1163 949c1,13 -5,23 -8,34 -5,19 -7,16 -2,37 78,4 163,3 243,3 35,0 119,5 147,-9 12,-6 9,-2 22,-6 12,-4 6,-8 18,-13 7,-2 12,-3 17,-17l-10 2c-6,23 -13,6 -36,18 -11,6 0,10 -26,11 -26,1 -18,19 -100,7 -3,-10 -4,9 1,-2 1,-3 7,-1 -2,-3l-127 -1c-27,0 -123,4 -139,-4 -1,-9 3,-47 12,-57l6 -12c6,-18 -5,-15 10,-50 5,-12 7,-26 7,-41 -6,6 -18,68 -23,78 -5,11 -3,16 -10,25z"/>
   <path class="fil2" d="M455 1082c11,-7 14,-16 32,-14 8,15 8,38 9,58 1,17 10,37 9,55 10,4 6,24 8,35l5 8c0,1 0,2 1,2 6,2 3,3 13,2l-8 -57c-10,-52 -8,-51 -8,-107 -12,-10 -11,-4 -15,-13 -8,3 -5,2 -12,-1 -5,-2 -3,-3 -10,-3 -16,-5 -27,-15 -43,-18 0,12 1,45 6,54l13 -1z"/>
   <path class="fil5" d="M753 76c21,-2 38,-8 57,-9 9,-1 15,-1 21,4l-4 5c-5,5 0,-2 -4,3 16,1 13,-4 21,-11l62 0c-3,5 -2,4 -3,8 11,-4 7,-6 14,-9 7,-1 51,3 58,4 -1,14 -1,5 -11,15 20,-1 14,-17 29,-6 17,15 40,-8 44,21 3,-4 4,-2 4,-14 10,-1 17,1 27,4 14,4 18,5 15,21l7 -6c23,5 11,3 18,7 6,3 5,0 11,2 11,3 0,0 8,5 13,8 5,-8 22,15 2,3 3,4 5,7 7,10 29,63 29,70l-10 0c3,2 0,1 5,3 5,1 3,0 8,0l-2 -15c-3,-14 -18,-47 -25,-59l-4 -4c-4,-4 -5,-8 -6,-15 10,1 21,4 25,14 6,-1 14,4 20,8 4,2 7,4 9,8 4,5 4,2 4,11l8 15c2,7 4,9 6,14l11 32c3,-18 -18,-52 -19,-66 10,3 0,0 7,5 3,2 5,3 8,5 5,4 3,2 8,5 7,3 3,1 9,6 14,11 15,7 23,16 4,7 3,6 9,8l-3 -9c6,1 6,2 10,4 5,4 4,4 10,6 -5,-9 -39,-30 -50,-37l-12 -8c-8,-8 -4,-2 -12,-5 -5,-3 -3,-4 -11,-8l-71 -35c-14,-3 -4,2 -14,-5 -6,-4 -7,-3 -15,-4l-6 -7c-22,0 -40,-13 -61,-14 -16,-1 -8,-3 -18,-7 -7,-2 -16,0 -24,0 -14,-1 -5,-5 -18,-7 -12,-3 -34,-1 -49,-3 -24,-3 -68,-9 -91,-1 -12,5 -32,1 -47,3l-42 10z"/>
   <path class="fil2" d="M335 552c-2,-1 -1,0 -5,-3 -5,-6 -33,-54 -37,-62l-13 -22c-2,2 -1,0 -3,3 -7,10 -12,30 -16,41 -5,15 -14,31 -14,50l86 -1 2 -6z"/>
   <path class="fil0" d="M1232 224c-1,10 1,9 9,13l32 14c2,1 7,3 9,4 6,3 3,2 6,6l2 0c7,0 8,1 13,4 8,4 6,-1 9,7l2 0 11 1 -3 -12 1 0c-7,-2 -2,0 -6,-4 0,0 -33,-50 -40,-54 -6,-2 -5,-1 -9,-8 -8,-9 -9,-5 -23,-16 -6,-5 -2,-3 -9,-6 -5,-3 -3,-1 -8,-5 -3,-2 -5,-3 -8,-5 -7,-5 3,-2 -7,-5 1,14 22,48 19,66z"/>
   <path class="fil4" d="M556 759c6,15 7,14 21,17 22,4 3,17 87,13 36,-2 11,-5 52,-15 10,-3 4,-1 10,-8 8,-9 9,-3 19,-13 4,-4 2,-6 8,-6 5,-10 8,-13 15,-19 6,-5 3,-3 7,-8 4,-4 5,-4 8,-7 3,-5 1,-5 5,-10 2,-2 6,-5 7,-7 6,-10 -3,-7 13,-14 1,-20 -3,-22 -23,-22 -38,1 -48,6 -48,-15 0,-20 7,-16 59,-15l171 0c4,6 6,12 9,20 2,6 22,46 23,60 1,2 3,6 4,9 0,1 2,5 3,6 3,4 -2,0 4,3 1,-11 -6,-25 -10,-36 -1,-4 -1,-4 -3,-7 -10,-17 -5,-18 -10,-26 -2,-4 -1,0 -4,-4 -3,-4 0,0 -3,-6 -4,-9 -5,-14 -8,-24l-124 0c-25,0 -100,-4 -117,5 0,28 1,19 9,39l60 1c2,3 3,4 2,10 -9,8 -6,1 -11,12 -4,8 -5,4 -9,12 -5,14 0,4 -10,11 -3,3 -6,9 -9,12 -11,8 -3,0 -11,11 -5,7 -7,4 -13,9 -6,4 -3,5 -10,10 -8,5 -7,1 -11,11 -6,1 -16,3 -22,4l-16 4c-2,1 -2,1 -3,2 -16,13 -71,7 -81,-1 -16,-13 -13,0 -30,-13 -8,-6 1,-3 -10,-5z"/>
   <path class="fil5" d="M1000 1393c-20,0 -51,14 -65,3 5,-9 8,-4 16,-11l-22 4 -4 8 -56 0c-5,-4 -2,1 -3,-7l-5 1c-7,2 -4,2 -9,5 -2,2 -1,4 -12,4 -10,0 -26,-3 -37,-2l-17 -2c2,-5 10,-12 15,-14 6,-1 9,-3 13,-5 3,-1 4,-2 6,-3 7,-4 3,-2 6,-6 -9,3 -14,8 -23,11 -20,7 -10,9 -20,10 -15,-3 -5,-8 -29,-8 -11,1 -12,3 -25,-8 2,-9 8,-25 10,-34 14,0 26,9 42,2 0,0 -1,0 -1,0 -1,0 -1,-1 -2,-1 0,0 -1,0 -2,0 -1,-1 -3,-1 -5,-1 -3,-1 -5,-1 -9,-2 -12,0 -10,-4 -24,-3 -13,17 -2,18 -13,29 3,15 -3,15 -4,17 -15,-1 -31,-5 -38,-14 1,-8 3,-14 6,-22 5,-18 7,-17 -2,-21 5,12 1,8 -2,18 -3,8 -1,11 -6,18 -3,0 -5,1 -9,0 -12,-2 0,-5 -18,-7 -10,-1 -16,-4 -21,-11l1 -9c-8,5 -6,9 -13,6 -4,-1 -19,-30 -20,-34l-6 -2c2,7 2,10 7,16l25 37c2,0 10,1 12,2 11,4 -3,6 23,8 5,12 3,4 17,7 10,2 5,6 15,7 13,2 8,-1 22,5 8,3 12,1 21,1 7,7 9,9 23,8 18,0 13,-2 23,7 5,3 56,-1 67,5 12,6 69,4 75,3 8,-3 2,-6 16,-6 17,-1 48,-1 61,-9z"/>
   <path class="fil6" d="M753 747c15,-3 9,-6 15,-13 5,-5 6,-1 11,-8l18 -26c1,-3 0,0 2,-4l2 -5c3,-9 16,7 10,-32 -10,-7 -37,-5 -53,-4 -14,0 -16,-2 -16,-8 4,-8 -5,-4 10,-6l44 1c50,1 130,-4 174,0 8,36 5,19 13,34 5,10 5,21 9,27l7 7c-1,-14 -21,-54 -23,-60 -3,-8 -5,-14 -9,-20l-171 0c-52,-1 -59,-5 -59,15 0,21 10,16 48,15 20,0 24,2 23,22 -16,7 -7,4 -13,14 -1,2 -5,5 -7,7 -4,5 -2,5 -5,10 -3,3 -4,3 -8,7 -4,5 -1,3 -7,8 -7,6 -10,9 -15,19z"/>
   <path class="fil7" d="M1205 1206c-3,-9 0,-9 8,-9 0,6 -3,8 -8,9zm-16 -34l2 8c0,1 1,2 2,2 0,0 1,1 1,1 0,-1 1,0 2,1 -5,12 -8,8 -23,8 -8,0 -22,1 -29,-1 -2,-4 -1,-23 1,-26 5,-4 18,-2 26,-2 12,0 16,-2 18,9zm-13 -36c2,11 8,7 8,23l-44 -1c-2,-29 22,-29 25,-27 10,3 -2,3 11,5zm-107 -1c-5,2 -5,0 -8,7 -3,5 -2,8 -2,14l4 1 73 4c4,9 5,24 1,29 -3,4 -18,3 -22,3l-73 -1c3,7 4,5 14,6 83,12 55,-2 98,-1 15,0 31,-1 45,0 4,26 6,20 -5,24 -4,9 -17,15 -20,25 10,0 3,2 14,-11 4,-5 8,-9 14,-10 2,6 4,16 4,20 1,6 2,9 0,15 0,1 -1,3 -1,3l-2 4c10,-1 9,-2 9,5l4 0c1,-5 0,-8 1,-13 1,-3 0,1 2,-4 3,-8 -1,6 2,-7l-10 0c-5,-63 11,-32 7,-56l-16 0 -6 -8 -2 -22c14,-1 25,-2 40,-2 15,-1 23,-3 25,-17l-3 3c-7,6 -4,6 -10,8l-56 0c-6,-9 -5,-15 -14,-18 -2,-10 -13,-14 -27,-6 -12,7 -12,11 -16,24 -2,1 -66,1 -68,-2 0,-1 -1,0 -1,0 0,-12 2,-6 5,-17z"/>
   <path class="fil0" d="M256 867c3,7 10,6 13,16l10 1c11,3 19,14 30,18 2,-38 -5,-42 0,-99 0,-3 0,-5 0,-8 -2,-8 -1,-4 -4,-7 -6,11 -8,20 -18,29l-36 24c-6,4 -5,2 -10,8 6,10 10,7 15,18z"/>
   <path class="fil7" d="M579 1249c-2,-18 -6,-21 -8,-41 -1,-6 -3,-11 -5,-17 -5,-23 -10,-85 -9,-108 15,1 68,23 88,30l77 22c1,0 5,1 5,1 7,4 2,-1 6,5l-12 9 19 -2c0,11 -3,31 -7,39 -4,9 -10,26 -10,38 10,-9 24,-70 25,-79 13,-4 26,-2 39,-2 -3,15 -4,4 -7,18 -2,11 -2,11 -5,19 -2,6 -9,31 -9,38l6 -9c4,-9 11,-33 12,-44 5,-32 22,0 40,-12 0,-1 -1,-2 -1,-2 -9,-9 -15,-2 -22,-11 -10,-2 -25,-4 -35,-2 -22,3 -17,-2 -34,-6 -19,-4 -45,-14 -45,-14l-120 -40c-5,-2 -8,-7 -14,-1 -5,5 0,40 0,46 2,28 11,91 21,117 4,12 -1,4 5,8z"/>
   <path class="fil4" d="M1309 861c-2,22 -10,20 -3,48 34,5 128,7 167,1 10,-1 43,-5 53,-3 9,-6 14,-1 26,-6 0,0 4,-2 4,-2 23,-10 27,-7 38,-15 12,-9 23,-5 34,-12 11,-8 16,-12 34,-11 2,13 -8,34 -12,48 6,-2 2,3 8,-5 3,-5 10,-39 10,-49 -24,-5 -52,18 -55,19 -8,1 -15,-1 -22,3 -7,4 -7,10 -14,11 -7,2 -15,1 -23,3 -9,2 -9,3 -20,5 -73,16 -137,9 -219,9 -1,-3 -1,-2 -4,-4 0,-17 1,-29 5,-44 2,-5 2,-5 4,-9 5,-15 6,-15 7,-30 3,-18 6,-26 10,-42 2,-11 10,-31 6,-43l-34 128z"/>
   <path class="fil0" d="M826 1368c9,-2 12,-6 14,-13 -28,-10 -46,-3 -59,-14 -16,7 -28,-2 -42,-2 -2,9 -8,25 -10,34 13,11 14,9 25,8 24,0 14,5 29,8 10,-1 0,-3 20,-10 9,-3 14,-8 23,-11z"/>
   <path class="fil4" d="M838 394c9,4 3,1 6,4l2 4c1,0 1,1 1,1 7,9 4,1 9,12l20 36c5,10 10,38 3,46 -5,8 -33,3 -44,2l-36 0c-7,-2 -5,-2 -8,-7 -4,-1 -6,-6 -9,-11 -5,-8 -4,-7 -9,-14 -14,-4 -9,-8 -19,-14 -4,-3 -7,-3 -12,-5 -6,-3 -3,-3 -8,-6 -12,-9 -40,-8 -57,-8 -50,0 -39,5 -66,15 -15,6 -8,12 -28,18 -6,3 -19,22 -21,27l10 -1 3 -10c28,-10 2,-15 27,-17l5 -12c10,-2 23,-2 29,-8 5,-5 1,-6 12,-8l56 0c24,1 15,-1 24,13 32,4 19,2 28,12 6,8 -1,-4 13,14 3,4 5,4 7,8 3,3 2,4 5,8l4 4c12,13 16,16 44,11 3,0 31,3 51,2 10,-16 7,-36 6,-57 -10,-7 -4,-3 -8,-12l-12 -21c-6,-5 -2,1 -6,-7 -5,-12 -3,-3 -9,-14 -5,-7 -1,-5 -11,-9 -15,-7 -4,-5 -13,-10 -3,-3 -12,-4 -17,-6 -15,-6 1,-8 -16,-9 6,15 4,7 22,15 13,6 3,2 10,9 7,6 7,1 12,5z"/>
   <path class="fil0" d="M1419 387c3,2 0,-2 2,3 7,12 11,40 14,43 6,5 1,-1 4,7 0,1 1,5 1,6l7 30c8,-1 16,-3 25,-2 10,1 12,5 22,0 0,-10 -3,-3 -7,-12l-12 -26c0,0 -1,-1 -2,-4 -1,0 -1,-1 -1,-1 -10,-20 -9,-21 -25,-39 -5,-4 -4,-1 -8,-4 -8,-6 -4,0 -6,-9l-5 -4c-4,-1 -6,-1 -11,-2 1,9 2,4 2,14z"/>
   <path class="fil4" d="M789 805c9,-1 4,1 8,-2 6,-5 -3,-2 12,-12 12,-8 0,-14 17,-12 -1,33 -13,35 -15,45 -1,7 1,12 -2,20 -1,4 -11,4 -16,45 -2,2 -6,4 -8,6 -2,29 -4,31 -12,44 -7,14 -10,30 -14,38 -6,11 -8,16 -5,31 22,4 101,3 127,1l14 -44c5,-10 6,-35 11,-45 4,-9 8,-20 9,-32 -8,4 -1,-1 -5,4 -3,2 -1,-2 -3,4 -1,2 -1,5 -2,7 -5,29 -18,61 -20,73 -4,35 -11,27 -64,27 -20,1 -42,1 -62,-1 -1,-13 3,-16 6,-25l6 -19c3,-5 1,-4 6,-7 8,-19 6,-19 12,-36 14,-35 22,-75 37,-108 5,-24 20,-37 -14,-33 -1,7 -2,11 -8,14 -8,4 -3,-2 -9,6 -4,7 -3,12 -5,9 0,0 0,2 -1,2z"/>
   <path class="fil7" d="M1404 537c-2,-4 4,-2 -11,-10 -5,-2 -10,-4 -14,-7 -11,-6 -20,-9 -24,-17 2,-4 1,-4 11,-7 14,-4 25,-7 38,-7l8 45c-3,2 1,2 -8,3zm-18 -139c-2,12 18,62 19,83l-34 9c-7,7 -14,4 -18,7 -6,4 -5,-3 -4,8 1,9 0,2 7,8 6,2 22,11 26,15 8,2 14,8 22,9 4,6 2,3 10,4 2,-12 0,-28 -3,-39 -4,-20 -7,-20 17,-20l13 0c3,11 8,33 7,47l4 0c3,-20 -6,-34 -5,-47l49 1c5,10 9,21 13,33l11 31c2,7 2,14 4,21l12 54c-3,2 2,2 -8,1 6,6 2,4 10,5 6,-20 -10,-30 -7,-56 -1,-5 -4,-7 -5,-14 -1,-6 -1,-12 -3,-17 -2,-6 -8,-20 -9,-29 -7,-7 -10,-25 -15,-33l-55 -1 -9 -45c-3,-3 -7,-31 -14,-43 -2,-5 1,-1 -2,-3 -4,14 23,76 17,90l-27 1c-1,-8 -15,-71 -19,-77 -4,-4 -1,-1 -4,-3z"/>
   <path class="fil3" d="M861 1391l5 -1c8,-5 14,-9 21,-16 21,-21 45,-5 96,-5 -4,9 3,2 -8,9l-24 7c-8,7 -11,2 -16,11 14,11 45,-3 65,-3 10,0 42,-7 50,-10l47 -15c1,0 1,-1 2,-1 7,-4 9,-3 18,-5 8,-2 13,-6 21,-10 7,-4 4,0 16,-6l26 -10c6,-7 6,-2 9,-11 -3,-2 -2,-2 -6,-3 -12,-4 -10,5 -36,2 2,-5 0,-4 3,-9 -7,2 -7,2 -8,10 8,6 17,0 38,1 -3,7 -3,6 -11,9 -4,2 -8,3 -13,5 -7,3 -4,3 -12,6 -8,2 -7,1 -13,4 -28,14 -39,12 -54,17 -9,3 -12,7 -24,10l-82 15c-8,-1 -3,0 -7,-3 8,-12 33,-7 38,-24 -7,-3 -69,-4 -84,-6 -23,-3 -22,1 -33,11l-24 21z"/>
   <path class="fil3" d="M1115 1032c-16,2 -17,-8 -15,-22 0,-12 0,-9 4,-16 3,-6 2,-9 5,-15 5,-12 24,-38 39,-40l-9 36c0,1 -1,1 -1,2l-13 32c-1,5 -8,20 -10,23zm33 -177c1,0 1,-1 2,-1l4 -4c9,-8 14,-18 23,-19 0,10 -5,24 -7,35 -2,12 -5,19 -10,28l-23 -1c-2,-14 5,-12 4,-27l-5 6c-4,8 -3,15 -5,19 -7,11 -12,1 -18,17 8,-3 4,-1 10,-5 1,0 5,1 0,13l-12 34c0,0 -1,4 -2,5l-14 35c-4,8 -5,3 -6,15 3,-2 5,-3 7,-4 0,8 -3,13 -2,19 1,7 0,4 7,12l2 3c3,4 3,3 6,8l-5 14 12 -10c0,0 0,-1 1,-1 11,2 10,9 23,13 -3,-14 -4,-4 -13,-12 -4,-4 0,5 -2,-4 -7,-15 -3,-14 10,-43 3,-5 2,-9 4,-14 5,-13 15,-38 14,-52 -11,-1 -21,7 -27,14 -1,1 -3,3 -5,4 -5,4 4,-1 -5,3 0,-6 13,-51 22,-54 1,0 1,-1 2,-1l10 0c18,0 14,-3 20,-17l13 -61c-11,1 -18,10 -28,21 -4,5 -6,5 -7,12z"/>
   <path class="fil7" d="M974 327c0,8 -5,27 -9,33 -12,3 -90,-16 -107,-19 -19,-3 -36,-5 -54,-8 -8,-1 -23,0 -30,-1 -8,-2 3,0 -9,-5 -5,-2 -9,-1 -14,-3 1,-18 23,-37 28,-55 -8,4 -8,6 -12,13 -4,7 -5,8 -8,14 -8,15 -16,21 -15,31l14 5c7,4 1,-1 6,6 -25,0 -34,-7 -76,-3 -7,0 -19,0 -23,5 19,1 43,-2 64,-1 20,1 37,7 56,9 0,0 -1,-1 -1,-1l-9 -11c43,-1 32,5 50,7 10,1 17,-1 26,2 8,1 13,3 22,4 20,3 83,21 94,15 7,-5 24,-76 28,-89 3,-9 8,-25 9,-34 -4,4 -2,1 -5,6l-18 60c-1,4 -1,8 -2,12l-5 8z"/>
   <path class="fil7" d="M597 1255c3,4 -1,2 7,5l43 15c2,9 1,8 -3,15 -2,4 -2,8 -5,12 -16,2 -24,-9 -45,-8l-1 8 6 2 1 -5c14,-1 9,2 17,5 8,3 8,1 16,6l1 11c3,-3 1,0 4,-4 1,-2 2,-3 3,-5 11,-1 36,7 46,11 9,4 7,3 2,21 -3,8 -5,14 -6,22 7,9 23,13 38,14 1,-2 7,-2 4,-17 -4,3 -1,-1 -3,4 0,0 0,1 0,1 -1,1 -1,2 -1,2 -2,5 0,2 -3,5 -9,0 -15,-1 -23,-6 -19,-9 6,-20 0,-48 -11,-8 -35,-11 -50,-15 1,-5 6,-20 9,-27 18,-1 33,12 53,11 3,-5 10,-28 11,-35 -6,4 -1,-4 -7,7l-4 20c-16,2 -39,-4 -47,-12 -5,-8 3,-30 4,-43 4,-32 9,-15 11,-38 -5,4 -9,11 -12,18 -2,6 -3,14 -5,21 -4,13 -3,24 -8,39 -9,1 -7,1 -15,-2 -4,-1 -7,-2 -12,-4 -9,-4 -17,-6 -26,-6z"/>
   <path class="fil5" d="M519 1226l-6 0 1 34c-20,0 -14,-6 -31,-8 3,13 8,10 10,20 -3,-1 -3,-1 -4,-2 -8,-2 2,0 -8,-2 6,10 6,6 15,12 9,6 4,5 15,10 10,5 20,16 33,18l-1 -5c-7,-1 -13,-6 -18,-11 -9,-8 -8,-9 -8,-24 18,0 10,6 26,6 1,-5 2,0 -1,-4l-8 -4c-4,-2 -8,-3 -13,-5l-4 -29c9,2 11,4 19,2 2,-3 1,5 2,-5l-2 -17c-3,-24 -15,-85 -14,-105 0,-13 0,-35 -3,-47 -6,-4 -10,-11 -18,-9 4,9 3,3 15,13 0,56 -2,55 8,107l8 57c-10,1 -7,0 -13,-2z"/>
   <path class="fil2" d="M851 1172c6,2 2,0 2,5 18,7 -14,24 62,21l69 -4c6,-2 4,1 6,-5 -8,-8 -56,-8 -72,-10 -15,-2 -59,-15 -68,-14l1 7z"/>
   <path class="fil0" d="M866 1390c1,8 -2,3 3,7l56 0 4 -8 22 -4 24 -7c11,-7 4,0 8,-9 -51,0 -75,-16 -96,5 -7,7 -13,11 -21,16z"/>
   <path class="fil5" d="M242 1014c5,3 5,9 11,14 -2,-24 -5,-13 -8,-25l-13 -30c-2,-5 -1,-8 -3,-12 -1,-6 -3,-5 -5,-10 -2,-5 0,-6 -1,-11l-8 -22c-2,-9 -5,-12 -6,-23 -2,-14 -3,-13 -6,-24 -2,-7 -1,-17 -2,-26 -1,-6 -8,-7 -10,-17 -7,-1 -19,-7 -25,-10l-37 -18c-8,-4 -7,-6 -14,-8 -32,-12 -36,-22 -44,-23 10,25 37,32 60,44 6,3 10,6 16,8 64,26 43,23 52,51 8,24 4,24 10,40l11 41c3,6 2,2 4,9 5,21 3,9 7,20 2,3 2,6 3,10 4,11 5,6 8,22z"/>
   <path class="fil3" d="M753 76c-4,0 -31,6 -36,7 -7,3 -11,4 -18,6 -9,2 -11,5 -18,7l1 7c11,-4 11,-9 28,-12 17,-2 15,-5 30,-7 23,-4 42,-10 66,-9 -3,5 -2,4 -10,8 -5,3 -8,4 -13,6 -19,7 -32,15 -52,24 -70,32 0,26 29,27 16,0 65,7 74,0 -19,-3 -42,-4 -61,-5 -20,-1 -44,0 -62,-2 4,-11 81,-44 96,-49 11,-3 4,-4 16,-5 4,-5 -1,2 4,-3l4 -5c-6,-5 -12,-5 -21,-4 -19,1 -36,7 -57,9z"/>
   <path class="fil3" d="M705 1089l-7 -5c-9,-4 -9,0 -29,-8 -2,-1 -41,-10 -59,-21 -13,-8 -5,-2 -16,-5l-19 -7c-6,-2 -15,-5 -20,-8l1 -91c0,-14 2,-18 4,-32 11,-4 18,-2 31,-2 14,0 26,-4 38,-4 13,2 18,-1 26,8 4,4 5,6 8,9 5,6 4,6 11,9 -1,-9 -24,-29 -24,-30l-90 3c-8,10 -7,11 -8,26l-5 106c7,5 24,10 30,12l47 18c10,5 28,9 40,13 9,3 34,14 41,9z"/>
   <path class="fil7" d="M550 154c-7,2 -6,3 -11,6 -5,4 -8,5 -14,8 -7,4 -17,13 -22,15 -3,6 -2,4 -3,9l64 -9c8,-1 9,0 11,3 -4,7 -1,5 -9,8l-106 129c-36,3 -44,7 -69,9 -12,1 -18,5 -30,7 -15,2 -22,2 -25,18 13,-7 6,-11 26,-13 6,-1 11,-2 16,-3 36,-10 21,-3 51,-8 12,-2 22,-4 35,-5 7,-17 5,-6 17,-25l2 -3c8,-12 6,-11 16,-21 4,-4 3,-4 7,-9 23,-28 45,-54 72,-79 3,-3 6,-4 7,-11 -15,-7 -50,4 -70,5 2,-7 0,-3 4,-7 2,-2 3,-3 6,-4l37 -21c23,-13 40,-6 59,-9 10,-2 4,1 8,-4 -14,0 -33,0 -46,0 -16,1 -21,10 -33,14z"/>
   <path class="fil3" d="M851 1172l-1 -7c9,-1 53,12 68,14 16,2 64,2 72,10 -2,6 0,3 -6,5l-69 4c-76,3 -44,-14 -62,-21 0,29 27,26 53,26 21,-1 56,-4 74,-2 -1,12 -14,19 -20,34 9,-4 21,-24 32,-38l34 0 -3 13 3 -2c9,-7 7,-9 7,-17 -8,0 -30,4 -34,-2 -8,-5 1,-6 -25,-11 -11,-2 -22,-1 -34,-3l-63 -11c-21,-3 -25,-7 -33,0 3,12 0,6 7,8z"/>
   <path class="fil6" d="M410 788c6,5 2,8 7,14 6,9 14,15 20,26l51 41c4,5 6,6 14,7 7,1 15,2 20,4l34 11c16,2 51,1 65,0 18,-2 28,-2 33,-14 -6,0 -12,0 -17,0 -20,2 -2,18 -81,9l4 -8 -33 -3c-6,-12 -5,-12 -23,-12 -26,-1 -21,-9 -23,-13 -25,-4 -21,-9 -23,-12 -7,-11 -4,2 -15,-16 -5,-7 -6,-3 -11,-10 -12,-17 -3,-4 -11,-12l-3 -7c-7,-26 2,-9 -9,-23 -2,-3 -2,-3 -4,-6l-5 -7c1,10 0,10 4,17 3,6 0,-2 3,7 1,2 3,7 3,7z"/>
   <path class="fil7" d="M957 550c-3,2 -5,-1 -8,15 -2,7 -3,10 -5,15 -5,16 1,15 -9,30 -18,0 -21,-1 -32,-11 3,-14 12,-32 12,-46 -2,3 -3,0 -7,11 -2,8 -4,26 -10,30 -2,2 3,4 -6,2 -6,-2 -1,-6 -13,-8 -11,-2 -4,-2 -14,-6 -28,-12 -20,-4 -35,-12 -1,0 -1,0 -2,-1l-4 -1c5,12 7,8 20,10 13,1 21,8 30,12 18,10 19,8 21,18 -13,4 -105,3 -125,2 2,-15 8,-5 7,-28 -1,-15 -12,-48 -18,-65 -1,-1 -2,-5 -3,-6 -2,-4 -2,-3 -5,-6 1,23 22,57 21,81 0,15 -5,9 -6,19 -1,9 1,6 1,7 5,4 124,2 127,1 6,-1 3,-3 10,-6 9,4 4,6 17,7 8,1 12,0 20,-2 3,-5 16,-52 16,-62z"/>
   <path class="fil3" d="M737 269c-11,6 -26,37 -32,49l-93 -2c-31,0 -63,1 -93,0 2,-12 0,-4 5,-12l19 -23c16,-20 48,-54 67,-72 10,-10 11,-8 13,-15 -8,1 -9,4 -17,12 -25,25 -51,50 -72,79 -5,6 -7,10 -13,16 -6,6 -10,10 -8,22 39,1 92,-5 143,-2 15,1 32,5 48,2 8,-6 32,-44 33,-54z"/>
   <path class="fil5" d="M999 1189c4,6 26,2 34,2 0,8 2,10 -7,17l-3 2c-5,5 -12,18 -17,25 -5,6 -16,18 -19,28 8,-2 3,1 14,-13 3,-4 8,-11 11,-16 5,-7 17,-24 20,-32 25,-1 77,6 83,5 15,-1 18,-6 37,-6 15,1 31,-1 44,0 1,12 4,8 -2,20 11,-4 9,2 5,-24 -14,-1 -30,0 -45,0 -43,-1 -15,13 -98,1 -10,-1 -11,1 -14,-6l73 1c4,0 19,1 22,-3 4,-5 3,-20 -1,-29l-73 -4c3,2 1,2 6,3l30 3c20,2 47,-5 34,25 -13,3 -55,1 -69,-1 -43,-5 -19,4 -65,2z"/>
   <path class="fil6" d="M137 742c-39,1 -28,5 -33,14l-22 -1c-2,-4 -4,-11 -6,-15 -4,-16 2,-3 -6,-11 -6,-7 -9,-29 -12,-40 -2,-10 -3,-7 -5,-22 -4,-42 -3,-35 25,-40 21,-4 -4,-15 46,-13 13,1 9,-3 14,-11 26,-2 54,-3 76,-7 4,-7 -2,1 2,-7 8,-1 12,0 18,-5 -23,0 -32,3 -51,9 -16,4 -34,4 -49,8 -26,7 -17,7 -45,13 -9,2 -13,7 -19,10 -7,2 -15,4 -21,6 -5,33 3,76 17,103 7,13 10,22 16,25 9,5 23,2 31,-4 15,-10 17,-6 24,-12z"/>
   <path class="fil2" d="M1115 1032c2,-3 9,-18 10,-23l13 -32c0,-1 1,-1 1,-2l9 -36c-15,2 -34,28 -39,40 -3,6 -2,9 -5,15 -4,7 -4,4 -4,16 -2,14 -1,24 15,22z"/>
   <path class="fil6" d="M1204 669c-14,9 -10,21 -12,16 -1,0 -1,1 -1,2 17,-3 2,-7 18,-13 9,-3 5,3 9,-5 4,-8 -4,-3 5,-10 3,-2 6,-1 10,-5 5,-5 -1,-3 5,-9 3,-3 5,-3 9,-6 5,-5 0,-2 6,-8 8,-3 96,-2 105,0 2,14 -1,2 -3,12 -1,3 -2,12 -2,16 -3,25 0,14 -7,28 -8,14 -5,44 -12,58l-8 26c-3,10 -2,23 -5,32 -4,19 -12,35 -12,58l34 -128c-1,-14 8,-38 11,-52 2,-9 2,-17 5,-27 7,-28 9,-29 -21,-28 -8,0 -17,0 -25,0 -27,0 -60,-5 -70,7 -5,6 -32,33 -39,36z"/>
   <path class="fil5" d="M550 154c12,-4 17,-13 33,-14 13,0 32,0 46,0 6,-1 24,-17 32,-22 25,-15 1,1 21,-15l-1 -7c-3,0 -10,0 -13,0 -12,3 -1,3 -11,6 -5,2 -6,0 -12,2 -8,4 1,3 -8,6 -7,2 -4,-1 -12,3 -7,4 1,1 -10,5 -14,4 -3,6 -24,7 -4,14 -33,13 -41,29z"/>
   <path class="fil0" d="M634 1321c0,10 -3,1 -2,11l-1 9c5,7 11,10 21,11 18,2 6,5 18,7 4,1 6,0 9,0 5,-7 3,-10 6,-18 3,-10 7,-6 2,-18 -10,-4 -35,-12 -46,-11 -1,2 -2,3 -3,5 -3,4 -1,1 -4,4z"/>
   <path class="fil7" d="M1037 101c2,12 -11,39 -13,48 -1,6 -1,12 -3,18 -9,5 -17,-2 -27,-3 -22,-3 -80,-16 -93,-13 7,7 46,8 60,13 10,3 52,10 64,7l23 -79c9,0 31,1 31,12 0,8 1,1 0,5 -6,19 -22,56 -18,74 9,5 40,14 53,14 -10,-9 -38,-12 -49,-18 0,-10 15,-59 18,-67 3,-16 -1,-17 -15,-21 -10,-3 -17,-5 -27,-4 0,12 -1,10 -4,14z"/>
   <path class="fil3" d="M1278 509c-13,-3 -11,-8 -21,-8 -7,0 -5,1 -7,2 -7,7 -7,57 -7,70 5,-7 10,-61 10,-68 11,1 16,5 27,11 7,4 18,9 25,12l-4 14c0,0 1,-1 1,-1 2,4 2,-15 22,-6 6,4 13,8 21,13 10,5 37,21 45,22 -10,-14 -46,-28 -63,-38 0,0 -1,0 -1,0l-9 -6c8,-27 37,-13 39,-13 -7,-6 -6,1 -7,-8 -1,-11 -2,-4 4,-8 4,-3 11,0 18,-7 -46,7 -9,16 -70,-11 -20,-8 -11,-8 -21,-8 5,12 42,20 52,30 -2,9 -3,5 -11,12 -20,16 -6,11 -43,-4z"/>
   <path class="fil5" d="M566 194c8,-3 5,-1 9,-8 -2,-3 -3,-4 -11,-3l-64 9c1,-5 0,-3 3,-9 -8,2 -7,2 -12,7l-11 8c-12,6 -12,11 -20,18 -9,8 -5,-1 -13,9l-7 6c-9,4 -11,10 -19,18 -17,16 -16,13 -23,21 -14,17 -4,1 -12,17 -9,15 -32,31 -28,39 6,-2 11,-10 17,-15l3 -1c16,-12 -8,-2 27,-35 10,-10 1,3 15,-15 8,-10 32,-25 47,-40 6,-6 11,-11 19,-15 0,-1 1,-1 1,-1 7,-3 5,0 9,-7 24,-2 47,-11 73,-10l-3 7z"/>
   <path class="fil5" d="M395 1236c11,3 5,4 21,17l67 53c-2,-8 -5,-8 -15,-16 -24,-19 -15,-9 -40,-33 -2,-2 -4,-4 -7,-6 -8,-7 -6,-8 -15,-14l-29 -29c-6,-5 -8,-9 -13,-15 -3,-3 -5,-4 -8,-7 -2,-3 -3,-5 -6,-8l-26 -33c-9,-10 -3,-7 -11,-18l-32 -51c-5,-10 -2,-1 -6,-9 -1,-2 -2,-5 -3,-8 -12,-4 -3,-1 -6,1 3,5 4,9 7,14 16,31 61,98 85,123 9,10 29,37 37,39z"/>
   <path class="fil0" d="M1168 1303c-3,8 1,3 -7,10 -7,6 -3,0 -8,9 10,1 45,-5 52,-10 7,-4 6,-4 13,-7 1,-16 -8,-15 -6,-33 0,-7 1,-6 -9,-5l-32 31c0,0 -1,0 -1,1l-2 4z"/>
   <path class="fil6" d="M777 951c-5,3 -3,2 -6,7l-6 19c-3,9 -7,12 -6,25 20,2 42,2 62,1 53,0 60,8 64,-27 2,-12 15,-44 20,-73 -8,5 -6,1 -9,23 -1,7 -3,7 -8,20 -10,24 -4,40 -11,45 -9,5 -95,5 -104,1 -3,-3 -2,0 -3,-5 0,-3 0,-4 0,-7 -1,-17 7,-9 7,-29z"/>
   <path class="fil7" d="M1423 878c11,-8 5,-12 10,-28l19 -88c1,-12 1,-24 2,-36 1,-13 4,-21 5,-31 1,-22 -2,-53 1,-72 7,-1 26,16 32,22 11,8 24,23 35,26 -6,-17 -39,-34 -54,-47 -13,-11 -19,-19 -19,8 0,39 -2,84 -6,123 -3,27 -25,110 -25,123z"/>
   <path class="fil5" d="M824 205c-6,10 -15,21 -23,30 -5,5 -6,10 -11,16 -4,5 -9,9 -10,18 12,-6 40,-51 50,-63l18 -20c14,-3 147,19 156,25l-14 56c-5,15 -17,47 -16,60l5 -8c1,-4 1,-8 2,-12l18 -60c3,-5 1,-2 5,-6l0 -9c2,-13 6,-13 3,-25 -21,-8 -120,-23 -149,-26 -17,-1 -15,9 -30,21 -3,3 0,1 -4,3z"/>
   <path class="fil7" d="M1345 797c7,-4 4,0 6,-12l31 -136c6,-16 12,-37 -1,-46l-96 -1c0,-10 12,-37 12,-48 -2,2 -6,4 -8,10 -1,5 -1,10 -2,15 -3,8 -11,20 -4,27 18,8 80,-5 97,3 8,7 -2,29 -4,48l-11 45c-3,9 -3,16 -6,24 -3,9 -4,7 -5,21 -2,18 -8,27 -9,50z"/>
   <path class="fil7" d="M335 552l-2 6 -86 1c0,-19 9,-35 14,-50 4,-11 9,-31 16,-41 2,-3 1,-1 3,-3l13 22c4,8 32,56 37,62 4,3 3,2 5,3zm-63 -81c-3,1 -1,-1 -4,3l-7 18c-2,4 -1,8 -4,13 -2,6 -3,3 -5,11 -2,7 0,6 -3,13l-9 26c-1,3 -1,1 -1,6 1,10 17,7 27,5 15,-3 39,-3 54,-3 27,0 23,-8 15,-11 0,-8 -8,-15 -12,-23 -5,-9 -8,-13 -12,-21l-18 -33c-2,-4 -3,-7 -4,-10 -9,-5 0,1 -6,-5 -3,-2 -1,-1 -5,-3 -4,5 -4,7 -6,14z"/>
   <path class="fil7" d="M808 1072c-3,10 -3,13 -6,23 -2,11 -6,4 -4,21 6,3 49,11 59,12 0,-1 -1,-2 -1,-2l-10 -5c-3,-1 -9,-2 -13,-3 -14,-2 -27,0 -28,-12 0,-10 6,-26 9,-37 10,1 42,17 55,22 4,1 7,2 12,4 29,12 93,15 126,9 8,-2 9,-2 12,-6 -52,-3 -83,18 -168,-21 -3,-1 -7,-2 -10,-4 -9,-3 -11,-5 -20,-7l-7 -2 -6 8z"/>
   <path class="fil5" d="M455 1082c-2,4 -1,3 -3,5 1,0 2,0 2,0 0,1 1,0 1,0 1,0 2,0 2,-1l11 -8c5,-4 6,-7 15,-6 7,14 8,53 10,72 1,10 10,39 12,71l-34 -15c0,0 -1,-1 -1,-1l-11 -5c-15,-7 -19,-3 -26,-18l-1 -3c0,0 0,-1 -1,-1l-13 -25c-7,-13 -4,-11 -9,-13 -1,9 16,38 21,49 4,7 35,21 44,24 12,1 24,13 35,13l-4 -39c1,-18 -8,-38 -9,-55 -1,-20 -1,-43 -9,-58 -18,-2 -21,7 -32,14z"/>
   <path class="fil3" d="M1597 778c-7,-11 -8,-11 -7,-29 0,-11 -1,-22 -1,-33 0,-21 -1,-43 -6,-60 -3,-10 -1,-20 -3,-30l-16 -67c-3,-9 0,-7 -7,-12 0,18 1,15 6,30 9,28 11,72 15,85 11,40 -12,115 19,116z"/>
   <path class="fil4" d="M1204 669c7,-3 34,-30 39,-36 10,-12 43,-7 70,-7 8,0 17,0 25,0 30,-1 28,0 21,28 -3,10 -3,18 -5,27 -3,14 -12,38 -11,52 9,-6 13,-42 15,-55 3,-17 20,-51 5,-56l-10 -2c-5,0 -8,0 -13,0l-77 1c-32,3 -26,14 -34,19 -6,5 -3,0 -8,7 -12,18 -14,2 -17,22z"/>
   <path class="fil2" d="M1404 537c9,-1 5,-1 8,-3l-8 -45c-13,0 -24,3 -38,7 -10,3 -9,3 -11,7 4,8 13,11 24,17 4,3 9,5 14,7 15,8 9,6 11,10z"/>
   <path class="fil4" d="M1143 835l9 1c4,-10 2,-11 11,-14 14,-5 5,-4 12,-13 3,-6 6,-2 13,-12 4,-4 7,-9 15,-7 4,12 -1,10 -4,18 -5,12 -7,28 -9,41 -2,11 -6,11 -7,17 -8,27 -7,33 -9,42 -4,15 -5,9 -8,17 -2,4 -3,19 -3,24 7,-9 5,-14 10,-25 5,-10 17,-72 23,-78 -1,-8 2,-12 3,-20 3,-12 20,-30 3,-48 -12,2 -24,19 -29,23l-18 17c-8,8 0,1 -9,13 0,1 -2,3 -2,3 0,-1 -1,1 -1,1z"/>
   <path class="fil3" d="M411 969c5,8 5,3 10,8 8,7 9,30 7,39 -13,1 -10,-5 -23,-8 7,11 18,10 22,16 4,13 0,31 3,45 2,9 10,32 22,18l-9 -1c-14,-12 -12,-41 -12,-62 18,1 19,9 37,16 2,1 4,1 5,2 7,4 2,1 6,5 7,0 5,1 10,3 7,3 4,4 12,1 -8,-6 -22,-10 -33,-16 -7,-3 -4,-3 -8,-5 -1,0 -21,-5 -25,-14l-3 -11c0,-5 0,-11 0,-17 17,0 25,14 41,14 -12,-22 -43,-1 -49,-46 -2,-15 -1,-17 -10,-23 0,18 7,21 6,37l-9 -1z"/>
   <path class="fil3" d="M623 194c10,-2 13,-15 31,-17 14,-1 31,-1 46,-1 14,-1 33,-1 48,0 8,1 10,2 20,3 9,0 18,-1 25,2 -3,14 -33,37 -35,54 8,-3 8,-6 12,-12 4,-5 8,-11 11,-15 29,-38 34,-39 -79,-37 -36,0 -50,-6 -67,9 -5,4 -11,6 -12,14z"/>
   <path class="fil2" d="M741 728c3,-7 8,-9 12,-13 5,-6 5,-9 12,-11 1,-13 6,-5 9,-21l-36 1c-9,2 -12,42 -12,51 13,-2 5,-3 15,-7z"/>
   <path class="fil5" d="M1447 392c16,18 15,19 25,39 0,0 0,1 1,1 1,3 2,4 2,4l12 26c4,9 7,2 7,12 -10,5 -12,1 -22,0 -9,-1 -17,1 -25,2l-7 -30c0,-1 -1,-5 -1,-6 -3,-8 2,-2 -4,-7l9 45 55 1c5,8 8,26 15,33 -2,-14 -6,-17 -9,-30 -3,-18 -8,-12 -9,-30l-7 -4c0,-18 -2,-7 -7,-19 -6,-15 -13,-21 -18,-33 -7,-13 -2,-8 -12,-17 5,9 4,4 6,15l-11 -2z"/>
   <path class="fil2" d="M1148 855l-7 11c1,15 -6,13 -4,27l23 1c5,-9 8,-16 10,-28 2,-11 7,-25 7,-35 -9,1 -14,11 -23,19l-4 4c-1,0 -1,1 -2,1z"/>
   <path class="fil6" d="M1526 907c9,1 16,1 25,0 31,-4 -2,-7 33,-13 21,-3 14,-9 26,-13 6,-1 13,-1 18,-3 15,-4 7,-13 32,-14 0,7 1,2 -1,7 -6,15 0,-11 -11,23 -10,33 1,14 -18,40 -5,6 -3,6 -7,12l-7 12c-9,13 -7,-7 -15,21 10,-3 4,-2 10,-9 5,-6 4,-1 8,-7 3,-5 0,-4 5,-10 6,-6 2,2 6,-9 3,-6 0,-3 5,-8 0,0 5,-4 5,-4 9,-8 7,-23 10,-23 4,-14 14,-35 12,-48 -18,-1 -23,3 -34,11 -11,7 -22,3 -34,12 -11,8 -15,5 -38,15 0,0 -4,2 -4,2 -12,5 -17,0 -26,6z"/>
   <path class="fil4" d="M989 932c-2,13 5,35 15,41 13,3 22,-17 22,-17 3,-3 7,-3 11,-7 6,-8 -2,-5 8,-11 11,-7 4,-1 9,-9 6,-8 6,-2 11,-9 8,-9 -1,-12 23,-15 2,-17 0,-6 6,-16 7,-11 -2,-4 12,-11 10,-6 3,-6 11,-13 10,-8 5,1 8,-14 9,-1 10,2 16,-10l2 -5c0,-1 1,-1 1,-2l-8 1c-1,6 -1,7 -6,10 -3,3 -2,1 -5,3 -8,6 -1,7 -12,14 -10,7 -3,3 -17,16 -6,5 -3,5 -7,10 -5,5 -4,1 -9,7 -5,6 0,3 -7,8 -6,5 -4,0 -9,7 -5,6 -1,4 -8,10 -18,13 0,5 -16,16l-18 17c-6,6 -5,12 -18,13l-15 -34z"/>
   <path class="fil6" d="M583 467c20,-6 13,-12 28,-18 27,-10 16,-15 66,-15 17,0 45,-1 57,8 5,3 2,3 8,6 5,2 8,2 12,5 10,6 5,10 19,14 -1,0 -1,-2 -1,-1 -1,2 -3,-11 -11,-16 -5,-2 -6,0 -10,-5 -4,-4 -1,-4 -4,-10 -13,0 -31,0 -42,-4 -9,-4 -7,-14 -37,-9 -7,1 -1,8 -19,10 -62,8 -19,7 -49,17 -9,3 -6,1 -16,16 0,1 -1,1 -1,2z"/>
   <path class="fil4" d="M915 875c3,-3 1,-1 4,-5l7 -11c7,-19 5,-36 16,-53 25,-4 7,25 19,42 14,19 12,64 27,76 -1,-29 -10,-36 -15,-62 -1,-7 -1,-9 -4,-15 -8,-16 -8,-28 -11,-45 -25,-9 -27,2 -30,24 -2,12 -13,35 -13,49z"/>
   <path class="fil3" d="M1016 332c-1,18 -10,28 -8,43 7,5 92,29 106,33 7,2 16,6 24,9 9,4 17,6 26,10 10,5 42,18 52,16l1 -72c-1,-8 -1,-8 -3,-10l-1 79 -200 -67c-3,-13 2,-13 5,-23 5,-21 15,-53 17,-67 -1,1 -1,2 -1,2 -10,17 -8,37 -18,47z"/>
   <path class="fil3" d="M1232 1235c8,-3 2,1 8,-5 19,-17 17,-37 46,-38 24,-2 78,-12 86,-12 -3,10 -42,46 -53,54 -8,6 -7,5 -9,10 9,-2 7,-2 13,-8l33 -30c0,0 0,0 1,-1l10 -10c5,-6 12,-9 12,-20 -20,-1 -31,2 -45,6 -13,3 -34,2 -48,4 -25,4 -18,5 -31,21 -8,9 -19,17 -23,29z"/>
   <path class="fil3" d="M962 1295c-6,3 -2,0 -6,4l-9 10c-6,5 -10,7 -10,18 16,6 87,6 111,6 26,0 29,-3 44,-15 9,-7 27,-18 32,-28 -6,2 -29,19 -35,24 0,0 -1,2 -2,2l-5 5c-1,0 -7,3 -8,4 -19,7 -107,-1 -131,-2 3,-16 15,-12 19,-28z"/>
   <path class="fil7" d="M1531 879c4,-4 1,0 5,-6 4,-6 4,-11 4,-18 1,-11 2,-16 5,-26 2,-7 11,-131 0,-145 -5,-6 -11,-12 -19,-14 12,23 17,-1 18,43 1,20 0,39 0,59 -2,46 -5,43 -8,81 -1,14 -7,12 -5,26z"/>
   <path class="fil3" d="M765 1301c3,4 5,3 13,4 5,1 10,2 16,4 13,3 86,15 93,13 9,-2 68,-67 72,-85 -7,4 0,-2 -7,6 -12,15 -54,69 -65,73 -12,5 -109,-19 -122,-15z"/>
   <path class="fil3" d="M1166 631c13,0 18,-3 32,-2 2,24 -11,30 -14,38 8,-3 9,-5 13,-13 2,-6 1,-5 3,-9l3 -6c1,-1 1,-2 2,-3l14 0 9 -11c-6,1 -2,0 -9,3 -30,9 -13,-26 -10,-67 2,-15 2,-28 4,-43 0,-8 2,-10 3,-19 0,-11 2,-16 -7,-19 3,12 -9,128 -13,144 -12,5 -20,-2 -30,7z"/>
   <path class="fil7" d="M1016 332c10,-10 8,-30 18,-47 0,0 0,-1 1,-2 0,-6 7,-28 9,-31 5,-11 2,-20 8,-32 7,-1 23,3 31,6 10,3 22,6 30,9l61 19c-8,-11 -17,-9 -28,-14 -8,-3 -7,-3 -16,-5 -10,-3 -6,-3 -16,-6 -80,-21 -61,-25 -73,12l-25 91z"/>
   <polygon class="fil2" points="1191,1180 1189,1172 1185,1166 1145,1165 1144,1190 1190,1190 "/>
   <path class="fil3" d="M1190 1095c3,6 1,7 14,11 12,3 32,17 54,1 11,-9 12,-12 19,-27 15,-33 -10,-45 40,-40 2,13 -7,12 -9,26 10,-2 16,-18 14,-30 -12,-2 -30,-3 -40,1 -5,13 -3,84 -59,69 -21,-5 -25,-10 -33,-11z"/>
   <path class="fil5" d="M345 296c9,-4 0,1 5,-3l63 -64c4,-5 10,-9 14,-14l20 -19c13,-7 3,5 20,-13 4,-5 7,-7 11,-12 -16,4 -60,44 -72,56 -18,18 -12,10 -34,35 -1,0 -1,1 -2,1 -8,10 -21,23 -25,33z"/>
   <path class="fil7" d="M474 1207l0 3c5,2 28,13 34,17l2 29c-17,-2 -12,-7 -29,-8 -1,1 -1,1 -2,2 0,0 0,1 -1,2l-2 5 -29 -24c-5,-3 2,1 -6,-2 4,8 3,4 11,12l29 25c10,2 0,0 8,2 1,1 1,1 4,2 -2,-10 -7,-7 -10,-20 17,2 11,8 31,8l-1 -34 6 0c-1,0 -1,-1 -1,-2l-5 -8c-2,-11 2,-31 -8,-35l4 39c-11,0 -23,-12 -35,-13z"/>
   <path class="fil7" d="M1125 537c16,-1 34,-11 49,-10 10,22 11,46 -15,54l-42 14c-11,3 -13,4 -22,8 -11,5 -26,26 -11,35l0 -21c11,-6 11,-11 30,-17 13,-4 24,-7 36,-11 48,-17 34,-41 30,-59l-3 -6c-12,-2 -50,3 -52,13z"/>
   <path class="fil3" d="M1280 471l-12 -7c-8,-3 -8,-2 -12,-9 -3,-7 -2,-74 -2,-88 0,-30 -8,-53 -8,-81 11,1 11,5 25,7 -2,-4 -32,-26 -29,0l4 41c3,40 5,68 4,108 0,12 -1,18 8,22 7,4 15,8 22,7z"/>
   <path class="fil6" d="M791 492c3,5 1,5 8,7l36 0c11,1 39,6 44,-2 7,-8 2,-36 -3,-46l-20 -36c-5,-11 -2,-3 -9,-12 0,0 0,-1 -1,-1l-2 -4c-3,-3 3,0 -6,-4l2 12c12,6 9,6 21,26 6,9 5,5 9,14 4,13 2,10 4,21 6,33 10,27 -39,27 -17,0 -29,1 -44,-2z"/>
   <path class="fil7" d="M903 76c-2,4 -30,24 -35,29 -6,5 -33,30 -34,35 9,4 6,-3 21,-15 9,-8 13,-14 20,-20 9,-8 14,-12 22,-18l22 -16c22,-1 31,2 50,4 -3,7 -2,3 -8,6l-30 17c-7,6 -2,0 -4,6 8,0 2,2 9,-3 3,-2 7,-5 9,-6 5,-4 14,-9 19,-9 10,-10 10,-1 11,-15 -7,-1 -51,-5 -58,-4 -7,3 -3,5 -14,9z"/>
   <path class="fil3" d="M1433 379c2,9 -2,3 6,9 4,3 3,0 8,4l11 2c-2,-11 -1,-6 -6,-15 -4,-12 -40,-59 -50,-69 -6,-6 -9,-5 -13,-13 -4,-10 -15,-23 -25,-27 4,9 7,9 11,15 16,26 3,20 27,35 12,7 45,56 47,64 -9,0 -9,-3 -16,-5z"/>
   <path class="fil7" d="M705 1089c6,5 56,22 55,11 1,-13 13,-47 17,-57l10 2c-7,-8 -6,-7 -4,-19 -9,-4 -1,0 -5,5 -1,1 -1,1 -1,2 -4,4 2,0 -4,4 -10,-4 -3,-1 -6,-6 -6,-4 -9,-8 -14,-10 -9,-3 -8,-1 -16,-5 -2,-20 4,-22 -6,-19 0,6 -1,15 1,20l3 3c8,9 23,1 37,23 -1,2 -7,24 -8,27 -7,19 -3,-15 -7,29l-26 -5c-12,-3 -11,-8 -26,-5z"/>
   <path class="fil3" d="M409 1134c0,-10 -9,-24 -13,-34l-22 -70c-2,-8 -1,-11 -4,-19 -2,-8 -4,-10 -4,-20 11,2 16,11 30,13l-2 -7c-5,1 0,1 -7,-2 -2,-1 -25,-17 -26,-7 0,1 0,1 0,2 -1,6 0,6 2,14 7,34 16,64 29,96 2,7 5,10 7,18 1,4 1,6 3,10 3,5 5,5 7,6z"/>
   <path class="fil7" d="M824 205c4,-2 1,0 4,-3 15,-12 13,-22 30,-21 29,3 128,18 149,26 3,12 -1,12 -3,25 6,-5 6,-4 7,-12 4,-21 -7,-21 -21,-22 -13,-1 -58,-13 -80,-14 -31,-1 -57,-19 -72,2 -5,6 -11,11 -14,19z"/>
   <path class="fil7" d="M968 1082c8,-2 2,0 6,-2 1,0 4,-2 5,-2 20,-8 52,-10 58,9 -4,9 -6,7 -10,9 -4,2 -4,2 -6,3l18 -1c-2,14 -7,14 -8,26 4,-3 4,-1 8,-9l14 -26c5,-8 15,-30 16,-38 -9,4 -17,28 -20,37 -7,-2 -2,0 -6,-4 -1,-1 -3,-3 -3,-4 -22,-25 -70,-9 -72,2z"/>
   <path class="fil3" d="M1531 572c-3,26 13,36 7,56 -8,-1 -4,1 -10,-5 -2,-6 -37,-30 -47,-38 -7,-4 -21,-13 -24,-19 -2,-5 -5,-31 -5,-37l-4 0c0,16 -1,35 8,44 2,3 4,3 6,5l37 26c20,15 30,30 45,29 0,-2 -3,-31 -3,-34l-3 -5c0,0 0,-1 0,-1 0,-1 -2,-7 -2,-7 -2,-8 0,-8 -5,-14z"/>
   <path class="fil7" d="M478 1001c2,8 0,6 9,9l20 9c2,1 2,1 5,1 8,-1 6,-9 6,-17l7 -102c-7,-4 -21,-10 -30,-10l5 4c0,1 1,1 1,1 27,17 18,-12 15,43 -1,20 0,57 -4,75 -9,0 -8,-1 -15,-5l-19 -8z"/>
   <path class="fil3" d="M236 736c-6,-3 -13,-1 -18,1 -9,21 2,45 1,69l1 3c1,17 -1,3 5,9 0,-27 -7,-48 -5,-74 11,-6 68,-14 83,-11l-1 44 2 -3c5,-11 5,-35 0,-44 -14,-3 -53,2 -68,6z"/>
   <path class="fil5" d="M272 471c2,-7 2,-9 6,-14 4,2 2,1 5,3 6,6 -3,0 6,5l-4 -10c8,-13 -7,8 3,-3 9,-11 -1,-2 8,-19 4,-6 1,-4 4,-10 1,-1 1,-1 1,-2l6 -11c4,-9 6,1 7,-16 18,-2 14,-4 15,-7l-10 0 0 -8c-5,4 -4,2 -8,9l-6 8c-2,4 0,5 -5,10 -5,6 -4,-2 -4,12l-8 3c-1,20 -3,9 -7,20 -1,5 1,3 -2,8 -3,4 -3,-1 -7,10 -3,10 3,6 -6,10l0 11c1,-4 1,-4 2,-6 1,-2 -7,-1 4,-3z"/>
   <path class="fil7" d="M956 550l32 -100c2,-12 5,-27 10,-35 16,-2 47,13 68,14 -10,-12 -23,-7 -35,-14l-34 -9 -27 87c-2,8 -4,8 -6,18 -3,14 -8,23 -8,39z"/>
   <path class="fil6" d="M1102 772c-12,2 -8,3 -14,11 -4,4 -6,4 -10,10 -7,11 -2,4 -11,10 -7,5 -4,5 -8,12l-13 0c-15,-22 -5,-25 -17,-44l-2 -3c-4,-9 0,-6 -8,-10 1,3 2,12 3,16 2,6 4,6 6,13 4,10 4,22 8,30 35,10 24,-4 36,-11 10,-6 4,1 11,-9 4,-6 13,-11 19,-25z"/>
   <path class="fil2" d="M599 1304c1,4 16,33 20,34 7,3 5,-1 13,-6 -1,-10 2,-1 2,-11l-1 -11c-8,-5 -8,-3 -16,-6 -8,-3 -3,-6 -17,-5l-1 5z"/>
   <path class="fil2" d="M543 1303c8,2 5,3 13,5 -1,-5 -4,-13 -6,-18 -2,-6 0,-1 -3,-6 -6,-10 -3,-2 -4,-10 -16,0 -8,-6 -26,-6 0,15 -1,16 8,24 5,5 11,10 18,11z"/>
   <path class="fil7" d="M826 1368c-3,4 1,2 -6,6 -2,1 -3,2 -6,3 -4,2 -7,4 -13,5 -2,3 -4,5 -5,9l7 7c11,-1 27,2 37,2 11,0 10,-2 12,-4 -11,0 -37,1 -47,-5 2,-9 -1,-2 4,-7 3,-3 9,-3 19,-11 21,-17 20,-3 19,-23 -23,-7 -49,-3 -56,-11l-10 2c13,11 31,4 59,14 -2,7 -5,11 -14,13z"/>
   <path class="fil5" d="M1084 638c5,13 28,4 40,5l1 -5 -36 0c-10,-20 6,-26 21,-32 4,-2 4,-3 9,-4 24,-7 19,-9 35,-9 7,-9 8,-5 16,-10 15,-10 25,-28 17,-46 -4,-8 -4,0 -5,-6 -1,-1 -1,-1 -2,-1 4,18 18,42 -30,59 -12,4 -23,7 -36,11 -19,6 -19,11 -30,17l0 21z"/>
   <path class="fil3" d="M942 453c5,-4 9,-30 12,-38 3,-8 3,-6 3,-15 -10,-4 -14,-6 -26,-8 -10,-2 -16,-3 -27,-6l-60 -10c10,13 79,13 107,27 -2,22 -13,34 -9,50z"/>
   <path class="fil5" d="M1168 1303c-7,2 -14,7 -18,12 -3,5 -1,4 -3,9 26,3 24,-6 36,-2 4,1 3,1 6,3 -3,9 -3,4 -9,11 10,-3 9,-5 17,-9 9,-4 36,-21 42,-28 -6,4 -7,6 -16,5 -3,-10 -10,-19 -9,-30l2 -2 -4 0c-2,18 7,17 6,33 -7,3 -6,3 -13,7 -7,5 -42,11 -52,10 5,-9 1,-3 8,-9 8,-7 4,-2 7,-10z"/>
   <path class="fil3" d="M990 1010c2,14 13,27 31,23 18,-5 68,-85 71,-94 -9,5 -7,5 -12,13l-45 63c-8,10 -12,15 -30,14 -4,-3 -7,-14 -15,-19z"/>
   <path class="fil8" d="M1219 628c7,-3 3,-2 9,-3 1,-1 7,-8 8,-9 4,-4 3,-6 4,-13 1,-11 5,-19 3,-30 0,-13 0,-63 7,-70 2,-1 0,-2 7,-2 10,0 8,5 21,8 -1,-1 -1,-1 -2,-2 0,0 -1,-1 -1,-1l-5 -4c-8,-6 -15,-7 -25,-6 -5,19 -2,53 -6,72 -6,24 -1,34 -9,46 0,0 -1,0 -1,1 0,0 -1,1 -1,1 -6,7 -5,4 -9,12z"/>
   <path class="fil5" d="M396 838c-1,-11 -6,-29 -1,-38 6,2 5,7 14,20 11,16 39,48 58,53 -3,-8 -11,-10 -21,-18 -7,-6 -12,-13 -19,-19 -33,-36 -15,-42 -36,-43 -3,8 -2,14 -2,25 0,26 1,21 7,20z"/>
   <path class="fil3" d="M592 727c-9,9 -4,15 -11,25 -9,0 -15,-5 -21,-12 -13,-14 16,-79 17,-100 -9,3 -9,10 -10,19l-15 76c2,12 23,23 23,23 7,2 1,0 6,0 0,0 1,1 2,0 0,0 11,-9 9,-31z"/>
   <path class="fil5" d="M784 1166l7 -8c11,-1 24,2 35,6 6,2 11,0 15,4 7,6 4,9 12,9 0,-5 4,-3 -2,-5 -7,-2 -4,4 -7,-8 8,-7 12,-3 33,0 -6,-4 -34,-9 -41,-10 -3,-1 -12,-12 -35,-13 7,9 13,2 22,11 0,0 1,1 1,2 -18,12 -35,-20 -40,12z"/>
   <path class="fil2" d="M787 1045l1 0c12,2 9,3 18,9 7,-6 10,-19 9,-26 -6,-3 -25,-1 -32,-2 -2,12 -3,11 4,19z"/>
   <path class="fil7" d="M1125 638l-1 5c21,0 46,-13 69,-10 2,38 -35,43 -43,66 7,-3 14,-11 20,-17 5,-5 11,-9 14,-15 3,-8 16,-14 14,-38 -14,-1 -19,2 -32,2 -11,-1 -31,7 -41,7z"/>
   <path class="fil3" d="M758 713c-7,3 0,-1 -7,4 -2,1 -1,1 -3,3 -4,4 -3,4 -7,8 -3,5 -9,11 -16,12 -5,-13 1,-49 8,-59 9,-4 15,-2 25,-2 10,0 15,-2 22,3 -3,15 -8,4 -11,20 8,-5 15,-12 14,-24 -10,-3 -39,-3 -52,-2 -10,13 -14,48 -8,68 10,0 31,-21 35,-31z"/>
   <path class="fil3" d="M774 507c1,8 7,11 14,14 10,3 10,5 15,14 4,8 13,28 21,33l4 1c1,1 1,1 2,1 15,8 7,0 35,12 10,4 3,4 14,6l-7 -7c-31,-18 -36,2 -56,-32 -7,-11 -10,-22 -19,-31 -7,-6 -10,0 -17,-8 -5,-6 -1,-12 -11,-16 5,8 4,3 5,13z"/>
   <path class="fil3" d="M403 523c-5,5 -7,12 -9,18 -3,5 -3,11 -5,19l-32 -1c-1,-11 1,-11 5,-19 2,-6 3,-11 4,-19 -10,7 -15,33 -14,43 15,2 36,7 42,-7 0,0 2,-4 2,-4 4,-21 8,-13 7,-30z"/>
   <path class="fil7" d="M1288 261c-3,-4 0,-3 -6,-6 -2,-1 -7,-3 -9,-4l-32 -14c-8,-4 -10,-3 -9,-13l-11 -32c-2,-5 -4,-7 -6,-14l-8 -15c0,12 9,26 12,38 14,48 5,31 38,49 9,4 20,10 31,11z"/>
   <path class="fil7" d="M1277 203c7,4 40,54 40,54 4,4 -1,2 6,4 -5,-13 -17,-24 -18,-32 -6,-5 -12,-13 -16,-20 7,2 2,0 8,4 9,5 9,7 12,12l5 -1c-2,-5 2,0 -4,-6 -1,-2 -3,-3 -5,-5 -5,-3 -8,-5 -11,-9 -6,-2 -5,-2 -10,-6 -4,-2 -4,-3 -10,-4l3 9z"/>
   <path class="fil7" d="M741 728c-10,4 -2,5 -15,7 0,-9 3,-49 12,-51l36 -1c-3,16 -8,8 -9,21l4 -2c3,-16 8,-5 11,-20 -7,-5 -12,-3 -22,-3 -10,0 -16,-2 -25,2 -7,10 -13,46 -8,59 7,-1 13,-7 16,-12z"/>
   <path class="fil7" d="M913 554c1,-1 1,-2 2,-2 8,-13 19,-63 26,-86 2,-9 3,-4 1,-13 -2,1 -1,0 -4,5 0,0 -2,6 -2,6l-10 37c-4,13 -13,38 -13,53z"/>
   <path class="fil0" d="M1144 1153l36 1c-7,-27 -38,-24 -36,-1z"/>
   <path class="fil7" d="M598 569c9,-4 5,-11 15,-31 3,-6 2,-8 4,-14 4,-13 15,-33 18,-49 -7,4 -5,2 -8,11 -3,7 -3,6 -5,12 -7,17 -24,57 -24,71z"/>
   <path class="fil3" d="M766 1219c-1,8 -2,10 -5,17 -2,7 -3,13 -5,20 -4,13 -11,29 -8,41 0,1 1,1 1,1 8,6 9,5 16,3 -4,-5 -6,-4 -12,-8 -1,-16 14,-49 19,-83l-6 9z"/>
   <path class="fil7" d="M1327 888c0,0 -5,3 9,3 5,0 9,0 15,0 9,1 18,1 28,2 8,-3 11,-19 13,-29 2,-11 6,-28 7,-39l-8 14c-1,5 -1,12 -2,18 -2,9 -5,8 -6,15 -3,13 2,18 -18,17l-38 -1z"/>
   <path class="fil5" d="M1404 537c-8,-1 -14,-7 -22,-9 3,9 0,4 9,8 10,5 18,10 28,10 2,-12 -4,-42 -3,-59 7,-2 5,0 12,-5 -24,0 -21,0 -17,20 3,11 5,27 3,39 -8,-1 -6,2 -10,-4z"/>
   <path class="fil7" d="M350 1094c7,2 4,8 7,16 2,6 4,9 7,15 7,20 5,13 8,37 1,1 4,5 6,7 5,5 2,3 7,5 -1,-5 1,-2 -2,-6 -10,-17 -2,-7 -5,-20 -1,-6 -16,-32 -20,-49l-10 -23 2 18z"/>
   <path class="fil7" d="M1386 398c2,-13 -3,-15 -6,-25 -9,-28 -16,-47 -48,-54 7,14 22,9 29,21 2,3 5,9 6,11l13 36c3,7 2,7 6,11z"/>
   <path class="fil7" d="M452 1087c2,-2 1,-1 3,-5l-13 1c-5,-9 -6,-42 -6,-54 16,3 27,13 43,18 -4,-4 1,-1 -6,-5 -1,-1 -3,-1 -5,-2 -18,-7 -19,-15 -37,-16 0,21 -2,50 12,62l9 1z"/>
   <path class="fil5" d="M1144 1153c-2,-23 29,-26 36,1l-36 -1zm32 -17c-13,-2 -1,-2 -11,-5 -3,-2 -27,-2 -25,27l44 1c0,-16 -6,-12 -8,-23z"/>
   <path class="fil3" d="M760 1100l6 -14c2,-5 2,-6 4,-13 1,-9 5,-20 9,-26 9,2 20,13 30,16l-1 9 6 -8 7 2c-3,-7 -3,-12 -2,-21 -6,5 -2,0 -6,8 0,0 -2,5 -2,5 -9,-1 -18,-7 -23,-13l-1 0 -10 -2c-4,10 -16,44 -17,57z"/>
   <path class="fil3" d="M767 1031c3,5 -4,2 6,6 6,-4 0,0 4,-4 0,-1 0,-1 1,-2 4,-5 -4,-9 5,-5 4,-7 29,-4 36,-2 2,6 -1,13 -1,22 2,-3 1,-1 3,-5 15,-28 -8,-27 -32,-24 -9,1 -13,9 -16,15l-6 -1z"/>
   <path class="fil8" d="M394 997l2 7c7,2 1,3 9,4 13,3 10,9 23,8 2,-9 1,-32 -7,-39 -5,-5 -5,0 -10,-8 -5,-3 -6,-5 -16,-7 2,5 -2,4 2,4l12 9c7,3 8,1 11,8 5,7 7,22 5,29l-31 -15z"/>
   <path class="fil7" d="M901 151c-1,-4 4,-2 -7,-3 -2,-1 -5,-1 -8,-1 0,-10 23,-26 31,-32 13,-10 8,-4 10,-11 -10,1 -48,34 -49,44 7,4 14,6 23,3z"/>
   <path class="fil7" d="M1048 776c-1,20 12,12 17,9 2,-4 20,-21 25,-25 8,-8 22,-18 26,-29 -7,3 -25,21 -31,28 -7,7 -20,22 -29,26 -4,-3 -5,-6 -8,-9z"/>
   <path class="fil3" d="M1379 893c-10,-1 -19,-1 -28,-2 -6,0 -10,0 -15,0 -14,0 -9,-3 -9,-3 0,-15 6,-28 6,-41l-5 10c-2,4 -3,8 -4,11 -1,7 -3,18 -2,24 10,3 31,4 43,4 2,0 7,0 9,-1 5,-1 2,0 5,-2z"/>
   <path class="fil7" d="M1173 212c-11,0 -26,-9 -38,-11 4,10 4,4 26,13 5,3 26,9 31,8 2,-9 1,-16 -8,-22l2 15c-5,0 -3,1 -8,0 -5,-2 -2,-1 -5,-3z"/>
   <path class="fil8" d="M239 889c1,0 1,0 2,1 0,1 1,1 1,1 1,1 2,2 3,3 -1,-8 -3,-20 -5,-29 14,3 14,13 29,18 -3,-10 -10,-9 -13,-16 -8,-3 -6,-3 -12,-7 -10,-8 -13,-4 -11,5 2,7 4,3 6,24z"/>
   <path class="fil8" d="M783 1026c7,1 26,-1 32,2 1,7 -2,20 -9,26 -9,-6 -6,-7 -18,-9 5,6 14,12 23,13 0,0 2,-5 2,-5 4,-8 0,-3 6,-8l-1 1c0,-9 3,-16 1,-22 -7,-2 -32,-5 -36,2z"/>
   <path class="fil7" d="M556 944c1,-2 1,0 3,-6 2,-6 1,-16 5,-24 13,-3 59,3 65,-8 -12,0 -24,4 -38,4 -13,0 -20,-2 -31,2 -2,14 -4,18 -4,32z"/>
   <path class="fil5" d="M1089 1005l-10 23c-5,9 -9,17 -10,23 9,1 -8,8 5,-1 4,-3 6,-11 8,-15 3,-7 4,-11 8,-18 7,6 -3,8 13,18l-2 -3c-7,-8 -6,-5 -7,-12 -1,-6 2,-11 2,-19 -2,1 -4,2 -7,4z"/>
   <path class="fil7" d="M437 1227c-3,-9 -21,-22 -26,-29 -4,-4 -9,-10 -12,-13 -11,-15 -9,-10 -14,-11 2,7 5,10 11,16 5,4 8,7 13,12 8,9 17,21 28,25z"/>
   <path class="fil7" d="M1043 775l5 1c1,-12 -2,-9 -5,-17l-16 -43c-4,-10 -2,-3 -6,-6 1,5 3,14 5,19 4,8 3,6 6,15 1,4 11,28 11,31z"/>
   <path class="fil6" d="M812 774c34,-4 19,9 14,33 8,-5 16,-20 14,-33 -13,-7 -18,-15 -28,0z"/>
   <path class="fil7" d="M645 455c-6,2 -7,4 -10,8l-1 8c1,0 2,-2 2,-1 1,2 3,-9 16,-14 7,-2 16,-4 25,-3 -1,11 -9,14 -14,36 4,-3 3,-1 7,-8 4,-11 11,-22 9,-30 -10,-3 -24,1 -34,4z"/>
   <path class="fil7" d="M750 499l-3 -22c16,4 16,21 27,30 -1,-10 0,-5 -5,-13l-4 -7c-7,-10 -13,-17 -24,-18l3 23c4,11 1,3 6,7z"/>
   <path class="fil7" d="M740 864c15,1 3,-7 18,-4l3 27c2,7 3,6 6,9 0,-13 -2,-33 -6,-43 -8,0 -14,0 -21,11z"/>
   <path class="fil7" d="M543 1303l1 5c5,3 10,6 18,6 1,-13 -3,-12 -6,-23 -2,-9 -5,-14 -13,-17 1,8 -2,0 4,10 3,5 1,0 3,6 2,5 5,13 6,18 -8,-2 -5,-3 -13,-5z"/>
   <path class="fil3" d="M645 455c10,-3 24,-7 34,-4 2,8 -5,19 -9,30 -4,7 -3,5 -7,8l-2 13c8,-6 4,-3 8,-13 2,-5 4,-8 6,-14 4,-10 9,-14 7,-28 -8,0 -13,0 -21,1 -21,2 -13,1 -16,7z"/>
   <path class="fil8" d="M725 1363c11,-11 0,-12 13,-29 14,-1 12,3 24,3 0,-1 0,-4 -2,-6 -12,-2 -13,-4 -27,0 -8,9 -3,18 -10,23l2 9z"/>
   <path class="fil5" d="M1439 320c-2,-9 -1,-6 -6,-14 -7,-10 -15,-23 -26,-28 3,8 2,4 6,12l18 25c7,7 1,2 8,5z"/>
   <path class="fil7" d="M1129 1289c10,-4 17,-12 24,-20 4,-4 6,-6 11,-10 8,-6 10,-4 10,-13 -9,3 -17,14 -24,20 -11,10 -20,16 -21,23z"/>
   <path class="fil8" d="M1196 1184c-1,-1 -2,-2 -2,-1 0,0 -1,-1 -1,-1 -1,0 -2,-1 -2,-2l-1 10 -46 0 1 -25 40 1 4 6c-2,-11 -6,-9 -18,-9 -8,0 -21,-2 -26,2 -2,3 -3,22 -1,26 7,2 21,1 29,1 15,0 18,4 23,-8z"/>
   <path class="fil5" d="M1338 209c-5,-8 -8,-11 -15,-17 -7,-6 -9,-11 -19,-10 3,12 19,18 23,21 6,4 -1,3 11,6z"/>
   <path class="fil3" d="M439 439c9,-2 5,-3 9,-11 3,-6 3,-4 6,-12 4,-10 10,-15 13,-25 -8,1 -6,3 -10,10 -2,4 -4,7 -6,11 -6,9 -8,14 -12,27z"/>
   <path class="fil3" d="M1406 276c-2,-4 -3,-6 -6,-10l-51 -50c-6,-4 -3,-4 -11,-7l68 67z"/>
   <path class="fil3" d="M1239 1299c4,-1 5,0 5,-6l-19 5 -11 -24c-1,11 6,20 9,30 9,1 10,-1 16,-5z"/>
   <path class="fil7" d="M1314 272c0,0 -1,9 18,10 1,-7 -2,-15 -4,-17 -4,-5 0,-2 -6,-4l3 12 -11 -1z"/>
   <path class="fil7" d="M1159 141l-2 -11c12,1 6,1 17,6 -4,-10 -15,-13 -25,-14 1,7 2,11 6,15l4 4z"/>
   <path class="fil7" d="M1419 387c0,-10 -1,-5 -2,-14 5,1 7,1 11,2 -3,-9 -5,-8 -15,-8 -2,7 -3,6 -1,13 2,6 3,5 7,7z"/>
   <path class="fil5" d="M321 328c20,-19 20,-15 20,-29 -8,6 -18,19 -20,29z"/>
   <path class="fil5" d="M1304 182c-1,-4 0,-2 -3,-5 -1,-2 -4,-4 -6,-5 -5,-4 -6,-6 -14,-8l0 7c12,5 3,4 17,9 4,2 1,1 6,2z"/>
   <path class="fil7" d="M256 913c-6,-11 -10,-5 -11,-19 -1,-1 -2,-2 -3,-3 0,0 -1,0 -1,-1 -1,-1 -1,-1 -2,-1l3 21 14 3z"/>
   <path class="fil5" d="M1065 785c-5,3 -18,11 -17,-9l-5 -1c1,8 2,15 9,18 7,3 11,-1 13,-8z"/>
   <path class="fil7" d="M1312 272c-3,-8 -1,-3 -9,-7 -5,-3 -6,-4 -13,-4l2 5c7,3 12,6 20,6z"/>
   <path class="fil3" d="M304 348c8,-3 0,1 5,-2 0,0 4,-4 4,-4 5,-5 5,-4 6,-13 -4,2 -2,0 -5,3 0,0 -3,4 -4,5 -3,4 -4,5 -6,11z"/>
   <path class="fil3" d="M803 1398l-7 -7c1,-4 3,-6 5,-9 -5,2 -13,9 -15,14l17 2z"/>
   <path class="fil8" d="M1305 229c-7,-7 -2,-1 -6,-10 6,3 0,0 6,3 0,1 1,1 1,2 1,0 2,1 3,1 -3,-5 -3,-7 -12,-12 -6,-4 -1,-2 -8,-4 4,7 10,15 16,20z"/>
   <path class="fil7" d="M363 732c2,9 -2,7 10,8 -1,-5 1,-5 -2,-8 -6,-5 -8,0 -8,0z"/>
   <path class="fil7" d="M1331 239c-3,-6 0,-2 -3,-5l-14 -10c1,7 -2,2 6,9 4,4 4,4 11,6z"/>
   <path class="fil7" d="M741 728c4,-4 3,-4 7,-8 2,-2 1,-2 3,-3 7,-5 0,-1 7,-4 5,-2 6,-4 7,-9 -7,2 -7,5 -12,11 -4,4 -9,6 -12,13z"/>
   <path class="fil3" d="M251 938c2,-6 5,-12 -4,-13 0,8 -2,9 4,13z"/>
   <path class="fil8" d="M1205 1206c5,-1 8,-3 8,-9 -8,0 -11,0 -8,9z"/>
  </g>
 </g>
</svg>
