<?xml version="1.0" encoding="UTF-8"?>
<!DOCTYPE svg PUBLIC "-//W3C//DTD SVG 1.1//EN" "http://www.w3.org/Graphics/SVG/1.1/DTD/svg11.dtd">
<!-- Creator: CorelDRAW X7 -->
<svg xmlns="http://www.w3.org/2000/svg" xml:space="preserve" width="26.0868cm" height="7.7296cm" version="1.1" style="shape-rendering:geometricPrecision; text-rendering:geometricPrecision; image-rendering:optimizeQuality; fill-rule:evenodd; clip-rule:evenodd"
viewBox="0 0 15918 4716"
 xmlns:xlink="http://www.w3.org/1999/xlink">
 <defs>
  <style type="text/css">
   <![CDATA[
    .fil1 {fill:black}
    .fil0 {fill:#8EC541}
   ]]>
  </style>
 </defs>
 <g id="Layer_x0020_1">
  <metadata id="CorelCorpID_0Corel-Layer"/>
  <g id="_2506619055872">
   <path class="fil0" d="M6491 4144c-120,410 -806,371 -817,-138l160 8c42,109 43,208 179,247 124,35 249,-20 279,-113 64,-52 31,-34 79,-99l127 7 -7 88zm2050 -390c-29,-77 -29,-71 -13,-124 89,-33 156,-12 250,16 146,26 264,226 248,431 -15,180 -155,331 -320,371 -420,103 -684,-361 -420,-725 177,37 65,282 64,291 -16,151 81,244 216,247 278,8 358,-397 -10,-455l-15 -52zm-1945 -1189c-151,114 -119,242 -117,321 -96,12 -203,9 -302,12 -105,3 -177,-23 -206,76 -26,286 -195,275 -295,343 -93,64 -239,207 -287,351 24,126 27,31 49,115 14,55 7,56 -3,110 -59,4 -122,1 -165,33 26,99 36,49 162,76 43,232 32,312 192,476 257,263 650,265 915,25 178,-162 167,-302 218,-425 633,-32 880,106 890,-280 14,-532 18,-265 252,-386 82,-42 58,-91 150,-140 60,42 125,182 151,245 -50,80 -442,405 -144,874 419,658 1467,100 1112,-633 -226,-466 -629,-337 -810,-334 -33,-61 -89,-163 -105,-251l76 -30c55,-19 16,18 57,-22 43,-42 22,-347 13,-405 -100,-27 -230,54 -378,57l-27 -149c-72,-23 -185,-47 -240,-82 -83,-53 -493,-353 -532,-434 300,-40 408,-355 179,-527 -107,-80 -499,-158 -448,365 -82,51 -74,48 -117,145 -27,62 -54,102 -81,154 -53,106 -106,209 -159,320zm-268 1359c-89,-122 -83,-150 0,-273 97,34 170,155 178,285l-178 -12zm-641 -24c10,-209 240,-343 462,-333 17,195 -39,180 -163,231 -161,67 -23,134 -299,102zm1410 -1003c-50,-106 -87,-134 -20,-271l112 -231 342 161c45,20 322,124 333,155 30,83 -93,62 -158,64 -290,7 -439,113 -609,122z"/>
   <path class="fil1" d="M3693 2212c527,-102 609,330 609,788 0,439 49,968 -367,1051 -562,112 -627,-325 -627,-792 1,-462 -63,-959 385,-1047zm-1077 1369c41,413 210,726 469,898 270,181 743,249 1135,135 765,-223 846,-1020 766,-1933 -72,-817 -725,-1266 -1598,-1028 -350,96 -574,323 -693,663 -99,285 -113,927 -79,1265z"/>
   <path class="fil1" d="M14957 3129c141,-240 341,-490 503,-724 82,-118 471,-621 457,-732l-162 -8c-491,0 -541,-55 -653,123 -117,184 -787,1187 -828,1208 -21,-304 40,-1104 -19,-1318 -200,-23 -462,-33 -657,4 -41,141 -17,1948 -17,2351 0,512 -67,634 151,634 606,0 542,39 539,-246l3 -1113c63,49 570,905 683,1093 144,238 132,268 303,268 634,0 744,53 601,-160l-904 -1380z"/>
   <path class="fil1" d="M1485 3087c-40,55 -28,63 -29,149 -5,874 113,838 -252,836 -449,-2 -505,-347 -505,-770 1,-396 -51,-874 242,-1040 295,-169 956,46 1178,-49 38,-98 38,-394 0,-492 -57,-80 -1100,-252 -1606,49 -507,300 -513,859 -513,1359 1,325 -13,565 98,850 208,532 655,698 1215,687 193,-4 693,-40 809,-122 15,-97 38,-1389 -18,-1452 -56,-63 -561,-51 -619,-5z"/>
   <path class="fil1" d="M13029 2210c89,-111 29,-485 26,-490 -139,-129 -1139,-93 -1356,-20 -407,138 -472,495 -471,999 2,1077 -233,2002 932,2001 190,0 804,11 886,-83 48,-77 51,-392 6,-476 -80,-76 -562,-35 -698,-35 -477,1 -443,-6 -433,-698 201,1 992,18 1107,-20 21,-346 77,-527 -136,-528l-974 -1c-1,-133 -13,-336 6,-455 52,-332 543,-125 1105,-194z"/>
   <path class="fil1" d="M9587 4692c116,44 475,17 616,8 658,-40 507,-572 507,-1312 0,-409 0,-818 0,-1227 0,-410 51,-472 -118,-480 -117,-5 -502,-10 -597,15 -39,126 -17,999 -14,1197 24,1496 71,1136 -398,1189 -28,106 -19,497 4,610z"/>
   <path class="fil0" d="M7189 216c322,-1 600,67 856,185 476,219 482,405 626,189 -75,-211 -694,-477 -988,-537 -717,-146 -1266,20 -1846,348 -58,34 -218,107 -99,218 155,145 469,-400 1451,-403z"/>
   <path class="fil0" d="M8302 1037c0,-249 -701,-491 -1049,-497 -214,-4 -503,34 -679,103 -789,310 -519,476 -333,355 84,-55 157,-92 252,-137 499,-234 1061,-205 1516,93 134,87 186,182 293,83z"/>
   <path class="fil0" d="M6517 1401c5,0 12,-1 16,-3 69,-17 295,-262 741,-227 138,11 285,70 388,131 53,32 121,97 151,112 86,44 135,-6 85,-88 -102,-168 -495,-298 -775,-288 -216,8 -660,174 -670,304 -8,97 -2,25 14,55l50 4z"/>
   <path class="fil0" d="M7231 4509c-267,-4 -191,-11 -223,41 70,43 81,25 267,26 200,0 663,40 752,-26 -26,-42 27,-13 -46,-36l-750 -5z"/>
   <path class="fil0" d="M7597 4329c-106,1 -259,-24 -343,27 45,27 -52,17 63,40l259 4c110,-1 252,16 349,-22 -24,-49 39,-26 -67,-50 -6,-2 -78,-4 -88,-4 -57,0 -115,4 -173,5z"/>
   <path class="fil0" d="M7892 4184c-65,-68 -410,-61 -497,-10 121,50 50,60 245,48 89,-5 191,10 252,-38z"/>
  </g>
 </g>
</svg>
