<?xml version="1.0" encoding="UTF-8"?>
<!DOCTYPE svg PUBLIC "-//W3C//DTD SVG 1.1//EN" "http://www.w3.org/Graphics/SVG/1.1/DTD/svg11.dtd">
<!-- Creator: CorelDRAW X7 -->
<svg xmlns="http://www.w3.org/2000/svg" xml:space="preserve" width="6.73496cm" height="6.73496cm" version="1.1" style="shape-rendering:geometricPrecision; text-rendering:geometricPrecision; image-rendering:optimizeQuality; fill-rule:evenodd; clip-rule:evenodd"
viewBox="0 0 275 275"
 xmlns:xlink="http://www.w3.org/1999/xlink">
 <defs>
  <style type="text/css">
   <![CDATA[
    .fil0 {fill:#0C0A89}
    .fil1 {fill:white}
   ]]>
  </style>
 </defs>
 <g id="Layer_x0020_1">
  <metadata id="CorelCorpID_0Corel-Layer"/>
  <g id="_2506621806144">
   <path class="fil0" d="M152 250c-1,-6 4,-11 9,-11 6,-1 11,4 11,9 1,6 -4,11 -9,11 -6,1 -11,-4 -11,-9zm-37 -1c0,6 -5,10 -11,9 -6,-1 -10,-6 -9,-12 1,-5 6,-9 12,-8 5,0 9,5 8,11zm25 6l-8 0 0 -3 12 0c0,5 -4,10 -9,10 -6,1 -10,-3 -11,-8 -2,-9 8,-15 15,-11 2,1 4,3 5,5 -1,0 -3,0 -4,0 0,0 0,0 -1,0 -3,-5 -11,-3 -12,3 -1,5 5,10 10,7 1,-1 3,-2 3,-3zm-55 -16c0,0 1,1 1,2 0,1 0,2 0,3 -1,2 -2,3 -4,3 -2,1 -4,0 -6,0 -1,-1 -3,-2 -4,-3l10 -17c1,0 3,1 4,2 1,1 3,2 3,3 1,2 1,4 0,5 -1,1 -2,2 -4,2zm92 -5c2,-1 8,-5 12,-3 3,1 4,5 2,8 -1,1 -1,2 -2,2 0,1 6,4 7,4 0,0 0,0 0,0l1 1 -3 1c-1,1 -2,0 -3,-1 -1,0 -5,-3 -6,-3l3 7 -2 2 -9 -18zm-96 -33c2,0 4,1 7,1 2,1 5,1 7,1 10,0 15,-6 28,1 3,1 9,5 12,5 7,0 13,-9 26,-8 8,1 9,4 21,1 2,0 3,0 4,0 1,-1 2,-1 3,-1l3 9c-3,1 -5,1 -8,2 -13,2 -13,-1 -24,-1 -3,0 -5,0 -8,0 -6,2 -7,4 -11,7 -5,4 -7,4 -12,0l-3 -3c-3,-2 -3,-3 -7,-4 -5,-1 -12,0 -17,1 -6,1 -9,1 -16,0 -2,-1 -5,-1 -7,-2l2 -9zm-44 4l-2 -3c1,0 18,-10 18,-10 1,1 2,2 2,2l-18 11zm193 -26l18 9c0,1 -1,3 -1,4l-19 2c1,0 14,6 14,6l-1 3 -19 -9c0,0 2,-3 2,-3l19 -2 -11 -5c-1,-1 -3,-1 -4,-2l2 -3zm-190 -18c1,3 2,2 0,4l-12 12 15 -4 1 3 -20 5c0,-1 -1,-3 -1,-3l10 -10c1,-1 2,-3 3,-4 -2,0 -14,4 -15,4l-1 -3 20 -4zm198 -15c1,0 13,8 15,9 2,1 4,2 5,3 0,2 0,3 0,4l-17 3c-2,0 -4,0 -6,1l1 -4 6 -1 2 -8c-1,0 -2,-1 -3,-2 -1,0 -1,0 -2,-1l-1 -1 0 -3zm-210 -7c6,0 5,-6 1,-6 -2,0 -3,1 -4,3 -1,2 -1,3 -2,4 -2,1 -4,2 -6,1 -5,-1 -6,-10 2,-11l0 3c-1,0 -2,0 -2,1 -1,1 -1,2 -1,3 1,2 4,1 5,0 1,0 1,-1 1,-2 4,-8 13,-6 14,1 0,4 -4,6 -8,6l0 -3zm232 -12c0,1 0,2 0,3l-21 2 0 -3 21 -2zm-241 -28l2 1 -1 4 18 5c-1,1 -1,3 -1,3l-18 -5c0,0 -1,3 -1,4l-3 -1 4 -11zm233 -11l1 3c-1,2 -4,6 -5,7l-5 8 14 -6c0,0 1,2 1,3l-19 8c0,-1 -1,-2 -1,-3 0,-1 0,-1 0,-1l11 -15 -15 6 -1 -3 19 -7zm-226 -11c1,0 2,1 2,1l13 9c1,0 2,1 3,1 -1,1 -2,2 -2,3 -1,0 -8,-5 -9,-6l-9 -6 2 -2zm105 18c0,0 0,0 0,0 0,-1 0,-1 0,-1 -1,-1 -2,-2 -3,-3 -5,-6 -10,-15 -9,-24 1,-8 5,-13 10,-19 1,-1 5,-5 6,-5 1,0 2,1 3,2 1,1 2,1 3,2 5,5 9,12 10,20 1,9 -4,19 -10,25 0,1 -2,3 -2,3 0,0 3,2 4,2 1,-1 3,-3 5,-5 11,-8 25,-8 38,-5 2,1 11,3 12,4 -1,1 -1,1 -2,2 -2,3 -6,7 -9,10 -5,4 -12,8 -21,8 -5,0 -10,-1 -15,-3 -1,0 -4,-2 -4,-2 -1,1 -4,8 -4,10 -4,12 -5,24 -5,37 1,0 3,-1 4,-1 0,-10 3,-21 10,-27 3,-2 5,-3 8,-4 10,-3 21,-2 31,1 4,1 6,2 9,3 0,1 -2,3 -2,4 -3,4 -6,9 -10,13l-3 4c0,0 0,1 -1,1 -2,2 -3,3 -5,6 -2,1 -4,2 -5,3 -8,5 -17,8 -26,9l-1 26 -5 0 0 -25 -4 1 0 31 -5 0 0 -31 -5 -1 0 25 -4 0 -1 -26c-8,0 -20,-5 -26,-9 -4,-2 -4,-3 -7,-5l-5 -6c-6,-6 -8,-9 -13,-16 0,-1 -1,-3 -2,-4 13,-5 37,-10 49,0 0,1 0,1 1,1 0,1 0,1 1,1 5,6 7,15 7,25 1,0 3,1 5,1 -1,-13 -2,-25 -5,-37 -1,-2 -3,-9 -4,-10 -2,1 -3,2 -4,2 -5,2 -10,3 -15,3l-1 0c-8,0 -14,-3 -19,-7l-3 -3c-2,-1 -9,-8 -9,-10 0,0 5,-2 6,-2 3,-1 5,-2 7,-2 6,-2 11,-2 17,-2 8,1 14,4 20,8 1,1 4,3 5,4 0,0 3,-2 3,-2zm105 -33c1,0 1,0 1,1 1,0 2,1 2,2l-11 19c-1,0 -2,-2 -3,-2 1,-1 3,-5 4,-6 0,-1 -5,-6 -5,-6l-7 1 -2 -2 21 -7zm-194 -8c1,0 1,-1 1,-1l2 2c0,1 -2,2 -2,3l12 13c0,0 -2,2 -2,2l-10 -11c-1,0 -1,0 -1,-1l-2 -1c0,0 -3,2 -3,2 0,0 -2,-1 -2,-2l7 -6zm179 -6c0,0 -2,-3 -3,-3 0,0 -7,8 -7,8l-5 6c0,-1 -2,-2 -2,-2 0,-1 1,-2 1,-2 1,-1 1,-1 2,-2 0,-1 1,-1 1,-2 2,-1 5,-5 6,-6 0,-1 1,-1 1,-1 0,-1 0,-1 1,-1 -1,-1 -3,-2 -3,-3 0,-1 1,-2 1,-2 2,1 4,4 6,5 0,0 2,2 3,2 0,1 -1,2 -2,3zm-145 0c0,4 -5,8 -10,7 0,-1 -1,-1 -1,-1l-3 -4c-1,-1 -2,-3 -4,-5 0,0 -3,-4 -3,-4 0,-1 2,-2 3,-3 1,3 4,6 6,8l3 5c2,1 5,0 6,-2 1,-1 0,-2 0,-3 -1,-1 -2,-2 -3,-4l-5 -6c0,0 -1,-1 -1,-2 0,0 2,-1 2,-2 1,1 2,2 2,3l7 10c1,1 2,1 1,3zm111 -24c2,0 5,1 6,2 2,1 3,3 4,5 1,4 -2,9 -8,7l1 9c-1,0 -2,0 -3,-1 -1,0 0,0 -1,-1 0,-2 -1,-8 -1,-9l-3 7 -4 -1 9 -18zm-94 -6l1 3 -4 1 5 18 -3 1 -5 -18c-1,0 -3,1 -4,1l-1 -2 11 -4zm34 -6c4,-1 12,-1 12,4 1,3 0,6 -2,7 -2,1 -4,1 -7,1l0 9 -3 0 0 -21zm31 2l11 3c0,0 -1,2 -1,2l-8 -1 -1 6 7 1c0,1 0,3 0,3l-8 -1 -1 5c1,0 7,2 7,2 0,0 -1,3 -1,3l-10 -2 5 -21zm-25 -11c-24,1 -46,8 -65,19 -3,2 -7,5 -10,7l-5 3c-2,3 -6,6 -9,8 -3,4 -10,12 -13,16 -2,2 -4,4 -6,7 -4,7 -8,14 -11,22 -8,17 -12,36 -11,57 1,30 12,57 29,79 3,4 5,6 8,9 1,1 6,6 8,8 1,1 3,3 5,4 10,8 20,14 32,19 17,7 36,11 57,11 72,-3 132,-63 130,-139 -1,-24 -8,-46 -19,-65 -4,-5 -7,-10 -11,-15l-4 -4c-1,-2 -6,-8 -8,-9 -1,-1 -3,-3 -4,-4l-2 -2c-1,0 -2,-1 -3,-2 -9,-7 -19,-13 -31,-18 -17,-8 -37,-12 -57,-11z"/>
   <path class="fil1" d="M151 151c0,-2 2,-5 3,-6 3,-5 6,-10 11,-13 7,-6 17,-6 27,-3 -1,1 -3,3 -4,4 -7,6 -15,12 -24,15 -3,1 -10,3 -13,3zm-72 -22c10,-3 19,-2 27,3 3,2 5,5 8,8 1,2 2,3 3,5 1,1 2,4 3,6 -8,-1 -18,-5 -24,-8 -4,-2 -7,-4 -9,-7 -2,-1 -7,-5 -8,-7zm55 -30c0,0 1,0 1,-1l5 5c0,0 -2,5 -2,6 -2,3 -2,4 -3,6 -1,-5 -4,-11 -5,-12l4 -4zm-48 -6c6,-1 12,-1 18,0 3,0 5,1 7,2 2,1 5,3 6,4 -5,3 -13,3 -18,2 -4,-1 -8,-3 -11,-6 0,0 -2,-2 -2,-2zm68 6c2,-1 3,-3 5,-4 7,-3 18,-4 26,-2 -1,1 -4,4 -6,5 -4,3 -11,4 -17,3 -2,0 -6,-1 -8,-2zm-19 -12c-1,-2 -3,-5 -4,-7 -4,-9 -3,-15 2,-23 1,-1 1,-2 2,-3 1,0 2,2 3,3 7,10 4,21 -3,30zm-4 8c0,0 -3,2 -3,2 -1,-1 -4,-3 -5,-4 -6,-4 -12,-7 -20,-8 -6,0 -11,0 -17,2 -2,0 -4,1 -7,2 -1,0 -6,2 -6,2 0,2 7,9 9,10l3 3c5,4 11,7 19,7l1 0c5,0 10,-1 15,-3 1,0 2,-1 4,-2 1,1 3,8 4,10 3,12 4,24 5,37 -2,0 -4,-1 -5,-1 0,-10 -2,-19 -7,-25 -1,0 -1,0 -1,-1 -1,0 -1,0 -1,-1 -12,-10 -36,-5 -49,0 1,1 2,3 2,4 5,7 7,10 13,16l5 6c3,2 3,3 7,5 6,4 18,9 26,9l1 26 4 0 0 -25 5 1 0 31 5 0 0 -31 4 -1 0 25 5 0 1 -26c9,-1 18,-4 26,-9 1,-1 3,-2 5,-3 2,-3 3,-4 5,-6 1,0 1,-1 1,-1l3 -4c4,-4 7,-9 10,-13 0,-1 2,-3 2,-4 -3,-1 -5,-2 -9,-3 -10,-3 -21,-4 -31,-1 -3,1 -5,2 -8,4 -7,6 -10,17 -10,27 -1,0 -3,1 -4,1 0,-13 1,-25 5,-37 0,-2 3,-9 4,-10 0,0 3,2 4,2 5,2 10,3 15,3 9,0 16,-4 21,-8 3,-3 7,-7 9,-10 1,-1 1,-1 2,-2 -1,-1 -10,-3 -12,-4 -13,-3 -27,-3 -38,5 -2,2 -4,4 -5,5 -1,0 -4,-2 -4,-2 0,0 2,-2 2,-3 6,-6 11,-16 10,-25 -1,-8 -5,-15 -10,-20 -1,-1 -2,-1 -3,-2 -1,-1 -2,-2 -3,-2 -1,0 -5,4 -6,5 -5,6 -9,11 -10,19 -1,9 4,18 9,24 1,1 2,2 3,3 0,0 0,0 0,1 0,0 0,0 0,0z"/>
   <path class="fil1" d="M133 3c20,-1 40,3 57,11 12,5 22,11 31,18 1,1 2,2 3,2l2 2c1,1 3,3 4,4 2,1 7,7 8,9l4 4c4,5 7,10 11,15 11,19 18,41 19,65 2,76 -58,136 -130,139 -21,0 -40,-4 -57,-11 -12,-5 -22,-11 -32,-19 -2,-1 -4,-3 -5,-4 -2,-2 -7,-7 -8,-8 -3,-3 -5,-5 -8,-9 -17,-22 -28,-49 -29,-79 -1,-21 3,-40 11,-57 3,-8 7,-15 11,-22 2,-3 4,-5 6,-7 3,-4 10,-12 13,-16 3,-2 7,-5 9,-8l5 -3c3,-2 7,-5 10,-7 19,-11 41,-18 65,-19zm-132 139c1,29 10,53 26,76 2,2 3,3 4,5l9 10c12,13 27,23 44,30 17,7 37,11 58,11 74,-3 134,-64 132,-141 -3,-74 -64,-134 -141,-132 -21,1 -39,6 -55,14 -8,3 -15,8 -21,12 -3,3 -11,9 -14,12 -2,2 -4,3 -5,5 -1,1 -1,1 -1,1l-4 5c-1,1 -2,2 -2,2 -8,10 -14,21 -19,32 -7,17 -12,37 -11,58z"/>
   <path class="fil1" d="M79 210c2,1 5,1 7,2 7,1 10,1 16,0 5,-1 12,-2 17,-1 4,1 4,2 7,4l3 3c5,4 7,4 12,0 4,-3 5,-5 11,-7 3,0 5,0 8,0 11,0 11,3 24,1 3,-1 5,-1 8,-2l-3 -9c-1,0 -2,0 -3,1 -1,0 -2,0 -4,0 -12,3 -13,0 -21,-1 -13,-1 -19,8 -26,8 -3,0 -9,-4 -12,-5 -13,-7 -18,-1 -28,-1 -2,0 -5,0 -7,-1 -3,0 -5,-1 -7,-1l-2 9z"/>
   <path class="fil0" d="M1 142c-1,-21 4,-41 11,-58 5,-11 11,-22 19,-32 0,0 1,-1 2,-2l4 -5c0,0 0,0 1,-1 1,-2 3,-3 5,-5 3,-3 11,-9 14,-12 6,-4 13,-9 21,-12 16,-8 34,-13 55,-14 77,-2 138,58 141,132 2,77 -58,138 -132,141 -21,0 -41,-4 -58,-11 -17,-7 -32,-17 -44,-30l-9 -10c-1,-2 -2,-3 -4,-5 -16,-23 -25,-47 -26,-76zm133 -142l1 0c0,0 1,0 1,0l0 0c2,0 9,0 11,0 0,0 1,0 2,0l6 1c2,0 5,1 7,1 9,2 18,4 26,8 1,0 3,1 4,1 0,1 1,1 2,1 2,1 4,2 6,3l8 5c3,1 6,3 8,5 4,2 8,6 11,8l5 4c2,3 5,5 7,8l1 2c1,0 1,0 1,0l2 2c3,4 5,7 7,10 1,1 1,1 1,2l6 9 6 11c1,2 1,4 2,6 0,1 1,1 1,2 1,2 2,5 3,8 1,7 2,9 4,17 1,7 2,13 2,20l0 6c-1,12 -2,24 -6,35 -2,7 -5,15 -8,22 0,1 -1,2 -1,3l-2 3c-2,4 -5,9 -8,13l-4 6c-2,2 -5,6 -6,7l-9 9c-1,1 -3,3 -4,4 -1,0 -1,0 -1,1 -1,0 -1,0 -2,1l-3 3c-4,3 -9,6 -13,8 -1,1 -2,1 -3,2 -4,2 -9,5 -13,6l-4 2c-16,7 -33,10 -51,10 -5,0 -9,-1 -14,-1 -7,-1 -16,-3 -23,-5l-8 -2c-4,-1 -9,-3 -13,-5l-8 -4c-4,-3 -13,-8 -17,-11 0,-1 -1,-1 -1,-1l-8 -7c-2,-1 -7,-7 -9,-9l-3 -3c-1,-1 -2,-2 -3,-4l-3 -4c-2,-3 -4,-6 -6,-8 -3,-6 -5,-9 -9,-17l-2 -4c0,-1 0,-1 0,-2 -1,-1 -1,-2 -1,-3 -1,-1 -1,-2 -2,-3 0,-2 -1,-4 -2,-6 -2,-8 -3,-15 -4,-24l-1 -4c0,-1 0,-2 0,-4 0,0 0,-1 0,-2 0,0 0,-1 0,-1l0 -5 0 0 0 -2c0,-1 0,-1 0,-2 0,-1 0,-1 0,-2 0,-1 0,-1 0,-2 0,0 0,-1 0,-2 1,-1 1,-1 1,-2 1,-12 4,-26 9,-38 1,-3 2,-5 4,-8 2,-4 3,-8 6,-12 0,0 0,0 0,0l7 -10c2,-3 4,-6 7,-9l7 -8c0,0 0,0 0,0l9 -8c4,-3 10,-7 14,-10 3,-2 7,-4 11,-6l2 -1c4,-2 9,-4 13,-5 1,-1 2,-1 3,-2 9,-3 18,-5 27,-6 3,0 6,0 8,-1l6 0z"/>
   <path class="fil0" d="M79 129c1,2 6,6 8,7 2,3 5,5 9,7 6,3 16,7 24,8 -1,-2 -2,-5 -3,-6 -1,-2 -2,-3 -3,-5 -3,-3 -5,-6 -8,-8 -8,-5 -17,-6 -27,-3z"/>
   <path class="fil0" d="M151 151c3,0 10,-2 13,-3 9,-3 17,-9 24,-15 1,-1 3,-3 4,-4 -10,-3 -20,-3 -27,3 -5,3 -8,8 -11,13 -1,1 -3,4 -3,6z"/>
   <path class="fil0" d="M135 87c7,-9 10,-20 3,-30 -1,-1 -2,-3 -3,-3 -1,1 -1,2 -2,3 -5,8 -6,14 -2,23 1,2 3,5 4,7z"/>
   <path class="fil1" d="M140 255c0,1 -2,2 -3,3 -5,3 -11,-2 -10,-7 1,-6 9,-8 12,-3 1,0 1,0 1,0 1,0 3,0 4,0 -1,-2 -3,-4 -5,-5 -7,-4 -17,2 -15,11 1,5 5,9 11,8 5,0 9,-5 9,-10l-12 0 0 3 8 0z"/>
   <path class="fil1" d="M104 241c4,-1 7,2 8,6 1,4 -2,7 -6,8 -4,0 -7,-2 -8,-6 -1,-4 2,-7 6,-8zm11 8c1,-6 -3,-11 -8,-11 -6,-1 -11,3 -12,8 -1,6 3,11 9,12 6,1 11,-3 11,-9z"/>
   <path class="fil1" d="M169 250c-1,4 -4,7 -8,6 -4,-1 -7,-4 -6,-8 1,-4 4,-6 8,-6 4,1 6,4 6,8zm-17 0c0,5 5,10 11,9 5,0 10,-5 9,-11 0,-5 -5,-10 -11,-9 -5,0 -10,5 -9,11z"/>
   <path class="fil1" d="M228 182c1,1 3,1 4,2l11 5 -19 2c0,0 -2,3 -2,3l19 9 1 -3c0,0 -13,-6 -14,-6l19 -2c0,-1 1,-3 1,-4l-18 -9 -2 3z"/>
   <path class="fil1" d="M233 95l1 3 15 -6 -11 15c0,0 0,0 0,1 0,1 1,2 1,3l19 -8c0,-1 -1,-3 -1,-3l-14 6 5 -8c1,-1 4,-5 5,-7l-1 -3 -19 7z"/>
   <path class="fil1" d="M20 165l1 3c1,0 13,-4 15,-4 -1,1 -2,3 -3,4l-10 10c0,0 1,2 1,3l20 -5 -1 -3 -15 4 12 -12c2,-2 1,-1 0,-4l-20 4z"/>
   <path class="fil0" d="M154 99c2,1 6,2 8,2 6,1 13,0 17,-3 2,-1 5,-4 6,-5 -8,-2 -19,-1 -26,2 -2,1 -3,3 -5,4z"/>
   <path class="fil0" d="M86 93c0,0 2,2 2,2 3,3 7,5 11,6 5,1 13,1 18,-2 -1,-1 -4,-3 -6,-4 -2,-1 -4,-2 -7,-2 -6,-1 -12,-1 -18,0z"/>
   <path class="fil1" d="M186 34c0,-1 2,-6 3,-7 1,1 3,2 4,2 2,2 2,4 0,6 -2,1 -6,0 -7,-1zm-8 8l4 1 3 -7c0,1 1,7 1,9 1,1 0,1 1,1 1,1 2,1 3,1l-1 -9c6,2 9,-3 8,-7 -1,-2 -2,-4 -4,-5 -1,-1 -4,-2 -6,-2l-9 18z"/>
   <path class="fil1" d="M180 235c1,-1 3,-2 4,-2 2,-1 4,0 4,1 2,4 -2,7 -4,7l-4 -6zm6 17l2 -2 -3 -7c1,0 5,3 6,3 1,1 2,2 3,1l3 -1 -1 -1c0,0 0,0 0,0 -1,0 -7,-3 -7,-4 1,0 1,-1 2,-2 2,-3 1,-7 -2,-8 -4,-2 -10,2 -12,3l9 18z"/>
   <path class="fil1" d="M246 161l0 -7 8 5 -8 2zm-8 -12l1 1c1,1 1,1 2,1 1,1 2,2 3,2l-2 8 -6 1 -1 4c2,-1 4,-1 6,-1l17 -3c0,-1 0,-2 0,-4 -1,-1 -3,-2 -5,-3 -2,-1 -14,-9 -15,-9l0 3z"/>
   <path class="fil1" d="M227 69c0,-1 8,-3 8,-3 0,1 -4,7 -4,7l-4 -4zm-12 0l2 2 7 -1c0,0 5,5 5,6 -1,1 -3,5 -4,6 1,0 2,2 3,2l11 -19c0,-1 -1,-2 -2,-2 0,-1 0,-1 -1,-1l-21 7z"/>
   <path class="fil0" d="M104 241c-4,1 -7,4 -6,8 1,4 4,6 8,6 4,-1 7,-4 6,-8 -1,-4 -4,-7 -8,-6z"/>
   <path class="fil0" d="M169 250c0,-4 -2,-7 -6,-8 -4,0 -7,2 -8,6 -1,4 2,7 6,8 4,1 7,-2 8,-6z"/>
   <path class="fil1" d="M64 34c0,1 1,2 1,2l5 6c1,2 2,3 3,4 0,1 1,2 0,3 -1,2 -4,3 -6,2l-3 -5c-2,-2 -5,-5 -6,-8 -1,1 -3,2 -3,3 0,0 3,4 3,4 2,2 3,4 4,5l3 4c0,0 1,0 1,1 5,1 10,-3 10,-7 1,-2 0,-2 -1,-3l-7 -10c0,-1 -1,-2 -2,-3 0,1 -2,2 -2,2z"/>
   <path class="fil1" d="M80 237c1,1 2,2 3,3 2,2 0,5 -4,5 -1,0 -2,-1 -3,-1l4 -7zm3 -6c1,0 3,1 3,1 1,1 1,2 0,4 -1,2 -4,1 -5,-1l2 -4zm2 8c2,0 3,-1 4,-2 1,-1 1,-3 0,-5 0,-1 -2,-2 -3,-3 -1,-1 -3,-2 -4,-2l-10 17c1,1 3,2 4,3 2,0 4,1 6,0 2,0 3,-1 4,-3 0,-1 0,-2 0,-3 0,-1 -1,-2 -1,-2z"/>
   <path class="fil1" d="M153 35l10 2c0,0 1,-3 1,-3 0,0 -6,-2 -7,-2l1 -5 8 1c0,0 0,-2 0,-3l-7 -1 1 -6 8 1c0,0 1,-2 1,-2l-11 -3 -5 21z"/>
   <path class="fil1" d="M28 139l0 3c4,0 8,-2 8,-6 -1,-7 -10,-9 -14,-1 0,1 0,2 -1,2 -1,1 -4,2 -5,0 0,-1 0,-2 1,-3 0,-1 1,-1 2,-1l0 -3c-8,1 -7,10 -2,11 2,1 4,0 6,-1 1,-1 1,-2 2,-4 1,-2 2,-3 4,-3 4,0 5,6 -1,6z"/>
   <path class="fil1" d="M130 22l0 -8c3,0 7,0 7,4 -1,4 -4,4 -7,4zm-3 11l3 0 0 -9c3,0 5,0 7,-1 2,-1 3,-4 2,-7 0,-5 -8,-5 -12,-4l0 21z"/>
   <path class="fil1" d="M15 110l3 1c0,-1 1,-4 1,-4l18 5c0,0 0,-2 1,-3l-18 -5 1 -4 -2 -1 -4 11z"/>
   <path class="fil1" d="M82 22l1 2c1,0 3,-1 4,-1l5 18 3 -1 -5 -18 4 -1 -1 -3 -11 4z"/>
   <path class="fil1" d="M213 40c0,1 2,2 3,3 -1,0 -1,0 -1,1 0,0 -1,0 -1,1 -1,1 -4,5 -6,6 0,1 -1,1 -1,2 -1,1 -1,1 -2,2 0,0 -1,1 -1,2 0,0 2,1 2,2l5 -6c0,0 7,-8 7,-8 1,0 3,3 3,3 1,-1 2,-2 2,-3 -1,0 -3,-2 -3,-2 -2,-1 -4,-4 -6,-5 0,0 -1,1 -1,2z"/>
   <path class="fil1" d="M35 60c0,1 2,2 2,2 0,0 3,-2 3,-2l2 1c0,1 0,1 1,1l10 11c0,0 2,-2 2,-2l-12 -13c0,-1 2,-2 2,-3l-2 -2c0,0 0,1 -1,1l-7 6z"/>
   <path class="fil0" d="M130 103c1,1 4,7 5,12 1,-2 1,-3 3,-6 0,-1 2,-6 2,-6l-5 -5c0,1 -1,1 -1,1l-4 4z"/>
   <path class="fil1" d="M55 194c0,0 -1,-1 -2,-2 0,0 -17,10 -18,10l2 3 18 -11z"/>
   <path class="fil1" d="M24 79l9 6c1,1 8,6 9,6 0,-1 1,-2 2,-3 -1,0 -2,-1 -3,-1l-13 -9c0,0 -1,-1 -2,-1l-2 2z"/>
   <path class="fil1" d="M239 129l0 3 21 -2c0,-1 0,-2 0,-3l-21 2z"/>
   <path class="fil0" d="M186 34c1,1 5,2 7,1 2,-2 2,-4 0,-6 -1,0 -3,-1 -4,-2 -1,1 -3,6 -3,7z"/>
   <path class="fil0" d="M130 22c3,0 6,0 7,-4 0,-4 -4,-4 -7,-4l0 8z"/>
   <path class="fil0" d="M180 235l4 6c2,0 6,-3 4,-7 0,-1 -2,-2 -4,-1 -1,0 -3,1 -4,2z"/>
   <path class="fil0" d="M76 244c1,0 2,1 3,1 4,0 6,-3 4,-5 -1,-1 -2,-2 -3,-3l-4 7z"/>
   <path class="fil0" d="M227 69l4 4c0,0 4,-6 4,-7 0,0 -8,2 -8,3z"/>
   <polygon class="fil0" points="254,159 246,154 246,161 "/>
   <path class="fil0" d="M81 235c1,2 4,3 5,1 1,-2 1,-3 0,-4 0,0 -2,-1 -3,-1l-2 4z"/>
  </g>
 </g>
</svg>
