<?xml version="1.0" encoding="UTF-8"?>
<!DOCTYPE svg PUBLIC "-//W3C//DTD SVG 1.1//EN" "http://www.w3.org/Graphics/SVG/1.1/DTD/svg11.dtd">
<!-- Creator: CorelDRAW X7 -->
<svg xmlns="http://www.w3.org/2000/svg" xml:space="preserve" width="20.7616cm" height="6.83394cm" version="1.1" style="shape-rendering:geometricPrecision; text-rendering:geometricPrecision; image-rendering:optimizeQuality; fill-rule:evenodd; clip-rule:evenodd"
viewBox="0 0 9555 3145"
 xmlns:xlink="http://www.w3.org/1999/xlink">
 <defs>
  <style type="text/css">
   <![CDATA[
    .str0 {stroke:#284A61;stroke-width:11.5054}
    .fil0 {fill:#284A61}
    .fil1 {fill:#284A61}
   ]]>
  </style>
 </defs>
 <g id="Layer_x0020_1">
  <metadata id="CorelCorpID_0Corel-Layer"/>
  <g id="_2506621730784">
   <path class="fil0" d="M325 986l0 65c0,70 509,549 621,661 39,39 66,67 106,105 61,60 72,58 52,143l21 -12c28,-21 9,-5 26,-22l144 -132c248,-251 206,-225 -25,-455 -102,-103 -541,-613 -653,-613 -130,0 -292,135 -292,260z"/>
   <path class="fil0" d="M1185 1099c13,49 293,358 390,358 102,0 151,-95 247,-191l414 -414c98,-97 183,-137 183,-272 0,-81 -123,-260 -292,-260 -107,0 -333,292 -467,410l-333 317c-45,47 -65,89 -142,52z"/>
   <path class="fil0" d="M731 2544c0,140 184,293 276,293 116,0 394,-321 483,-410 77,-77 142,-142 219,-219l177 -165c55,-27 8,-18 78,-2l0 -32c-124,-34 -270,-325 -389,-325 -74,0 -347,314 -442,402l-220 203c-60,60 -182,150 -182,255z"/>
   <path class="fil0" d="M1688 1570c0,94 164,221 224,280l502 504c208,205 559,-144 342,-358 -79,-79 -192,-178 -258,-261l-375 -388c-69,-68 -98,-60 -77,-150 -58,15 -358,309 -358,373z"/>
   <path class="fil0" d="M2403 2561c0,-138 -206,-307 -345,-436 -103,-96 -145,-15 -223,46 -50,38 -159,128 -173,202 -17,92 270,350 330,403 187,167 411,-99 411,-215z"/>
   <path class="fil0" d="M747 580c0,131 67,156 158,247 223,224 250,314 414,147 259,-263 241,-163 -129,-577 -185,-207 -443,50 -443,183z"/>
   <path class="fil0" d="M2094 1181c0,78 205,308 325,308 53,0 190,-166 231,-207 128,-128 304,-222 90,-439 -210,-214 -303,-45 -439,90 -38,38 -73,79 -114,113 -49,39 -93,52 -93,135z"/>
   <path class="fil0" d="M568 2398c148,0 148,-42 256,-150 251,-251 310,-254 154,-406 -46,-45 -139,-159 -196,-179 -84,-28 -154,84 -209,139 -115,115 -350,241 -219,437 40,60 122,159 214,159z"/>
   <path class="fil0" d="M2581 1570c0,395 569,367 569,49l0 -81c0,-228 -401,-361 -534,-79 -7,15 -35,98 -35,111z"/>
   <path class="fil0" d="M1299 271c0,405 568,365 568,17 0,-388 -568,-374 -568,-17z"/>
   <path class="fil0" d="M1283 2869c0,163 130,276 324,276 202,0 339,-306 168,-476 -209,-207 -492,-27 -492,200z"/>
   <path class="fil0" d="M0 1554c0,279 303,375 475,216 204,-188 32,-492 -183,-492 -155,0 -292,119 -292,276z"/>
   <g>
    <path class="fil0 str0" d="M3761 872l0 133 151 -157c7,-8 13,-14 18,-17 5,-4 12,-6 21,-6 11,0 20,4 26,10 7,6 11,14 11,24 0,11 -6,22 -18,33l-93 89 108 154c7,10 13,20 17,28 3,8 5,16 5,23 0,9 -3,16 -10,22 -6,6 -15,10 -27,10 -10,0 -19,-3 -26,-7 -7,-5 -12,-11 -17,-19 -5,-7 -9,-14 -12,-20l-91 -140 -63 60 0 79c0,16 -4,27 -11,35 -7,8 -17,12 -28,12 -6,0 -13,-2 -19,-6 -6,-3 -10,-8 -14,-14 -2,-4 -4,-10 -4,-16 -1,-7 -1,-16 -1,-28l0 -282c0,-16 4,-27 10,-35 7,-8 16,-12 28,-12 12,0 21,4 28,12 7,7 11,19 11,35zm565 19l-173 0 0 93 159 0c12,0 21,3 26,8 6,5 9,12 9,21 0,9 -3,16 -8,21 -6,5 -15,8 -27,8l-159 0 0 108 179 0c12,0 21,3 27,9 6,5 9,13 9,22 0,9 -3,16 -9,22 -6,5 -15,8 -27,8l-209 0c-17,0 -29,-4 -36,-11 -7,-7 -11,-19 -11,-36l0 -285c0,-11 2,-20 5,-27 3,-7 8,-12 15,-16 7,-3 16,-4 27,-4l203 0c12,0 21,2 27,8 6,5 9,12 9,21 0,9 -3,16 -9,22 -6,5 -15,8 -27,8zm232 263l-61 -242 0 262c0,15 -4,25 -10,33 -6,7 -15,11 -26,11 -10,0 -18,-4 -25,-11 -7,-7 -10,-18 -10,-33l0 -300c0,-17 5,-28 13,-34 9,-5 20,-8 35,-8l24 0c14,0 24,1 31,4 6,2 11,7 14,14 3,6 7,17 11,32l55 208 55 -208c4,-15 8,-26 11,-32 3,-7 8,-12 14,-14 7,-3 17,-4 31,-4l24 0c15,0 26,3 35,8 9,6 13,17 13,34l0 300c0,15 -3,25 -10,33 -6,7 -15,11 -26,11 -10,0 -18,-4 -25,-11 -6,-8 -10,-18 -10,-33l0 -262 -60 242c-4,16 -8,27 -10,34 -3,8 -7,14 -14,20 -7,7 -16,10 -28,10 -9,0 -17,-2 -23,-6 -6,-4 -11,-9 -14,-15 -4,-6 -6,-13 -8,-20 -2,-7 -4,-15 -6,-23zm563 -263l-173 0 0 93 159 0c12,0 21,3 26,8 6,5 9,12 9,21 0,9 -3,16 -8,21 -6,5 -15,8 -27,8l-159 0 0 108 179 0c12,0 21,3 27,9 6,5 9,13 9,22 0,9 -3,16 -9,22 -6,5 -15,8 -27,8l-209 0c-17,0 -29,-4 -36,-11 -7,-7 -11,-19 -11,-36l0 -285c0,-11 2,-20 5,-27 3,-7 8,-12 15,-16 7,-3 16,-4 27,-4l203 0c12,0 21,2 27,8 6,5 9,12 9,21 0,9 -3,16 -9,22 -6,5 -15,8 -27,8zm204 -20l148 224 0 -226c0,-14 3,-25 9,-33 6,-7 15,-11 25,-11 11,0 20,4 26,11 7,8 10,19 10,33l0 299c0,33 -14,50 -41,50 -7,0 -13,-1 -19,-3 -5,-2 -11,-6 -15,-10 -5,-4 -10,-9 -14,-15 -4,-6 -8,-12 -12,-18l-144 -221 0 223c0,14 -4,25 -10,32 -7,8 -16,12 -26,12 -11,0 -20,-4 -27,-12 -6,-7 -9,-18 -9,-32l0 -293c0,-12 1,-22 4,-29 3,-8 8,-14 16,-19 8,-5 16,-8 25,-8 7,0 12,1 17,4 5,2 10,5 13,9 4,4 8,8 12,15 4,6 8,12 12,18zm549 24l-84 0 0 276c0,16 -4,27 -11,35 -7,8 -16,12 -27,12 -12,0 -21,-4 -28,-12 -7,-8 -11,-20 -11,-35l0 -276 -84 0c-13,0 -23,-3 -29,-8 -6,-6 -10,-14 -10,-23 0,-10 4,-18 10,-24 7,-5 17,-8 29,-8l245 0c13,0 23,3 29,9 7,5 10,13 10,23 0,9 -3,17 -10,23 -6,5 -16,8 -29,8zm188 154l-27 0 0 122c0,16 -4,28 -11,35 -7,8 -16,12 -27,12 -13,0 -22,-4 -29,-12 -7,-8 -10,-20 -10,-35l0 -292c0,-17 4,-29 11,-36 7,-8 20,-11 36,-11l125 0c17,0 32,0 44,2 13,1 24,4 33,9 12,5 23,12 32,21 9,10 16,21 21,33 5,12 7,25 7,39 0,28 -8,51 -24,68 -16,17 -40,29 -73,36 14,7 27,18 40,32 12,14 23,29 33,45 9,16 17,30 23,43 5,13 8,22 8,27 0,5 -2,10 -5,15 -3,5 -8,8 -13,11 -6,3 -12,5 -19,5 -9,0 -16,-2 -22,-7 -6,-4 -11,-9 -15,-15 -4,-6 -10,-15 -17,-27l-31 -52c-11,-18 -21,-33 -30,-42 -9,-10 -17,-17 -26,-21 -9,-3 -21,-5 -34,-5zm44 -160l-71 0 0 105 69 0c18,0 34,-2 46,-5 13,-3 22,-9 29,-16 7,-8 10,-19 10,-32 0,-11 -3,-20 -8,-28 -5,-8 -13,-14 -22,-18 -9,-4 -27,-6 -53,-6zm237 282l0 -299c0,-16 3,-27 10,-35 8,-8 17,-12 28,-12 11,0 21,4 28,12 7,7 11,19 11,35l0 299c0,15 -4,27 -11,35 -7,8 -17,12 -28,12 -11,0 -20,-4 -27,-12 -8,-8 -11,-20 -11,-35zm405 -3l-18 -47 -154 0 -18 48c-7,19 -13,32 -18,39 -5,6 -13,10 -25,10 -9,0 -18,-4 -25,-11 -8,-7 -11,-15 -11,-24 0,-5 0,-11 2,-16 2,-6 5,-13 9,-23l97 -246c2,-8 6,-16 10,-26 4,-10 8,-18 12,-25 5,-6 10,-12 17,-16 8,-4 16,-6 27,-6 11,0 20,2 27,6 7,4 13,10 17,16 5,6 8,13 11,21 3,7 7,17 12,29l99 245c8,18 11,32 11,40 0,9 -3,17 -10,25 -8,7 -17,11 -27,11 -6,0 -11,-1 -16,-4 -4,-2 -7,-5 -10,-8 -3,-4 -6,-10 -10,-18 -3,-7 -6,-14 -9,-20zm-152 -105l114 0 -58 -157 -56 157zm391 -192l148 224 0 -226c0,-14 3,-25 9,-33 7,-7 15,-11 26,-11 11,0 19,4 26,11 6,8 9,19 9,33l0 299c0,33 -13,50 -41,50 -7,0 -13,-1 -19,-3 -5,-2 -10,-6 -15,-10 -5,-4 -9,-9 -14,-15 -4,-6 -8,-12 -12,-18l-144 -221 0 223c0,14 -3,25 -10,32 -7,8 -16,12 -26,12 -11,0 -20,-4 -26,-12 -7,-7 -10,-18 -10,-32l0 -293c0,-12 1,-22 4,-29 3,-8 9,-14 16,-19 8,-5 16,-8 25,-8 7,0 13,1 18,4 5,2 9,5 13,9 3,4 7,8 11,15 4,6 8,12 12,18z"/>
    <path class="fil1 str0" d="M3761 1414l0 133 151 -157c7,-8 13,-13 18,-17 5,-4 12,-5 21,-5 11,0 20,3 26,9 7,7 11,15 11,24 0,11 -6,22 -18,33l-93 89 108 154c7,11 13,20 17,28 3,8 5,16 5,24 0,8 -3,15 -10,22 -6,6 -15,9 -27,9 -10,0 -19,-2 -26,-7 -7,-5 -12,-11 -17,-18 -5,-8 -9,-15 -12,-21l-91 -140 -63 61 0 78c0,16 -4,28 -11,35 -7,8 -17,12 -28,12 -6,0 -13,-2 -19,-5 -6,-4 -10,-8 -14,-14 -2,-5 -4,-11 -4,-17 -1,-7 -1,-16 -1,-28l0 -282c0,-15 4,-27 10,-35 7,-8 16,-11 28,-11 12,0 21,3 28,11 7,8 11,19 11,35zm565 19l-173 0 0 94 159 0c12,0 21,2 26,7 6,6 9,13 9,21 0,9 -3,16 -8,21 -6,6 -15,8 -27,8l-159 0 0 108 179 0c12,0 21,3 27,9 6,5 9,13 9,22 0,9 -3,16 -9,22 -6,6 -15,8 -27,8l-209 0c-17,0 -29,-3 -36,-11 -7,-7 -11,-19 -11,-36l0 -285c0,-11 2,-20 5,-27 3,-7 8,-12 15,-15 7,-3 16,-5 27,-5l203 0c12,0 21,3 27,8 6,6 9,13 9,21 0,9 -3,17 -9,22 -6,6 -15,8 -27,8zm350 5l-84 0 0 275c0,16 -3,28 -11,35 -7,8 -16,12 -27,12 -11,0 -21,-4 -28,-12 -7,-8 -11,-19 -11,-35l0 -275 -84 0c-13,0 -22,-3 -29,-9 -6,-6 -9,-14 -9,-23 0,-10 3,-18 10,-23 6,-6 16,-9 28,-9l245 0c13,0 23,3 30,9 6,6 9,13 9,23 0,9 -3,17 -10,23 -6,6 -16,9 -29,9zm335 -5l-173 0 0 94 159 0c12,0 20,2 26,7 6,6 9,13 9,21 0,9 -3,16 -9,21 -5,6 -14,8 -26,8l-159 0 0 108 179 0c12,0 21,3 27,9 6,5 9,13 9,22 0,9 -3,16 -9,22 -6,6 -15,8 -27,8l-209 0c-17,0 -29,-3 -36,-11 -8,-7 -11,-19 -11,-36l0 -285c0,-11 1,-20 5,-27 3,-7 8,-12 15,-15 7,-3 16,-5 27,-5l203 0c12,0 21,3 27,8 6,6 9,13 9,21 0,9 -3,17 -9,22 -6,6 -15,8 -27,8zm204 -19l147 223 0 -225c0,-15 3,-26 10,-33 6,-8 14,-11 25,-11 11,0 20,3 26,11 7,7 10,18 10,33l0 298c0,33 -14,50 -42,50 -6,0 -13,-1 -18,-3 -6,-2 -11,-5 -16,-10 -5,-4 -9,-9 -13,-15 -4,-6 -8,-11 -13,-17l-144 -221 0 222c0,14 -3,25 -10,33 -7,7 -15,11 -26,11 -11,0 -19,-4 -26,-11 -6,-8 -10,-19 -10,-33l0 -293c0,-12 2,-22 4,-29 4,-8 9,-14 17,-19 7,-5 16,-7 24,-7 7,0 13,1 18,3 5,2 9,5 13,9 4,4 8,9 11,15 4,6 8,12 13,19zm538 296l-18 -47 -155 0 -18 48c-7,19 -13,32 -18,39 -5,6 -13,10 -24,10 -10,0 -19,-4 -26,-11 -7,-7 -11,-15 -11,-24 0,-5 1,-10 3,-16 1,-5 4,-13 8,-23l97 -246c3,-7 6,-16 10,-26 4,-10 8,-18 13,-24 4,-7 10,-12 17,-16 7,-4 16,-6 26,-6 11,0 20,2 27,6 7,4 13,9 17,15 5,7 9,14 12,21 3,7 7,17 11,29l99 245c8,19 12,32 12,41 0,8 -4,17 -11,24 -7,7 -16,11 -27,11 -6,0 -11,-1 -15,-3 -4,-3 -8,-5 -11,-9 -3,-4 -6,-10 -9,-17 -4,-8 -7,-15 -9,-21zm-152 -105l113 0 -57 -156 -56 156zm624 -6l0 73c0,10 -1,17 -3,23 -2,6 -6,11 -11,16 -5,4 -11,9 -19,13 -23,13 -45,22 -66,27 -22,6 -45,9 -70,9 -29,0 -56,-5 -80,-14 -24,-9 -44,-22 -61,-39 -17,-17 -30,-37 -39,-62 -9,-24 -13,-51 -13,-81 0,-30 4,-57 13,-81 9,-25 22,-46 39,-63 17,-17 37,-30 62,-39 24,-9 52,-13 83,-13 26,0 48,3 68,10 20,7 36,15 48,26 12,10 21,21 28,32 6,12 9,22 9,31 0,10 -4,18 -11,25 -7,7 -16,10 -26,10 -5,0 -10,-1 -15,-4 -6,-2 -10,-6 -13,-11 -10,-14 -18,-26 -24,-33 -7,-8 -16,-14 -27,-19 -11,-6 -25,-8 -42,-8 -18,0 -34,3 -48,9 -14,6 -26,15 -36,27 -10,11 -17,26 -23,43 -5,17 -7,35 -7,56 0,44 10,78 30,102 21,24 49,36 86,36 17,0 34,-2 50,-7 15,-4 31,-11 47,-20l0 -61 -59 0c-15,0 -25,-2 -33,-7 -7,-4 -11,-11 -11,-22 0,-8 3,-15 9,-21 7,-5 15,-8 25,-8l88 0c10,0 19,1 27,3 7,2 13,6 18,13 4,6 7,16 7,29zm295 111l-18 -47 -154 0 -18 48c-7,19 -13,32 -18,39 -5,6 -13,10 -25,10 -9,0 -18,-4 -25,-11 -8,-7 -11,-15 -11,-24 0,-5 0,-10 2,-16 2,-5 5,-13 9,-23l97 -246c2,-7 6,-16 10,-26 4,-10 8,-18 12,-24 5,-7 10,-12 17,-16 8,-4 16,-6 27,-6 11,0 20,2 27,6 7,4 13,9 17,15 5,7 8,14 11,21 3,7 7,17 12,29l99 245c8,19 11,32 11,41 0,8 -3,17 -10,24 -8,7 -17,11 -27,11 -6,0 -11,-1 -16,-3 -4,-3 -7,-5 -10,-9 -3,-4 -6,-10 -10,-17 -3,-8 -6,-15 -9,-21zm-152 -105l114 0 -58 -156 -56 156zm368 -191l0 133 151 -157c7,-8 13,-13 18,-17 6,-4 12,-5 21,-5 11,0 20,3 27,9 6,7 10,15 10,24 0,11 -6,22 -17,33l-94 89 108 154c7,11 13,20 17,28 4,8 6,16 6,24 0,8 -4,15 -10,22 -7,6 -16,9 -27,9 -11,0 -20,-2 -27,-7 -6,-5 -12,-11 -17,-18 -4,-8 -9,-15 -12,-21l-91 -140 -63 61 0 78c0,16 -3,28 -11,35 -7,8 -16,12 -28,12 -6,0 -13,-2 -19,-5 -6,-4 -10,-8 -14,-14 -2,-5 -3,-11 -4,-17 0,-7 -1,-16 -1,-28l0 -282c0,-15 4,-27 11,-35 6,-8 16,-11 27,-11 12,0 21,3 28,11 8,8 11,19 11,35zm565 19l-173 0 0 94 159 0c12,0 21,2 27,7 5,6 8,13 8,21 0,9 -3,16 -8,21 -6,6 -15,8 -27,8l-159 0 0 108 179 0c12,0 21,3 27,9 6,5 10,13 10,22 0,9 -4,16 -10,22 -6,6 -15,8 -27,8l-209 0c-17,0 -29,-3 -36,-11 -7,-7 -11,-19 -11,-36l0 -285c0,-11 2,-20 5,-27 3,-7 8,-12 15,-15 7,-3 16,-5 27,-5l203 0c12,0 21,3 27,8 6,6 9,13 9,21 0,9 -3,17 -9,22 -6,6 -15,8 -27,8zm207 158l-27 0 0 122c0,16 -4,28 -11,35 -7,8 -16,12 -27,12 -13,0 -22,-4 -29,-12 -7,-8 -10,-20 -10,-35l0 -292c0,-17 4,-29 11,-36 8,-7 20,-11 36,-11l125 0c17,0 32,1 44,2 13,2 24,5 34,9 11,5 22,12 31,22 9,9 16,20 21,32 5,12 7,25 7,39 0,29 -8,51 -24,68 -16,17 -40,29 -72,36 13,7 26,18 39,32 12,14 23,29 33,45 10,16 17,31 23,44 5,12 8,21 8,26 0,5 -2,10 -5,15 -3,5 -7,9 -13,12 -6,2 -12,4 -19,4 -9,0 -16,-2 -22,-6 -6,-4 -11,-9 -15,-16 -4,-6 -10,-15 -17,-27l-31 -51c-11,-19 -21,-33 -30,-43 -8,-10 -17,-17 -26,-20 -9,-4 -21,-6 -34,-6zm44 -159l-71 0 0 104 69 0c18,0 34,-1 46,-5 13,-3 23,-8 29,-16 7,-8 10,-18 10,-32 0,-10 -2,-20 -8,-28 -5,-8 -13,-14 -22,-18 -9,-3 -27,-5 -53,-5zm454 -18l0 199c0,17 0,32 -2,44 -1,12 -5,24 -10,37 -8,20 -23,37 -43,48 -19,12 -44,18 -72,18 -26,0 -47,-4 -64,-12 -18,-8 -31,-22 -42,-40 -5,-9 -10,-20 -13,-33 -4,-13 -5,-25 -5,-36 0,-12 3,-21 10,-28 6,-6 15,-9 25,-9 11,0 18,3 23,9 6,6 10,15 12,27 3,13 6,24 9,32 3,8 8,15 15,20 7,6 17,9 29,9 34,0 51,-25 51,-75l0 -210c0,-15 4,-27 11,-35 6,-8 16,-11 28,-11 11,0 21,3 28,11 7,8 10,20 10,35zm313 296l-18 -47 -154 0 -18 48c-7,19 -13,32 -18,39 -5,6 -13,10 -25,10 -9,0 -18,-4 -25,-11 -8,-7 -12,-15 -12,-24 0,-5 1,-10 3,-16 2,-5 5,-13 9,-23l97 -246c2,-7 6,-16 10,-26 3,-10 8,-18 12,-24 4,-7 10,-12 17,-16 7,-4 16,-6 27,-6 11,0 19,2 27,6 7,4 13,9 17,15 4,7 8,14 11,21 3,7 7,17 12,29l99 245c7,19 11,32 11,41 0,8 -3,17 -11,24 -7,7 -16,11 -26,11 -6,0 -11,-1 -16,-3 -4,-3 -8,-5 -11,-9 -3,-4 -6,-10 -9,-17 -3,-8 -6,-15 -9,-21zm-152 -105l114 0 -58 -156 -56 156zm533 105l-18 -47 -154 0 -18 48c-7,19 -13,32 -18,39 -5,6 -13,10 -25,10 -9,0 -18,-4 -25,-11 -8,-7 -11,-15 -11,-24 0,-5 0,-10 2,-16 2,-5 5,-13 9,-23l97 -246c3,-7 6,-16 10,-26 4,-10 8,-18 12,-24 5,-7 10,-12 17,-16 8,-4 16,-6 27,-6 11,0 20,2 27,6 7,4 13,9 17,15 5,7 8,14 11,21 3,7 7,17 12,29l99 245c8,19 12,32 12,41 0,8 -4,17 -11,24 -8,7 -17,11 -27,11 -6,0 -11,-1 -16,-3 -4,-3 -7,-5 -10,-9 -3,-4 -6,-10 -10,-17 -3,-8 -6,-15 -9,-21zm-152 -105l114 0 -57 -156 -57 156zm391 -191l148 223 0 -225c0,-15 3,-26 9,-33 7,-8 15,-11 26,-11 11,0 19,3 26,11 6,7 9,18 9,33l0 298c0,33 -13,50 -41,50 -7,0 -13,-1 -19,-3 -5,-2 -10,-5 -15,-10 -5,-4 -9,-9 -14,-15 -4,-6 -8,-11 -12,-17l-144 -221 0 222c0,14 -3,25 -10,33 -7,7 -16,11 -26,11 -11,0 -20,-4 -26,-11 -7,-8 -10,-19 -10,-33l0 -293c0,-12 1,-22 4,-29 3,-8 9,-14 16,-19 8,-5 16,-7 25,-7 7,0 13,1 18,3 5,2 9,5 13,9 3,4 7,9 11,15 4,6 8,12 12,19z"/>
    <path class="fil1 str0" d="M3788 2167l-27 0 0 122c0,16 -4,28 -11,35 -7,8 -16,12 -27,12 -13,0 -22,-4 -29,-12 -7,-8 -10,-20 -10,-35l0 -292c0,-17 4,-29 11,-36 8,-8 20,-11 36,-11l125 0c17,0 32,0 44,2 13,1 24,4 34,9 11,5 22,12 31,21 9,10 16,21 21,33 5,12 7,25 7,39 0,28 -8,51 -24,68 -16,17 -40,29 -72,36 13,7 26,18 39,32 12,14 23,29 33,45 10,16 17,30 23,43 5,13 8,22 8,27 0,5 -2,10 -5,15 -3,5 -7,9 -13,11 -6,3 -12,5 -19,5 -9,0 -16,-2 -22,-6 -6,-5 -11,-10 -15,-16 -4,-6 -10,-15 -17,-27l-31 -51c-11,-19 -21,-34 -30,-43 -8,-10 -17,-17 -26,-21 -9,-3 -21,-5 -34,-5zm44 -159l-71 0 0 104 69 0c18,0 34,-2 46,-5 13,-3 23,-8 29,-16 7,-8 10,-18 10,-32 0,-10 -2,-20 -8,-28 -5,-8 -13,-14 -22,-18 -9,-4 -27,-5 -53,-5zm484 1l-173 0 0 93 159 0c12,0 21,3 26,8 6,5 9,12 9,21 0,9 -3,16 -8,21 -6,5 -15,8 -27,8l-159 0 0 108 179 0c12,0 21,3 27,9 6,5 9,13 9,22 0,9 -3,16 -9,22 -6,5 -15,8 -27,8l-209 0c-17,0 -29,-3 -36,-11 -8,-7 -11,-19 -11,-36l0 -285c0,-11 1,-20 5,-27 3,-7 8,-12 15,-15 7,-4 16,-5 27,-5l203 0c12,0 21,2 27,8 6,5 9,13 9,21 0,9 -3,17 -9,22 -6,5 -15,8 -27,8zm251 172l-71 0 0 108c0,15 -3,27 -11,35 -7,8 -16,12 -27,12 -12,0 -21,-4 -28,-12 -7,-8 -11,-20 -11,-35l0 -292c0,-17 4,-29 12,-36 8,-8 20,-11 37,-11l99 0c29,0 51,2 67,6 15,5 29,12 40,22 11,10 20,22 26,37 6,14 9,31 9,49 0,38 -12,68 -36,88 -24,19 -59,29 -106,29zm-19 -173l-52 0 0 116 52 0c18,0 33,-2 45,-6 13,-4 22,-10 28,-19 7,-8 10,-20 10,-34 0,-16 -5,-30 -15,-41 -11,-11 -34,-16 -68,-16zm225 164l0 -182c0,-16 4,-27 11,-35 7,-8 16,-12 27,-12 12,0 22,4 29,12 7,8 10,19 10,35l0 187c0,21 3,39 7,53 5,14 14,25 26,33 12,8 29,12 50,12 30,0 52,-8 64,-24 12,-16 19,-40 19,-73l0 -188c0,-16 3,-27 10,-35 7,-8 16,-12 28,-12 11,0 21,4 28,12 7,8 10,19 10,35l0 182c0,30 -2,55 -8,75 -6,20 -17,37 -33,52 -14,13 -30,22 -48,28 -18,6 -40,9 -64,9 -29,0 -54,-4 -76,-10 -21,-6 -38,-16 -51,-29 -13,-13 -23,-30 -29,-51 -7,-20 -10,-45 -10,-74zm565 157l-116 0c-17,0 -29,-3 -36,-11 -7,-7 -11,-19 -11,-36l0 -285c0,-17 4,-29 11,-36 7,-8 19,-11 36,-11l123 0c18,0 34,1 47,3 13,2 25,7 36,13 9,5 16,12 23,20 7,9 13,18 16,28 4,10 6,20 6,31 0,38 -19,66 -57,83 50,16 74,47 74,93 0,21 -5,40 -16,57 -11,17 -25,30 -44,38 -11,5 -25,8 -40,10 -15,2 -32,3 -52,3zm-6 -168l-80 0 0 110 83 0c52,0 78,-18 78,-56 0,-19 -7,-33 -21,-41 -13,-9 -33,-13 -60,-13zm-80 -153l0 98 70 0c20,0 34,-2 45,-6 10,-4 18,-10 24,-21 4,-7 6,-15 6,-24 0,-19 -7,-32 -20,-38 -14,-6 -35,-9 -63,-9l-62 0zm380 -18l0 276 156 0c12,0 22,3 28,9 7,6 10,14 10,23 0,9 -3,17 -9,23 -7,5 -17,8 -29,8l-186 0c-16,0 -28,-3 -36,-11 -7,-7 -11,-19 -11,-36l0 -292c0,-16 4,-27 11,-35 7,-8 16,-12 27,-12 12,0 21,4 28,12 7,8 11,19 11,35zm248 299l0 -299c0,-16 4,-27 11,-35 7,-8 16,-12 27,-12 12,0 21,4 28,12 7,8 11,19 11,35l0 299c0,16 -4,27 -11,35 -7,8 -16,12 -28,12 -11,0 -20,-4 -27,-12 -7,-8 -11,-20 -11,-35zm240 -299l0 133 151 -157c7,-8 14,-14 19,-17 5,-4 12,-6 20,-6 11,0 20,4 27,10 7,7 10,14 10,24 0,11 -6,22 -17,33l-94 89 108 154c7,11 13,20 17,28 4,8 6,16 6,23 0,9 -4,16 -10,22 -7,7 -16,10 -27,10 -11,0 -20,-3 -27,-7 -6,-5 -12,-11 -17,-18 -4,-8 -8,-15 -12,-21l-91 -140 -63 60 0 79c0,16 -3,27 -11,35 -7,8 -16,12 -28,12 -6,0 -12,-2 -18,-6 -7,-3 -11,-8 -14,-14 -3,-4 -4,-10 -5,-16 0,-7 -1,-16 -1,-28l0 -282c0,-16 4,-27 11,-35 6,-8 16,-12 27,-12 12,0 21,4 28,12 8,8 11,19 11,35zm451 299l0 -299c0,-16 3,-27 10,-35 8,-8 17,-12 28,-12 11,0 21,4 28,12 7,8 11,19 11,35l0 299c0,16 -4,27 -11,35 -7,8 -17,12 -28,12 -11,0 -20,-4 -27,-12 -8,-8 -11,-20 -11,-35zm263 -299l148 223 0 -226c0,-14 3,-25 9,-33 6,-7 15,-11 26,-11 10,0 19,4 26,11 6,8 9,19 9,33l0 299c0,33 -14,50 -41,50 -7,0 -13,-1 -19,-3 -5,-2 -11,-6 -15,-10 -5,-4 -10,-9 -14,-15 -4,-6 -8,-12 -12,-18l-144 -220 0 222c0,14 -4,25 -10,32 -7,8 -16,12 -26,12 -11,0 -20,-4 -26,-12 -7,-7 -10,-18 -10,-32l0 -293c0,-12 1,-22 4,-29 3,-8 9,-14 16,-19 8,-5 16,-8 25,-8 7,0 13,2 17,4 5,2 10,5 13,9 4,4 8,9 12,15 4,6 8,12 12,19zm350 -40l100 0c26,0 49,2 67,7 19,5 36,14 51,27 39,34 59,86 59,155 0,22 -2,43 -6,62 -4,19 -10,36 -18,51 -8,15 -19,28 -32,40 -10,9 -21,17 -33,22 -12,6 -25,10 -39,12 -14,2 -30,3 -47,3l-100 0c-14,0 -25,-2 -32,-6 -7,-4 -12,-10 -14,-18 -2,-8 -3,-18 -3,-30l0 -278c0,-17 4,-29 11,-36 7,-8 19,-11 36,-11zm30 61l0 257 58 0c13,0 23,0 30,-1 7,0 15,-2 23,-5 7,-3 14,-7 20,-12 25,-21 38,-59 38,-112 0,-37 -5,-65 -17,-84 -11,-19 -25,-31 -41,-36 -17,-5 -37,-7 -60,-7l-51 0zm482 -68c39,0 73,8 101,24 28,16 49,39 64,68 14,30 22,64 22,104 0,29 -4,56 -12,80 -8,24 -20,45 -36,62 -16,18 -35,31 -58,41 -24,9 -50,14 -80,14 -29,0 -56,-5 -79,-15 -24,-9 -44,-23 -59,-40 -16,-18 -28,-39 -36,-63 -8,-25 -12,-51 -12,-80 0,-29 4,-55 13,-80 8,-24 20,-45 36,-62 16,-17 35,-30 58,-39 23,-9 49,-14 78,-14zm109 195c0,-27 -5,-51 -14,-72 -9,-20 -21,-36 -38,-46 -17,-10 -36,-16 -57,-16 -16,0 -30,3 -43,9 -13,6 -24,14 -34,25 -9,11 -16,25 -22,43 -5,17 -8,36 -8,57 0,22 3,42 8,59 6,17 13,32 23,43 10,12 22,20 34,26 13,6 27,9 43,9 19,0 37,-5 54,-15 16,-10 29,-25 39,-46 10,-20 15,-46 15,-76zm244 -148l147 223 0 -226c0,-14 4,-25 10,-33 6,-7 15,-11 25,-11 11,0 20,4 26,11 7,8 10,19 10,33l0 299c0,33 -14,50 -41,50 -7,0 -13,-1 -19,-3 -5,-2 -11,-6 -15,-10 -5,-4 -10,-9 -14,-15 -4,-6 -8,-12 -12,-18l-144 -220 0 222c0,14 -4,25 -10,32 -7,8 -16,12 -26,12 -11,0 -20,-4 -27,-12 -6,-7 -10,-18 -10,-32l0 -293c0,-12 2,-22 5,-29 3,-8 8,-14 16,-19 8,-5 16,-8 25,-8 7,0 12,2 17,4 5,2 10,5 13,9 4,4 8,9 12,15 4,6 8,12 12,19zm552 19l-173 0 0 93 159 0c12,0 21,3 27,8 6,5 8,12 8,21 0,9 -2,16 -8,21 -6,5 -15,8 -27,8l-159 0 0 108 179 0c12,0 21,3 27,9 7,5 10,13 10,22 0,9 -3,16 -10,22 -6,5 -15,8 -27,8l-209 0c-16,0 -28,-3 -36,-11 -7,-7 -11,-19 -11,-36l0 -285c0,-11 2,-20 5,-27 3,-7 9,-12 15,-15 7,-4 16,-5 27,-5l203 0c12,0 22,2 27,8 6,5 9,13 9,21 0,9 -3,17 -9,22 -5,5 -15,8 -27,8zm392 206c0,23 -6,44 -18,62 -11,19 -29,33 -52,43 -22,11 -49,16 -81,16 -37,0 -68,-7 -92,-21 -17,-11 -31,-24 -42,-41 -11,-17 -16,-34 -16,-50 0,-9 3,-17 9,-24 7,-6 15,-10 25,-10 8,0 15,3 21,8 5,5 10,13 14,23 5,12 10,22 16,30 5,9 13,15 23,21 10,5 24,7 40,7 23,0 42,-5 56,-15 14,-11 21,-24 21,-40 0,-13 -4,-23 -11,-31 -8,-8 -18,-14 -30,-18 -12,-4 -29,-8 -49,-13 -27,-6 -50,-14 -68,-22 -19,-9 -33,-21 -44,-35 -11,-15 -16,-34 -16,-56 0,-20 6,-39 17,-55 11,-16 28,-29 49,-38 22,-8 47,-13 76,-13 24,0 44,3 61,9 17,6 31,14 42,23 11,10 20,20 25,30 5,11 8,21 8,31 0,9 -4,17 -10,25 -7,7 -15,11 -24,11 -9,0 -16,-2 -20,-7 -5,-4 -10,-11 -15,-21 -7,-15 -15,-26 -25,-34 -10,-8 -25,-12 -47,-12 -20,0 -36,4 -48,13 -12,9 -18,19 -18,32 0,7 2,14 6,19 4,6 10,10 17,14 7,4 15,8 22,10 8,2 20,5 37,10 21,5 41,10 58,16 17,6 32,14 44,22 13,9 22,20 29,33 7,13 10,29 10,48zm68 74l0 -299c0,-16 4,-27 11,-35 7,-8 16,-12 28,-12 11,0 20,4 28,12 7,8 10,19 10,35l0 299c0,16 -3,27 -10,35 -8,8 -17,12 -28,12 -12,0 -21,-4 -28,-12 -7,-8 -11,-20 -11,-35zm406 -3l-18 -47 -154 0 -18 48c-8,19 -14,32 -19,39 -5,6 -13,10 -24,10 -10,0 -18,-4 -26,-11 -7,-7 -11,-15 -11,-24 0,-5 1,-11 3,-16 1,-6 4,-13 8,-23l97 -246c3,-7 6,-16 10,-26 4,-10 8,-18 13,-25 4,-6 10,-11 17,-16 7,-4 16,-6 27,-6 10,0 19,2 26,6 8,5 13,10 18,16 4,6 8,13 11,21 3,7 7,17 11,29l99 245c8,18 12,32 12,40 0,9 -4,17 -11,25 -7,7 -16,11 -26,11 -6,0 -12,-1 -16,-4 -4,-2 -8,-5 -11,-8 -3,-4 -6,-10 -9,-17 -4,-8 -7,-15 -9,-21zm-152 -105l113 0 -57 -157 -56 157z"/>
   </g>
  </g>
 </g>
</svg>
