<?xml version="1.0" encoding="UTF-8"?>
<!DOCTYPE svg PUBLIC "-//W3C//DTD SVG 1.1//EN" "http://www.w3.org/Graphics/SVG/1.1/DTD/svg11.dtd">
<!-- Creator: CorelDRAW X7 -->
<svg xmlns="http://www.w3.org/2000/svg" xml:space="preserve" width="30.1414mm" height="44.2357mm" version="1.1" style="shape-rendering:geometricPrecision; text-rendering:geometricPrecision; image-rendering:optimizeQuality; fill-rule:evenodd; clip-rule:evenodd"
viewBox="0 0 358 526"
 xmlns:xlink="http://www.w3.org/1999/xlink">
 <defs>
  <style type="text/css">
   <![CDATA[
    .fil2 {fill:#00AEEF}
    .fil1 {fill:#ED1B24}
    .fil0 {fill:#FEF200}
   ]]>
  </style>
 </defs>
 <g id="Layer_x0020_1">
  <metadata id="CorelCorpID_0Corel-Layer"/>
  <g id="_1455257906848">
   <path class="fil0" d="M171 122c30,-4 42,15 60,7 5,-2 7,-5 13,-7 14,-3 40,2 42,10l0 22c-7,-3 -11,-7 -22,-9 -16,-2 -16,2 -26,5 -6,10 -10,26 -15,37 14,-1 14,-9 32,-9 11,0 27,3 31,10l0 23c-5,-2 -9,-6 -16,-8 -30,-9 -30,13 -56,7l-12 29c32,10 25,1 42,-4 13,-3 38,0 42,10l0 22c-12,-5 -26,-17 -46,-5 -20,12 -28,3 -46,-3 -4,7 -9,22 -12,31 -3,8 -10,23 -12,30l12 -63c-26,1 -33,19 -56,7 -26,-14 -33,-4 -54,3l0 -22c1,-5 31,-18 56,-6 13,6 14,6 28,0 10,-4 18,-6 30,-5l7 -32c-13,0 -17,-3 -30,3 -6,2 -16,8 -24,6l-39 16 8 -26c-25,2 -19,4 -36,10l0 -23c5,-8 32,-11 43,-10l9 -28c-10,-4 -13,-7 -27,-5 -11,2 -16,6 -25,9l0 -22c4,-6 20,-10 28,-11 15,-1 19,3 31,6 5,-8 20,-64 25,-78l45 0c0,5 -12,30 -15,37 -5,10 -12,25 -15,36zm-171 237l358 0 0 -359 -358 0 0 359z"/>
   <path class="fil1" d="M131 127c0,3 -5,20 -7,23l-9 28 -7 23 -8 26 39 -16 57 -25 -3 16 -7 32 -4 23 -12 63c2,-7 9,-22 12,-30 3,-9 8,-24 12,-31l8 -20 12 -29 9 -23c5,-11 9,-27 15,-37l5 -15 -40 15c-2,2 -49,21 -54,22l10 -22 12 -28c3,-11 10,-26 15,-36 3,-7 15,-32 15,-37l-45 0c-5,14 -20,70 -25,78z"/>
   <path class="fil2" d="M257 417l0 106c0,5 10,3 25,3 5,0 3,-8 3,-14l0 -50 39 57c7,9 3,7 34,7l0 -112 -27 0 0 66c-9,-10 -43,-66 -48,-66 -15,0 -26,-2 -26,3z"/>
   <path class="fil2" d="M47 467l-20 0 0 -29c27,0 34,-3 34,17 0,7 -6,12 -14,12zm-47 59l27 0 0 -35c20,0 37,3 51,-9 19,-16 17,-68 -25,-68l-53 0 0 112z"/>
   <path class="fil2" d="M132 526l77 0c3,0 3,-1 3,-3l0 -22 -53 0 0 -87 -27 0 0 112z"/>
   <path class="fil2" d="M182 257l4 -23c-12,-1 -20,1 -30,5 -14,6 -15,6 -28,0 -25,-12 -55,1 -56,6l0 22c21,-7 28,-17 54,-3 23,12 30,-6 56,-7z"/>
   <path class="fil2" d="M171 122l-12 28c17,-7 28,-8 44,0l40 -15 -5 15c10,-3 10,-7 26,-5 11,2 15,6 22,9l0 -22c-2,-8 -28,-13 -42,-10 -6,2 -8,5 -13,7 -18,8 -30,-11 -60,-7z"/>
   <path class="fil2" d="M202 239l-8 20c18,6 26,15 46,3 20,-12 34,0 46,5l0 -22c-4,-10 -29,-13 -42,-10 -17,5 -10,14 -42,4z"/>
   <path class="fil2" d="M223 187l-9 23c26,6 26,-16 56,-7 7,2 11,6 16,8l0 -23c-4,-7 -20,-10 -31,-10 -18,0 -18,8 -32,9z"/>
   <path class="fil2" d="M124 150c2,-3 7,-20 7,-23 -12,-3 -16,-7 -31,-6 -8,1 -24,5 -28,11l0 22c9,-3 14,-7 25,-9 14,-2 17,1 27,5z"/>
   <path class="fil2" d="M108 201l7 -23c-11,-1 -38,2 -43,10l0 23c17,-6 11,-8 36,-10z"/>
   <path class="fil0" d="M159 150l-10 22c5,-1 52,-20 54,-22 -16,-8 -27,-7 -44,0z"/>
   <path class="fil2" d="M139 211c8,2 18,-4 24,-6 13,-6 17,-3 30,-3l3 -16 -57 25z"/>
  </g>
 </g>
</svg>
