<?xml version="1.0" encoding="UTF-8"?>
<!DOCTYPE svg PUBLIC "-//W3C//DTD SVG 1.1//EN" "http://www.w3.org/Graphics/SVG/1.1/DTD/svg11.dtd">
<!-- Creator: CorelDRAW X7 -->
<svg xmlns="http://www.w3.org/2000/svg" xml:space="preserve" width="142.706mm" height="76.7518mm" version="1.1" style="shape-rendering:geometricPrecision; text-rendering:geometricPrecision; image-rendering:optimizeQuality; fill-rule:evenodd; clip-rule:evenodd"
viewBox="0 0 4785 2574"
 xmlns:xlink="http://www.w3.org/1999/xlink">
 <defs>
  <style type="text/css">
   <![CDATA[
    .fil1 {fill:#1B68B0}
    .fil0 {fill:#F48634}
   ]]>
  </style>
 </defs>
 <g id="Layer_x0020_1">
  <metadata id="CorelCorpID_0Corel-Layer"/>
  <g id="_1455243220464">
   <path class="fil0" d="M2399 772c19,0 36,-8 54,-12l320 -85c18,-5 37,-9 56,-15 36,-10 70,-17 106,-26l222 -51c38,-10 77,-16 112,-25 74,-17 148,-30 224,-45 142,-29 322,-57 467,-79l211 -27c4,0 11,-1 14,-1l13 -3c18,-6 18,-24 32,-53 6,-11 7,-16 12,-27 5,-12 9,-18 14,-29l50 -115c16,11 132,129 147,149 31,39 129,121 149,152 -68,36 -217,130 -292,175 -17,10 -277,171 -297,176l65 -146c8,-15 17,-33 21,-49l-396 48c-359,52 -779,122 -1131,211 -185,46 -347,85 -528,138 -167,49 -352,104 -514,161 -56,20 -111,38 -165,57 -28,11 -53,20 -83,30l-80 33 185 -37c64,-13 122,-24 187,-35 65,-12 127,-22 190,-33 195,-32 600,-93 787,-109l301 -35c36,-4 67,-6 102,-10l515 -47c121,-18 392,-26 525,-37 17,-1 37,1 54,0 140,-7 242,-12 383,-12 8,-35 153,-413 177,-478 13,-38 170,-450 177,-481 -85,0 -585,117 -653,134 -214,54 -414,112 -613,178l-218 76c-26,10 -47,17 -74,27l-283 111c-73,29 -268,112 -342,149 -12,5 -24,10 -35,15 -13,6 -21,11 -35,16 -7,3 -121,55 -133,66z"/>
   <path class="fil1" d="M8 1852l857 -126c43,-6 80,-10 124,-16 213,-29 425,-43 637,-65l324 -27c28,0 40,-4 67,-3 37,0 71,-7 97,-8 12,-1 24,0 35,0 17,-1 15,-3 31,-4l102 -4c46,-3 84,-8 133,-8l132 -8c49,-1 88,-4 137,-4 27,1 38,-4 66,-4 22,1 47,2 68,-1 81,-12 191,2 274,-7 67,-7 484,-7 555,-7 187,0 374,0 561,0l137 -363c-24,0 -54,2 -77,-1l-305 1c-30,0 -44,4 -74,4 -56,0 -100,4 -153,4l-222 11c-13,2 -26,0 -39,1 -17,1 -16,3 -35,4 -107,3 -333,21 -436,31 -291,31 -543,59 -833,103 -216,34 -459,73 -666,118 -88,19 -171,34 -259,53 -225,50 -408,97 -628,152 -122,30 -251,70 -368,100l-242 74z"/>
   <path class="fil1" d="M1638 2180c-13,0 -7,-46 -7,-70 53,0 70,-6 70,39 0,30 -33,31 -63,31zm-81 -113l0 257c0,19 26,12 74,12l0 -105c46,0 49,-3 72,44 9,17 25,44 29,61l78 0c-1,-12 -45,-120 -82,-129 8,-11 18,-11 31,-24 24,-26 40,-128 -78,-128l-113 0c-9,0 -11,3 -11,12z"/>
   <path class="fil1" d="M886 2324c0,19 26,12 74,12l0 -109 75 77c15,15 16,31 42,32 24,1 53,0 78,0l-129 -140 129 -141c-126,0 -73,-15 -157,69l-38 40 0 -109 -74 0 0 269z"/>
   <path class="fil1" d="M3116 2125l39 106 -74 0c6,-12 34,-94 35,-106zm-144 211l74 0 16 -51 113 0 16 51 74 0c-11,-48 -91,-236 -102,-281l-89 0c-6,23 -16,47 -25,69l-77 212z"/>
   <path class="fil1" d="M2617 2125c2,16 11,39 17,54 7,17 11,37 18,52l-74 0c11,-22 22,-69 33,-93l5 -10c0,-1 1,-2 1,-3zm-148 211l74 0 16 -51 113 0 16 51 74 0 -89 -243c-5,-13 -10,-24 -13,-38l-90 0c-8,35 -99,260 -101,281z"/>
   <path class="fil1" d="M1241 2336l183 0c16,0 12,-14 12,-47 0,-9 -3,-12 -12,-12l-109 0 0 -58 109 0c16,0 12,-14 12,-47 0,-9 -3,-12 -12,-12l-109 0 0 -50 121 0c0,-38 5,-55 -12,-55l-183 0 0 281z"/>
   <polygon class="fil1" points="1911,2336 2103,2336 2103,2277 1986,2277 1986,2219 2103,2219 2103,2160 1986,2160 1986,2110 2103,2110 2103,2055 1911,2055 "/>
   <path class="fil1" d="M3467 2184l-39 0 0 -74 39 0c27,0 41,13 42,35 1,25 -15,39 -42,39zm-113 152l74 0 0 -98c84,0 156,4 156,-101 0,-101 -147,-82 -230,-82l0 281z"/>
   <path class="fil1" d="M2196 2067l0 43 82 0 0 214c0,19 26,12 74,12l0 -215c0,-19 31,-11 82,-11l0 -55 -226 0c-9,0 -12,3 -12,12z"/>
   <path class="fil1" d="M3655 2067l0 257c0,19 26,12 74,12l0 -281c-48,0 -74,-7 -74,12z"/>
   <path class="fil1" d="M2426 2550c23,-2 16,-7 16,-66l43 66 15 0 0 -93c-23,2 -15,6 -15,62 -10,-7 -18,-22 -25,-33 -23,-35 -13,-29 -34,-29l0 93z"/>
   <path class="fil1" d="M2103 2539c0,11 1,7 7,11 14,-10 8,-27 8,-66l43 66 16 0 0 -93c-23,2 -16,6 -16,62 -9,-7 -17,-22 -25,-33 -23,-35 -12,-29 -33,-29l0 82z"/>
   <path class="fil1" d="M3530 2496l-31 0 0 -28 19 0c12,0 23,4 23,16 0,9 -2,12 -11,12zm-47 54c19,-1 16,1 16,-39 54,0 24,36 62,39 -1,-16 -16,-31 -23,-43 40,-21 12,-50 -12,-50l-43 0 0 93z"/>
   <path class="fil1" d="M1373 2496l-31 0 0 -28 23 0c11,0 11,2 20,4 0,14 2,24 -12,24zm-47 54c19,-1 16,1 16,-39 56,0 23,38 66,39l-27 -43c26,-13 21,-20 16,-42 -23,-11 -41,-8 -71,-8l0 93z"/>
   <path class="fil1" d="M3226 2496l-32 0 0 -28 24 0c10,0 11,2 19,4 0,14 3,24 -11,24zm-47 -28c0,77 -7,81 15,82l0 -39c31,0 26,-2 41,22 7,12 7,17 26,17 -5,-16 -19,-30 -28,-43 24,-12 23,-12 16,-42 -11,-6 -70,-20 -70,3z"/>
   <path class="fil1" d="M2251 2535l-28 0 0 -67c21,0 47,5 47,24l0 15c0,14 -7,28 -19,28zm-43 -67c0,90 -7,82 23,82 82,0 61,-93 16,-93 -28,0 -39,-4 -39,11z"/>
   <path class="fil1" d="M2531 2468c0,100 -16,82 71,82l0 -15 -55 0 0 -28 51 0 0 -11 -51 0 0 -28 55 0c-5,-16 -4,-11 -59,-11 -9,0 -12,3 -12,11z"/>
   <path class="fil1" d="M1432 2550l70 0 0 -15 -55 0 0 -28 39 0c15,0 2,2 12,-3 -8,-12 -4,-8 -51,-8l0 -28 51 0 0 -11 -66 0 0 93z"/>
   <path class="fil1" d="M3081 2550c50,0 60,6 71,-7 -9,-13 -7,-8 -55,-8l0 -28 47 0 0 -11 -47 0 0 -28 51 0 0 -11 -67 0 0 93z"/>
   <path class="fil1" d="M3631 2539c-44,0 -38,-71 -4,-71 45,0 39,71 4,71zm-47 -39c0,30 16,50 47,50 51,0 64,-93 -8,-93 -21,0 -39,22 -39,43z"/>
   <path class="fil1" d="M2325 2507c0,-52 58,-54 58,0 0,44 -58,39 -58,0zm27 43c63,0 64,-93 0,-93 -55,0 -52,93 0,93z"/>
   <path class="fil1" d="M1229 2550c49,0 60,6 70,-7 -9,-13 -10,-8 -58,-8l0 -28 50 0 0 -11 -50 0c0,-36 4,-28 54,-28l0 -11 -66 0 0 93z"/>
   <polygon class="fil1" points="3386,2550 3452,2550 3452,2535 3397,2535 3397,2507 3448,2507 3448,2496 3397,2496 3397,2468 3452,2468 3452,2457 3386,2457 "/>
   <path class="fil1" d="M1128 2468l0 71c0,11 1,7 7,11 13,-9 8,-21 8,-43 32,22 35,51 59,39l-44 -45 41 -43c-32,-1 -35,20 -56,34l0 -35c-11,1 -15,0 -15,11z"/>
   <path class="fil1" d="M3343 2523c-12,22 10,-10 -3,5 -5,6 0,2 -6,6 -16,10 -25,3 -33,-5 -15,-12 7,-9 -21,-10 12,24 11,31 43,31 30,0 52,-40 4,-54 -23,-6 -27,1 -27,-24 13,-3 16,-8 33,2 17,11 -8,7 17,10 -4,-53 -88,-20 -59,13 15,17 36,3 52,26z"/>
   <path class="fil1" d="M1892 2500l-27 0 0 -32 11 0c14,0 32,2 32,16 0,9 -7,16 -16,16zm-43 -32c0,77 -7,81 16,82l0 -39 35 0c22,0 41,-54 -16,-54 -25,0 -35,-4 -35,11z"/>
   <path class="fil1" d="M929 2500l-28 0 0 -32c12,0 23,1 29,3 13,4 13,4 14,21 -7,5 -7,8 -15,8zm-43 -32c0,77 -7,81 15,82l0 -39c48,0 55,2 55,-35 0,-22 -70,-31 -70,-8z"/>
   <path class="fil1" d="M2687 2527c-14,20 -41,14 -46,-8l-12 0c2,73 149,0 16,-31 1,-20 7,-20 23,-20 20,0 0,15 31,16 -12,-53 -91,-20 -63,12 17,19 44,4 51,31z"/>
   <path class="fil1" d="M1642 2476c9,7 15,22 16,35l-27 0c5,-10 10,-20 11,-35zm-39 74c14,0 16,7 24,-27l39 0c0,2 4,17 5,18 6,12 2,9 18,9 -7,-32 -27,-60 -35,-93 -19,0 -15,-2 -22,13l-29 80z"/>
   <path class="fil1" d="M1787 2472c1,19 8,24 11,39l-27 0 16 -39zm-43 78c41,-3 -12,-27 50,-27 25,0 1,25 32,27 -1,-19 -19,-53 -27,-74 -6,-16 -2,-15 -16,-19 -12,8 -16,28 -23,44 -4,12 -15,37 -16,49z"/>
   <path class="fil1" d="M2808 2476c11,8 15,19 16,35l-23 0c1,-16 6,-18 7,-35zm-35 74l12 0 8 -27 39 0c8,33 9,27 23,27 -1,-18 -29,-68 -35,-93l-16 0c-6,28 -30,65 -31,93z"/>
   <path class="fil1" d="M3023 2500l-27 0 0 -32 11 0c14,0 31,2 31,16 0,9 -6,16 -15,16zm-39 50l12 0 0 -39c20,0 58,5 58,-27 0,-33 -46,-27 -70,-27l0 93z"/>
   <path class="fil1" d="M1525 2468l28 0c0,77 -7,81 15,82l0 -82 28 0 0 -11 -71 0 0 11z"/>
   <path class="fil1" d="M979 2468c39,0 32,-11 32,82l11 0 0 -82 31 0 0 -11 -74 0 0 11z"/>
   <path class="fil1" d="M1950 2539c0,11 5,10 16,11l0 -93 -16 0 0 82z"/>
   <path class="fil1" d="M2925 2507c0,24 2,60 28,67 -7,-31 -34,-61 4,-117 -24,2 -32,28 -32,50z"/>
   <path class="fil1" d="M2056 2550c11,-1 15,0 15,-11l0 -71c0,-11 -4,-10 -15,-11l0 93z"/>
   <path class="fil1" d="M2730 2468l0 71c0,11 5,10 16,11l0 -93c-11,1 -16,0 -16,11z"/>
   <path class="fil1" d="M3717 2511c0,38 -10,37 -16,63 14,-4 14,-7 20,-20 11,-23 11,-54 0,-78 -6,-12 -6,-15 -20,-19 5,19 16,31 16,54z"/>
   <polygon class="fil1" points="8,1852 0,1854 "/>
   <polygon class="fil0" points="2399,772 2391,774 "/>
  </g>
 </g>
</svg>
