<?xml version="1.0" encoding="UTF-8"?>
<!DOCTYPE svg PUBLIC "-//W3C//DTD SVG 1.1//EN" "http://www.w3.org/Graphics/SVG/1.1/DTD/svg11.dtd">
<!-- Creator: CorelDRAW X7 -->
<svg xmlns="http://www.w3.org/2000/svg" xml:space="preserve" width="39.5356mm" height="24.2176mm" version="1.1" style="shape-rendering:geometricPrecision; text-rendering:geometricPrecision; image-rendering:optimizeQuality; fill-rule:evenodd; clip-rule:evenodd"
viewBox="0 0 4081 2500"
 xmlns:xlink="http://www.w3.org/1999/xlink">
 <defs>
  <style type="text/css">
   <![CDATA[
    .fil3 {fill:#332C2B}
    .fil2 {fill:#064C88}
    .fil0 {fill:#096DA9}
    .fil1 {fill:#0A91CE}
    .fil5 {fill:#368BB1}
    .fil4 {fill:#75A4BB}
    .fil6 {fill:white}
   ]]>
  </style>
 </defs>
 <g id="Layer_x0020_1">
  <metadata id="CorelCorpID_0Corel-Layer"/>
  <g id="_1455243219856">
   <path class="fil0" d="M3029 1366c66,-101 132,-286 129,-444l-460 0c-10,136 -19,221 -63,347 -7,19 -36,85 -35,97l429 0z"/>
   <path class="fil1" d="M3951 1366c31,-40 72,-142 89,-196 16,-51 48,-191 39,-247l-460 0c-3,20 -2,47 -3,67 -6,90 -31,196 -60,279 -7,19 -36,86 -36,97l431 0z"/>
   <path class="fil2" d="M1682 1365c33,-58 65,-121 88,-198 18,-59 45,-176 39,-244l-459 1c-8,93 -11,155 -32,239 -9,38 -18,69 -31,105l-36 97 431 0z"/>
   <path class="fil2" d="M563 1362c-3,-19 -29,-75 -37,-100 -46,-130 -52,-198 -65,-339l-461 2c-7,109 64,358 127,435l436 2z"/>
   <path class="fil2" d="M460 878c7,-81 9,-140 27,-218 8,-34 16,-64 26,-96 9,-26 29,-74 32,-93l-431 -1c-10,6 -10,11 -15,22 -29,63 -42,85 -64,161 -16,55 -38,162 -34,225l459 0z"/>
   <path class="fil2" d="M1261 474c38,120 57,151 77,282 6,38 6,71 10,109 2,17 1,13 19,14l87 -1c113,0 248,3 355,0 5,-125 -52,-314 -107,-402l-441 -2z"/>
   <path class="fil0" d="M2609 473c6,26 23,63 32,91 10,32 19,63 27,95 8,37 14,69 20,106 5,32 4,87 10,113l460 -1c5,-95 -31,-228 -66,-316 -7,-17 -12,-28 -20,-45 -2,-5 -3,-8 -5,-11 -2,-5 -1,-4 -5,-10 -4,-7 -8,-14 -10,-19l-443 -3z"/>
   <path class="fil1" d="M3599 704c10,7 9,5 13,38 4,39 10,66 11,107 1,3 1,10 1,12l5 10c14,7 428,7 440,0 4,-5 2,1 4,-7 8,-26 -19,-128 -16,-159 2,-31 -41,-141 -58,-178l-19 -39c-6,-11 0,-5 -9,-13l-440 -1c2,18 14,42 20,59 26,71 30,100 48,171z"/>
   <path class="fil0" d="M2549 1363c29,-74 52,-117 72,-202 13,-55 38,-184 33,-236 -15,-6 -355,-7 -377,-1l0 440 272 -1z"/>
   <path class="fil1" d="M3468 1364c22,-26 62,-159 73,-200 15,-51 39,-184 32,-240 -34,-3 -354,-4 -370,1 -4,75 -6,141 -6,217 0,69 -5,155 0,221l271 1z"/>
   <path class="fil0" d="M2102 1363c119,5 132,16 131,-25 0,-68 2,-390 -1,-413 -13,-5 -351,-6 -377,-2 -2,117 55,353 110,439 45,2 92,-1 137,1z"/>
   <path class="fil2" d="M1201 1360c10,-28 23,-52 34,-83 11,-28 21,-58 29,-87 8,-27 45,-173 33,-194l6 -72 -372 1 0 436c30,3 250,4 270,-1z"/>
   <path class="fil1" d="M3509 430l436 1c-11,-36 -101,-140 -123,-162 -46,-45 -97,-88 -159,-128 -107,-71 -276,-138 -432,-141 1,5 123,161 151,204 45,69 92,147 127,226z"/>
   <path class="fil2" d="M1240 429l435 2c-11,-37 -101,-139 -124,-162 -145,-145 -365,-265 -591,-269 6,14 63,79 78,99 70,94 117,165 172,270 10,19 18,38 30,60z"/>
   <path class="fil2" d="M511 972c-5,45 24,165 36,208 9,30 20,63 31,91 10,28 27,62 35,86 27,6 99,3 133,3 40,0 96,-1 134,2l0 -438 -372 1 3 47z"/>
   <path class="fil0" d="M2950 326c-12,0 -13,-5 -29,-19 -9,-8 -9,-13 -10,-15 -7,-10 -3,-5 -15,-12l-7 -9c-10,-17 -31,-31 -47,-44l-26 -22c-14,-9 -2,-2 -11,-11 -8,-7 -57,-34 -47,-39 -19,-29 -166,-92 -197,-104 -68,-25 -170,-50 -252,-51 6,18 27,37 39,52 73,85 158,216 211,317 10,19 17,41 29,60l436 2c-5,-17 -61,-95 -74,-105z"/>
   <path class="fil2" d="M139 425l423 1c6,-1 57,-102 63,-114 34,-63 101,-158 143,-211l81 -100c-66,-3 -181,26 -238,46 -140,49 -248,121 -348,219 -20,18 -117,129 -124,159z"/>
   <path class="fil1" d="M3197 472c-5,68 1,314 4,393 0,22 12,15 35,15 77,-1 298,4 339,-1 6,-97 -50,-318 -95,-407l-283 0z"/>
   <path class="fil2" d="M598 472c-25,41 -49,132 -63,185 -18,68 -21,111 -26,177 0,4 -1,10 -1,15 -1,9 -1,19 -1,29l375 0 -1 -406 -283 0z"/>
   <path class="fil0" d="M1857 834l2 42 370 0c3,-66 1,-137 1,-201 0,-39 5,-175 -2,-202l-282 -2c-34,60 -66,188 -79,263 -5,35 -7,64 -10,100z"/>
   <path class="fil2" d="M932 878l371 0c1,-68 -15,-155 -30,-218 -8,-32 -50,-169 -64,-183l-278 -2 1 403z"/>
   <path class="fil0" d="M2643 783c2,-32 -23,-133 -32,-162 -9,-27 -15,-49 -24,-74 -6,-18 -23,-52 -26,-68l-282 -4 0 401 370 0 -6 -93z"/>
   <path class="fil2" d="M157 1406c3,4 8,15 13,21l46 58c54,67 144,144 218,188 121,71 250,120 417,131 -8,-16 -27,-35 -38,-49 -14,-17 -22,-28 -37,-47 -23,-30 -47,-64 -69,-95 -68,-98 -77,-136 -121,-207l-429 0z"/>
   <path class="fil1" d="M3231 1804c152,-5 309,-66 414,-130 58,-35 111,-76 153,-118 16,-16 117,-118 122,-145l-422 -2c-9,15 -18,36 -28,54 -24,46 -66,111 -95,153l-144 188z"/>
   <path class="fil2" d="M961 1803c136,1 316,-69 411,-128 85,-52 239,-180 278,-264l-422 -2c-19,32 -38,75 -59,108 -21,36 -40,64 -64,100 -24,36 -46,63 -70,94 -12,15 -69,81 -74,92z"/>
   <path class="fil0" d="M2876 1556l-3 -9c16,-8 12,-7 16,-22l7 5c0,-16 1,-6 2,-20 2,2 0,2 5,4l5 0c7,-10 9,-14 21,-19l0 -14 17 -1c11,-7 51,-62 52,-69l-421 -3c-98,204 -260,379 -268,396 113,-4 239,-42 326,-83 79,-38 184,-103 241,-165z"/>
   <path class="fil0" d="M1613 266c5,12 47,59 60,77 19,26 35,55 55,83l187 0 59 -114c22,-39 45,-75 68,-109 38,-56 73,-99 114,-151 11,-13 35,-37 41,-52 -171,6 -342,75 -470,168 -30,21 -93,71 -114,98z"/>
   <path class="fil3" d="M3946 2363c-6,39 -28,42 -66,43 -37,1 -75,1 -113,0 -36,0 -71,1 -82,-29 -7,-22 -5,-81 -2,-106 6,-38 26,-41 65,-42 37,-1 75,-1 113,0 35,0 71,-4 81,29 8,22 8,81 4,105zm-372 -10c8,156 43,149 277,146 195,-3 210,-12 203,-217 -2,-73 -6,-125 -74,-138 -52,-11 -147,-8 -203,-8 -173,1 -213,-3 -203,217z"/>
   <path class="fil3" d="M1834 2379c-12,29 -49,27 -83,27 -36,1 -74,1 -110,0 -39,-2 -63,-6 -68,-43 -3,-29 -4,-83 5,-108 11,-29 48,-26 83,-26 36,-1 73,-1 109,0 40,1 60,3 66,42 3,21 5,89 -2,108zm-368 0c6,74 19,107 95,115 62,7 141,5 206,4 65,-1 137,3 163,-47 20,-38 18,-145 14,-194 -6,-76 -19,-110 -96,-117 -66,-6 -140,-5 -207,-4 -70,2 -135,-1 -161,49 -20,40 -17,145 -14,194z"/>
   <path class="fil0" d="M1935 1407c-40,-2 -200,-8 -224,4 -11,5 -7,2 -15,15 -20,31 -81,107 -84,113 36,31 71,65 115,97 127,89 305,165 473,167l-10 -15c-74,-89 -139,-174 -198,-276l-57 -105z"/>
   <path class="fil3" d="M2842 2490l186 2 0 -349 -107 -1 1 262c0,-1 -1,1 -2,2 -18,-1 -6,0 -11,-5l-180 -260 -185 0c-4,17 -4,337 0,352l107 1 -1 -263c17,1 35,38 53,62l139 197z"/>
   <path class="fil3" d="M137 2392c-12,-15 2,-8 -13,-13l-91 0 0 44c-2,53 42,66 91,72 46,6 112,4 161,3 46,0 112,2 144,-21 30,-22 34,-88 26,-133 -9,-51 -43,-62 -97,-66 -52,-5 -106,-4 -158,-7 -22,-1 -60,4 -63,-22 -4,-32 22,-30 48,-31 43,-2 120,-7 153,8l4 26 103 -1c5,-104 -42,-114 -153,-115 -45,0 -91,-1 -134,2 -46,3 -82,1 -105,31 -21,26 -24,76 -18,115 7,42 28,60 70,66 35,5 148,8 193,9 21,1 43,-2 53,13 10,24 1,42 -25,44 -22,2 -50,1 -73,1 -41,0 -122,9 -116,-25z"/>
   <path class="fil3" d="M3387 2400c-7,4 -14,4 -26,5 -8,1 -17,1 -25,1 -31,0 -138,3 -153,-3 -1,-12 -5,-160 3,-173 38,-2 202,-5 226,8 25,13 23,61 22,96 -1,38 -6,67 -47,66zm26 90c44,5 88,-14 105,-41 30,-48 28,-211 6,-255 -15,-28 -48,-53 -95,-49l-174 -2c-58,0 -118,1 -176,0l0 349 250 0c25,0 61,-3 84,-2z"/>
   <path class="fil3" d="M1431 2423c1,-24 2,-39 2,-65l-101 0 -8 14c1,40 -28,37 -66,38 -34,0 -69,1 -103,-1 -36,-1 -56,-7 -59,-44 -3,-29 -4,-71 1,-100 6,-37 26,-38 64,-40 34,-2 69,-1 103,1 88,3 39,33 63,41 4,2 91,1 100,0 8,-42 0,-106 -58,-122 -44,-12 -123,-10 -172,-9 -190,3 -208,10 -210,156 -2,162 -10,201 158,206 57,1 122,3 179,-2 54,-5 107,-16 107,-73z"/>
   <path class="fil3" d="M496 2387c-4,61 25,93 77,103 52,10 119,9 173,9 112,-1 216,7 199,-159l1 -197 -104 0 -1 187c-2,14 1,1 -3,7 7,77 -45,70 -115,70 -73,0 -128,6 -121,-63 -7,-12 -5,-34 -5,-49l1 -152 -105 -1 3 245z"/>
   <path class="fil3" d="M2097 2374l11 -4c53,-3 169,3 234,0l1 -79 -251 -1 0 -56c1,-17 -1,-5 6,-9l259 -1 1 -80 -370 -1 0 350 105 -1 -1 -107c2,-21 0,-8 5,-11z"/>
   <path class="fil0" d="M1967 426c40,4 94,1 135,1 15,0 118,8 128,-1 7,-8 3,-81 3,-93l0 -295c-14,2 -32,31 -39,39 -59,68 -216,288 -227,349z"/>
   <path class="fil2" d="M620 426l262 2c4,-74 1,-268 0,-356l0 -34 -12 10c-4,4 -6,7 -9,11 -48,58 -79,95 -123,160 -21,30 -113,170 -118,207z"/>
   <path class="fil1" d="M3197 72l0 356c69,3 186,1 260,1 -3,-48 -220,-368 -260,-392l0 35z"/>
   <path class="fil0" d="M2277 428l258 1c-3,-31 -97,-178 -116,-206 -20,-31 -124,-175 -142,-184l0 389z"/>
   <path class="fil2" d="M1184 419c-30,-76 -130,-225 -180,-289l-69 -87c-4,4 -4,-5 -4,23 0,81 -4,319 0,360l250 1c5,-4 6,6 3,-8z"/>
   <path class="fil1" d="M3197 1766c18,-7 115,-138 135,-167 24,-33 104,-152 114,-190l-249 0 0 357z"/>
   <path class="fil0" d="M2277 1766c37,-24 233,-299 247,-357 -46,-1 -209,-3 -247,1l0 356z"/>
   <path class="fil2" d="M929 1764c21,-11 112,-136 134,-166 20,-28 103,-152 113,-189l-248 0 1 355z"/>
   <path class="fil2" d="M646 1419c0,21 91,156 107,180 18,29 40,56 61,84 9,12 58,70 61,78 6,-5 6,-4 6,-20l-1 -155c0,-57 3,-120 0,-175l-239 -3 5 11z"/>
   <path class="fil0" d="M2026 1482c26,49 61,97 91,141 17,25 31,41 49,66 12,16 36,48 51,62l12 2 0 -339 -230 -5c0,23 7,31 21,55 6,10 5,3 6,18z"/>
   <path class="fil1" d="M2970 279c19,28 39,47 62,80 57,80 20,71 121,69l0 -390c-16,7 -40,41 -51,55 -30,36 -124,157 -132,186z"/>
   <path class="fil1" d="M2939 1560c-12,7 -29,26 -42,38 -31,27 -55,49 -89,73 -12,8 -40,23 -46,35 24,10 51,25 80,36 87,34 181,57 279,62 -6,-15 -35,-46 -47,-62l-135 -182z"/>
   <path class="fil1" d="M3068 1409c-5,6 -6,5 -8,8 -7,6 1,-1 -5,5 -5,6 2,3 -12,9l-70 91c11,29 63,98 84,127l69 88c12,15 15,22 27,27l-1 -357c-11,-1 -84,-3 -84,2z"/>
   <path class="fil1" d="M2762 97c6,10 79,60 90,69l84 76 87 -121c12,-15 91,-109 95,-121 -135,4 -255,47 -356,97z"/>
   <polygon class="fil3" points="2384,2492 2492,2493 2492,2143 2383,2144 "/>
   <path class="fil0" d="M1832 1117c-13,44 -24,85 -41,127l-52 117 174 1 -81 -245z"/>
   <path class="fil0" d="M1754 471c15,32 29,65 43,102 7,19 29,98 34,107 5,-11 10,-41 13,-54 13,-49 46,-135 50,-155l-140 0z"/>
   <path class="fil4" d="M2643 783l6 93 -370 0 0 -401 282 4c-7,-10 -20,-7 -34,-7 -58,1 -221,-4 -251,0 -4,25 -3,394 2,408l373 -1c4,-13 -1,-55 -3,-74l-5 -22z"/>
   <path class="fil1" d="M3152 1216c-8,10 -26,60 -33,77 -7,15 -32,59 -34,71l68 -1 -1 -147z"/>
   <path class="fil4" d="M1201 1360c-20,5 -240,4 -270,1l0 -436 372 -1 -6 72 5 -2c1,-25 6,-48 3,-73 -42,-2 -360,-4 -378,3l0 439c21,7 221,4 260,4 21,-1 10,-2 14,-7z"/>
   <path class="fil5" d="M4057 705c-3,31 24,133 16,159 -2,8 0,2 -4,7 -12,7 -426,7 -440,0l-5 -10c0,-2 0,-9 -1,-12 -1,-41 -7,-68 -11,-107 -4,-33 -3,-31 -13,-38 3,28 9,58 13,86 4,24 2,71 8,90l459 0c6,-21 -6,-107 -11,-135 -3,-13 -4,-30 -11,-40z"/>
   <path class="fil4" d="M511 972l-3 -47 372 -1 0 438c-38,-3 -94,-2 -134,-2 -34,0 -106,3 -133,-3 5,10 17,7 30,7 12,0 23,0 35,0 41,0 189,5 205,-1l0 -439c-15,-6 -340,-5 -377,-2l1 40c2,7 -1,-2 2,5l2 5z"/>
   <path class="fil6" d="M3413 2490c-23,-1 -59,2 -84,2l-250 0 0 -349c58,1 118,0 176,0l174 2c-6,-4 6,-1 -10,-4 -31,-5 -329,-2 -341,-1 -5,18 -5,336 0,355 53,3 116,0 171,0l164 -5z"/>
   <path class="fil4" d="M1857 834c-6,10 -6,21 -1,45 25,4 367,2 374,-1l3 -5c6,-16 2,-297 2,-353 0,-9 0,-17 0,-26 0,-26 -2,-20 -7,-21 7,27 2,163 2,202 0,64 2,135 -1,201l-370 0 -2 -42z"/>
   <path class="fil5" d="M2026 1482c-1,-15 0,-8 -6,-18 -14,-24 -21,-32 -21,-55l230 5 0 339 -12 -2c4,8 6,12 16,14 5,-49 0,-126 1,-179 0,-7 3,-171 -4,-177 -11,-5 -211,-4 -243,-4 2,19 30,65 39,77z"/>
   <path class="fil6" d="M2909 2401c5,5 -7,4 11,5 1,-1 2,-3 2,-2l-1 -262 107 1 0 349 -186 -2c7,7 -7,2 10,5l177 -1c4,-19 5,-335 0,-354l-109 0c-8,32 1,216 2,263l-13 -2z"/>
   <path class="fil6" d="M2097 2374c-5,3 -3,-10 -5,11l1 107 -105 1 0 -350 370 1c-6,-5 -2,-5 -24,-5 -71,1 -322,-4 -348,2l1 352c16,4 91,4 109,1l1 -120z"/>
   <path class="fil4" d="M932 878l-1 -403 278 2c-5,-6 3,-2 -6,-4l-276 0c-6,57 -1,145 0,205l0 193c2,9 -3,2 5,7z"/>
   <path class="fil1" d="M3153 471l-50 0c2,12 28,65 36,88l9 20c2,4 2,4 5,7l0 -115z"/>
   <path class="fil6" d="M2383 2144l109 -1 0 350 -108 -1 -1 -348zm-2 349c14,5 96,4 114,1l-1 -353c-16,-4 -99,-4 -114,1l1 351z"/>
   <path class="fil4" d="M1184 419c3,14 2,4 -3,8l-250 -1c-4,-41 0,-279 0,-360 0,-28 0,-19 4,-23l-7 -5c-5,32 -4,378 1,389 7,7 120,3 129,3 28,1 112,7 131,-3 -3,-16 0,-2 -5,-8z"/>
   <path class="fil6" d="M2097 2374c29,2 231,4 249,-3l-1 -82 -249 -1 2 -63c-7,4 -5,-8 -6,9l0 56 251 1 -1 79c-65,3 -181,-3 -234,0l-11 4z"/>
   <path class="fil2" d="M2950 326c-27,-43 -115,-118 -162,-153 -11,-8 -19,-16 -30,-18 -10,5 39,32 47,39 9,9 -3,2 11,11l26 22c16,13 37,27 47,44l7 9c12,7 8,2 15,12 1,2 1,7 10,15 16,14 17,19 29,19z"/>
   <path class="fil6" d="M496 2387l-3 -245 105 1 -1 152c0,15 -2,37 5,49l-2 -204 -108 1c-4,24 -5,241 4,246z"/>
   <path class="fil4" d="M646 1419l-5 -11 239 3c3,55 0,118 0,175l1 155c0,16 0,15 -6,20l8 4 -1 -357c-2,-1 -207,-7 -233,-4 -14,2 -7,2 -13,6l10 9z"/>
   <path class="fil6" d="M3387 2400c-66,0 -135,4 -202,2l1 -172c-8,13 -4,161 -3,173 15,6 122,3 153,3 8,0 17,0 25,-1 12,-1 19,-1 26,-5z"/>
   <path class="fil6" d="M838 2337c4,-6 1,7 3,-7l1 -187 104 0 -1 197c6,-14 5,-175 2,-200l-108 1 -1 196z"/>
   <path class="fil2" d="M2876 1556c19,-21 56,-49 70,-76l-17 1 0 14c-12,5 -14,9 -21,19l-5 0c-5,-2 -3,-2 -5,-4 -1,14 -2,4 -2,20l-7 -5c-4,15 0,14 -16,22l3 9z"/>
   <path class="fil6" d="M33 2423l0 -44 91 0c15,5 1,-2 13,13l-4 -17 -104 2c-2,10 -4,41 4,46z"/>
   <path class="fil6" d="M1324 2372l8 -14 101 0c0,26 -1,41 -2,65 2,-3 1,0 3,-6 0,-1 2,-8 2,-9 1,-6 0,-11 0,-16 1,-13 1,-23 -2,-36l-108 1 -2 15z"/>
   <path class="fil5" d="M3043 1431c14,-6 7,-3 12,-9 6,-6 -2,1 5,-5 2,-3 3,-2 8,-8l-12 1c-7,7 -9,10 -13,21z"/>
  </g>
 </g>
</svg>
