<?xml version="1.0" encoding="UTF-8"?>
<!DOCTYPE svg PUBLIC "-//W3C//DTD SVG 1.1//EN" "http://www.w3.org/Graphics/SVG/1.1/DTD/svg11.dtd">
<!-- Creator: CorelDRAW X7 -->
<svg xmlns="http://www.w3.org/2000/svg" xml:space="preserve" width="15.2569cm" height="5.29734cm" version="1.1" style="shape-rendering:geometricPrecision; text-rendering:geometricPrecision; image-rendering:optimizeQuality; fill-rule:evenodd; clip-rule:evenodd"
viewBox="0 0 2174 755"
 xmlns:xlink="http://www.w3.org/1999/xlink">
 <defs>
  <style type="text/css">
   <![CDATA[
    .fil0 {fill:#EC2026}
    .fil1 {fill:#ED1B24}
   ]]>
  </style>
 </defs>
 <g id="Layer_x0020_1">
  <metadata id="CorelCorpID_0Corel-Layer"/>
  <g id="_2506697843376">
   <path class="fil0" d="M881 754l0 -90 31 0c11,0 19,2 25,6 6,4 9,10 9,18 0,4 -1,8 -4,11 -2,4 -5,6 -9,8 5,1 9,3 12,7 3,4 4,8 4,13 0,9 -3,16 -9,20 -5,5 -13,7 -24,7l-35 0zm19 -40l0 26 16 0c5,0 9,-1 11,-3 3,-2 4,-6 4,-10 0,-4 -1,-7 -3,-10 -2,-2 -6,-3 -10,-3l-18 0zm0 -13l13 0c4,0 8,-1 11,-3 2,-2 4,-5 4,-8 0,-4 -2,-8 -4,-10 -3,-2 -7,-3 -12,-3l-12 0 0 24zm135 16c0,11 -3,20 -10,27 -7,7 -16,11 -27,11 -11,0 -21,-4 -27,-11 -7,-7 -11,-16 -11,-27l0 -17c0,-11 4,-20 10,-27 7,-7 16,-11 28,-11 11,0 20,4 27,11 7,7 10,16 10,27l0 17zm-18 -17c0,-7 -1,-13 -5,-17 -3,-5 -8,-7 -14,-7 -7,0 -11,2 -15,7 -3,4 -5,10 -5,17l0 17c0,7 2,13 5,17 4,5 8,7 15,7 6,0 11,-2 14,-7 4,-4 5,-10 5,-17l0 -17zm102 41c-3,4 -7,7 -13,10 -5,3 -13,4 -21,4 -11,0 -20,-3 -27,-10 -7,-7 -11,-16 -11,-27l0 -19c0,-11 4,-20 10,-26 7,-7 16,-11 26,-11 11,0 20,3 25,8 6,6 9,13 9,21l0 1 -17 0c0,-5 -2,-9 -4,-12 -3,-2 -7,-4 -12,-4 -6,0 -10,2 -14,7 -3,4 -5,9 -5,16l0 19c0,7 2,12 6,17 3,4 8,6 14,6 4,0 7,0 10,-1 2,-1 4,-2 6,-3l0 -17 -16 0 0 -13 34 0 0 34zm88 -24c0,11 -4,20 -11,27 -7,7 -16,11 -27,11 -11,0 -20,-4 -27,-11 -7,-7 -10,-16 -10,-27l0 -17c0,-11 3,-20 10,-27 7,-7 16,-11 27,-11 11,0 20,4 27,11 7,7 11,16 11,27l0 17zm-18 -17c0,-7 -2,-13 -5,-17 -4,-5 -9,-7 -15,-7 -6,0 -11,2 -14,7 -4,4 -5,10 -5,17l0 17c0,7 1,13 5,17 3,5 8,7 14,7 6,0 11,-2 15,-7 3,-4 5,-10 5,-17l0 -17zm50 18l0 36 -18 0 0 -90 34 0c10,0 18,2 24,7 6,4 9,11 9,19 0,5 -1,9 -4,12 -2,4 -6,6 -10,8 5,2 9,4 11,8 2,4 3,8 3,14l0 6c0,3 1,6 2,8 0,3 1,5 3,6l0 2 -19 0c-1,-2 -2,-4 -3,-7 0,-3 -1,-6 -1,-9l0 -6c0,-5 -1,-8 -3,-11 -3,-2 -6,-3 -11,-3l-17 0zm0 -14l16 0c5,0 9,-1 11,-3 3,-3 4,-6 4,-10 0,-4 -1,-7 -4,-10 -2,-2 -6,-4 -11,-4l-16 0 0 27z"/>
   <g>
    <path class="fil1" d="M1679 643c27,0 68,-22 47,-41 -18,-18 -24,-42 -4,-62 23,-23 60,-5 60,28 0,20 -3,34 -13,51 -2,4 -7,10 -7,13 0,7 11,-6 18,-12 5,-4 11,-11 17,-17l82 -79c6,-7 17,-12 17,-27 0,-10 -7,-17 -12,-22l-18 -17c-22,-22 -47,-45 -69,-67 -5,-5 -12,-12 -18,-16 -8,-7 -17,-21 -17,-11 0,2 20,28 20,54 0,15 0,24 -10,36 -11,13 -34,16 -51,1 -18,-18 -12,-44 5,-61 23,-22 -24,-42 -46,-42 -45,0 -59,59 -63,95 -3,25 -2,29 -3,50l1 37c0,4 1,10 2,13 4,35 17,96 62,96z"/>
    <path class="fil1" d="M753 279l76 0 0 -114c3,1 19,23 23,28l63 83c1,1 2,3 4,3l54 0 0 -247 -76 0 0 109 -79 -103c-1,-1 -2,-2 -3,-3 -1,-2 -1,-3 -4,-3l-58 0 0 247z"/>
    <path class="fil1" d="M332 142l-20 0 0 -46c22,0 55,-5 55,22 0,9 -5,16 -10,20 -6,3 -16,4 -25,4zm-98 134c0,2 1,3 3,3l72 0c2,0 3,-1 3,-3l0 -71c19,0 13,-2 23,18l9 18c2,6 6,12 9,18 2,6 7,15 8,20l86 0c-1,-3 -19,-40 -22,-45 -2,-5 -21,-41 -21,-46 10,-5 21,-15 27,-25 12,-19 12,-30 12,-52 0,-22 -11,-46 -27,-59 -17,-12 -37,-20 -66,-20l-116 0 0 244z"/>
    <path class="fil1" d="M1004 107c0,17 5,30 12,41 21,32 71,35 90,44 21,9 16,27 -5,27 -17,0 -26,-2 -41,-12 -12,-8 -20,-15 -26,-19l-43 50 10 9c3,3 7,5 11,8 6,5 13,9 20,12 39,19 88,25 128,4 5,-3 8,-6 12,-9 31,-26 36,-79 8,-109l-13 -10c-6,-5 -12,-7 -20,-11 -14,-6 -31,-9 -46,-14 -28,-11 -22,-27 1,-27 13,0 33,11 44,18 3,2 9,8 12,8 1,-3 3,-5 5,-7 4,-6 30,-44 31,-47 -3,-5 -23,-18 -30,-21 -31,-15 -70,-22 -105,-10 -32,10 -55,37 -55,75z"/>
    <path class="fil1" d="M1269 69l0 -33 -37 0 0 242 40 0 0 -131c0,-37 12,-81 54,-81 21,0 35,7 45,23 8,14 12,26 12,49l0 140 38 0 0 -147c0,-35 17,-65 54,-65 19,0 32,3 43,18 8,11 11,23 11,42l0 152 39 0 0 -159c0,-11 -4,-28 -8,-36 -2,-5 -4,-10 -7,-14 -3,-5 -6,-8 -10,-12 -2,-3 -3,-3 -5,-5 -2,-2 -4,-4 -6,-5 -33,-23 -91,-21 -114,11l-12 18c-3,-10 -16,-25 -26,-32 -31,-21 -84,-17 -108,21l-3 4z"/>
    <path class="fil1" d="M1716 70c19,0 25,0 43,9 9,4 17,10 24,17 14,14 24,38 24,58 0,22 -4,38 -16,54l-7 8c-5,6 -3,3 -8,8 -12,12 -36,21 -53,21 -73,0 -108,-80 -75,-135 3,-4 6,-9 10,-12 4,-4 6,-7 11,-10 4,-4 8,-6 13,-9 8,-4 21,-9 34,-9zm-119 79c0,28 1,42 13,67 8,15 11,16 19,27l12 11c39,30 93,38 137,10 16,-10 18,-17 25,-21l0 35 37 0 0 -242 -37 0 0 36c-10,-7 -20,-26 -56,-35 -25,-7 -58,-4 -81,6 -39,17 -69,64 -69,106z"/>
    <path class="fil1" d="M0 95l0 0c0,2 1,2 3,2l63 0 0 182 76 0 0 -182 66 0 0 -65 -208 0 0 63z"/>
    <path class="fil1" d="M453 279l37 0c1,-5 108,-186 109,-190 3,2 38,64 42,70 5,8 9,16 14,24l48 83c2,5 4,9 7,13l36 0c0,-4 -2,-5 -4,-9 -20,-36 -44,-74 -64,-111l-69 -119c-2,-3 -7,-13 -10,-15 -14,26 -38,67 -54,94l-28 48c-3,5 -6,10 -9,16 -7,13 -53,91 -55,96z"/>
    <path class="fil1" d="M2082 33l-32 0 0 34 31 0 0 111c0,32 6,53 19,72 14,17 39,30 62,30l12 0 0 -28c-36,0 -54,-32 -54,-67l0 -119 52 0 0 -33 -52 0 0 -33 -38 0 0 33z"/>
    <path class="fil1" d="M1920 72l0 -36 -39 0 0 242 40 0 0 -126c0,-19 6,-42 17,-54 13,-15 23,-21 44,-28 5,-1 26,-4 31,-4 4,1 6,1 11,1l0 -34c-34,0 -59,0 -88,24l-13 11c-1,2 -1,2 -3,4z"/>
    <path class="fil1" d="M292 485c0,26 9,46 21,60 10,13 32,28 54,28 20,0 35,-2 50,-15 28,-22 23,-53 3,-56 -11,-1 -21,8 -21,18 0,9 0,8 6,17 -2,1 -16,22 -43,12 -48,-20 -40,-143 22,-130 10,2 16,7 20,14 -5,8 -6,5 -6,17 0,5 3,10 6,12 13,11 32,2 32,-17 0,-27 -34,-49 -61,-49 -23,0 -41,7 -56,22 -15,14 -27,40 -27,67z"/>
    <path class="fil1" d="M1458 494c0,18 6,19 22,35l9 8c5,5 10,11 16,16l17 17c11,11 22,21 34,32l25 25c3,3 5,6 10,7 3,-5 0,-5 -6,-13 -11,-14 -18,-26 -26,-43 -18,-38 -20,-84 -11,-126 6,-29 22,-62 41,-84 3,-3 4,-4 2,-7 -6,1 -21,18 -26,23l-26 25c-2,2 -2,2 -4,3l-47 46c-8,9 -30,24 -30,36z"/>
    <path class="fil1" d="M1112 465l0 6c18,0 17,3 17,23 0,23 -3,51 12,66 16,16 40,15 58,2 3,-2 5,-4 7,-6 1,4 2,7 5,11 10,13 49,0 42,-17 -1,-4 -2,0 -9,-2 -5,-1 -7,-5 -7,-11 -1,-24 0,-49 0,-72 -1,-32 -50,-18 -50,0 0,3 1,4 1,6 4,0 8,0 11,1 3,1 5,4 5,8l0 39c0,18 -8,27 -25,27 -34,0 -7,-78 -24,-95 -11,-12 -43,-1 -43,14z"/>
    <path class="fil1" d="M486 533c0,-8 -1,-12 7,-17 9,-7 34,-5 34,7 0,14 2,16 -8,22 -11,8 -33,5 -33,-12zm-25 -62c0,26 32,20 32,3l0 -9c6,0 25,-7 32,8 2,6 2,17 2,25 -16,-9 -47,-4 -61,5 -26,19 -17,69 32,69 14,0 23,-7 33,-14 3,12 23,18 36,10 6,-4 7,-10 7,-16 -21,0 -17,-14 -17,-26 0,-51 9,-82 -51,-82 -11,0 -21,3 -29,7 -7,3 -16,10 -16,20z"/>
    <path class="fil1" d="M1016 505c0,-17 6,-41 25,-41 12,0 20,4 25,15 11,23 8,72 -21,72 -21,0 -29,-25 -29,-46zm-35 0c0,17 2,27 12,41 6,9 15,16 25,21 29,13 68,1 82,-29 8,-18 9,-42 1,-59 -4,-8 -5,-10 -11,-16 -20,-22 -55,-25 -81,-8 -16,10 -28,29 -28,50z"/>
    <path class="fil1" d="M515 279l36 0c1,-3 5,-8 6,-11l36 -63c2,-2 6,-8 6,-11 2,2 5,7 7,10 2,4 4,7 6,11l37 64 35 0c0,-3 0,-3 -1,-5 -1,-2 -2,-3 -3,-5l-48 -83c-3,-6 -7,-12 -10,-18 -4,-7 -20,-33 -21,-38 -3,1 -3,2 -6,9l-16 27c-16,29 -37,63 -54,93 -1,4 -3,7 -5,10 -2,3 -4,6 -5,10z"/>
    <path class="fil1" d="M915 438l0 10c-9,0 -19,-2 -19,11 0,4 1,5 2,7 6,0 12,0 17,1 0,11 2,70 -2,78 -4,10 -13,2 -13,14 0,10 21,11 32,11 39,0 34,-8 33,-18 -9,0 -18,-3 -18,-13l0 -72c8,0 23,4 29,-4 4,-7 1,-9 1,-15l-31 0c0,-14 -3,-36 8,-41 4,-2 20,-3 19,3 -1,3 -2,3 -2,7 0,20 32,24 32,-3 0,-31 -88,-50 -88,24z"/>
    <path class="fil1" d="M809 491c3,-39 48,-31 48,-7 0,9 -1,7 -23,7 -8,0 -17,0 -25,0zm-33 19c0,53 56,75 92,55 5,-2 8,-4 11,-8 5,-6 10,-20 0,-25 -7,4 -10,14 -33,14 -22,0 -37,-17 -37,-37l73 0c7,0 9,-25 1,-40 -24,-45 -107,-29 -107,41z"/>
    <path class="fil1" d="M627 460c0,-6 -8,-14 -14,-14 -12,0 -25,4 -30,15 -1,4 0,6 1,10 21,0 16,-4 16,64 0,10 -3,17 -14,17 -1,7 -3,12 7,16 10,3 40,4 50,-2 7,-3 4,-9 3,-14 -9,0 -16,-4 -16,-13l0 -42c0,-12 5,-26 14,-28 1,12 19,17 28,6 2,-3 4,-9 4,-14 -2,-18 -27,-25 -45,-3 -2,1 -1,2 -4,2z"/>
    <path class="fil1" d="M1308 461c-1,-6 -8,-15 -15,-15 -8,0 -14,0 -22,5 -9,7 -13,20 -3,20 1,0 7,-2 10,3 3,5 4,67 -1,73 -3,5 -8,4 -11,7 -1,1 -1,3 -1,5 0,11 21,11 32,11 12,0 30,0 30,-11 0,-11 -8,-5 -14,-11 -5,-5 -6,-60 2,-72 3,-4 4,-5 8,-7 3,13 20,16 28,6 16,-19 -13,-47 -38,-20 -2,2 -4,5 -5,6z"/>
    <path class="fil1" d="M729 461c-1,-6 -8,-15 -15,-15l-5 0c-9,0 -25,8 -25,19 0,17 18,-8 18,22 0,10 1,54 -4,60 -2,3 -4,4 -7,5 -2,0 -5,1 -5,7 0,11 21,11 33,11 22,0 32,-2 29,-17 -4,-2 -11,-2 -14,-5 -6,-7 -4,-55 -1,-65 2,-7 5,-11 11,-14 4,16 33,18 33,-8 0,-19 -29,-23 -43,-6 -1,2 -4,5 -5,6z"/>
   </g>
  </g>
 </g>
</svg>
